<svg width="24" height="24" xmlns="http://www.w3.org/2000/svg" viewBox="2 2 20 25"><defs><clipPath id="a" transform="translate(-.75 1.96)"><path fill="none" d="M0 0h25.36v25.17H0z"/></clipPath><clipPath id="b" transform="translate(-.75 1.96)"><path d="M12.71 12.71L6.6 23A12 12 0 1 1 18.82 2.38z" fill="none" clip-rule="evenodd"/></clipPath><clipPath id="c" transform="translate(-.75 1.96)"><path d="M12.77 12.58l6.05-10.21A11.87 11.87 0 1 1 6.72 22.8z" fill="none" clip-rule="evenodd"/></clipPath></defs><title>Bez nazwy-1</title><g clip-path="url(#a)" fill-rule="evenodd"><g clip-path="url(#b)"><path d="M24.32 14.36a12.12 12.12 0 1 0-12.07 12.12 12.12 12.12 0 0 0 12.07-12.12" fill="#f1f0f0"/><path d="M24.32 14.36zm0 0a12.12 12.12 0 0 1-24.24 0" fill="#d81f2a"/></g><g clip-path="url(#c)"><path d="M0 14.55a12 12 0 1 1 12 12 12 12 0 0 1-12-12" fill="#f1f0f0"/><path d="M6.66 17.68l-4.17 4.17a11.74 11.74 0 0 1-2.07-4.17zm2.21 8.46a12.08 12.08 0 0 1-4.17-2.07l4.17-4.18v6.25zm6.27-23.18a11.91 11.91 0 0 1 4.17 2.07l-4.18 4.18V2.96zm4.17 21.11a12 12 0 0 1-4.18 2.07v-6.25l4.18 4.18zM4.7 5.03a11.87 11.87 0 0 1 4.18-2.07v6.25L4.7 5.03zm18.89 12.65a12 12 0 0 1-2.07 4.18l-4.17-4.18zM.42 11.42a11.78 11.78 0 0 1 2.07-4.18l4.17 4.18zm21.1-4.18a12 12 0 0 1 2.07 4.18h-6.24l4.17-4.18z" fill="#2056a7"/><path d="M.11 12.96h10.33V2.65a12.3 12.3 0 0 1 3.13 0v10.31H23.9a11.82 11.82 0 0 1 .1 1.57 11.57 11.57 0 0 1-.1 1.56H13.57v10.36a13.64 13.64 0 0 1-1.57.1 13.61 13.61 0 0 1-1.56-.1V16.11H.11A11.57 11.57 0 0 1 0 14.55a11.84 11.84 0 0 1 .11-1.59z" fill="#d81f2a"/><path d="M14.25 6.06L8.87.71c.25-.25.51-.48.77-.71l4.61 4.59v1.47zm.91 5.36l5.33-5.36c.24.25.48.51.7.77l-4.58 4.59zm0 6.26l5.35 5.35a10.27 10.27 0 0 1-.77.71l-4.58-4.59zm-6.27 0l-5.37 5.35a10.44 10.44 0 0 1-.71-.77l4.59-4.58z" fill="#d81f2a"/></g><path d="M18.33 4.48c-.09 0-.22-.14-.26-.15l-.23-.12L5.77 24.63l.2.13.28.2z" fill="#922641"/></g></svg>
