<?xml version="1.0" encoding="UTF-8"?>
<svg width="15px" height="14px" viewBox="0 0 15 14" version="1.1" xmlns="http://www.w3.org/2000/svg" xmlns:xlink="http://www.w3.org/1999/xlink">
    <!-- Generator: sketchtool 51.3 (57544) - http://www.bohemiancoding.com/sketch -->
    <title>4071F515-72F1-4CE8-B032-ADBB58879920</title>
    <desc>Created with sketchtool.</desc>
    <defs></defs>
    <g id="Styleguide" stroke="none" stroke-width="1" fill="none" fill-rule="evenodd">
        <g transform="translate(-361.000000, -3529.000000)" fill="#942940" fill-rule="nonzero" id="ikona_in">
            <path d="M364.1125,3530.52174 C364.1125,3531.36235 363.41875,3532.04348 362.5625,3532.04348 C361.70625,3532.04348 361.0125,3531.36235 361.0125,3530.52174 C361.0125,3529.68174 361.70625,3529 362.5625,3529 C363.41875,3529 364.1125,3529.68174 364.1125,3530.52174 Z M364.125,3533.26087 L361,3533.26087 L361,3543 L364.125,3543 L364.125,3533.26087 Z M369.11375,3533.26087 L366.00875,3533.26087 L366.00875,3543 L369.114375,3543 L369.114375,3537.88757 C369.114375,3535.04496 372.8825,3534.81243 372.8825,3537.88757 L372.8825,3543 L376,3543 L376,3536.8333 C376,3532.03678 370.42375,3532.21148 369.11375,3534.57261 L369.11375,3533.26087 Z"></path>
        </g>
    </g>
</svg>