<?xml version="1.0" encoding="UTF-8"?>
<svg width="15px" height="15px" viewBox="0 0 15 15" version="1.1" xmlns="http://www.w3.org/2000/svg" xmlns:xlink="http://www.w3.org/1999/xlink">
    <!-- Generator: sketchtool 51.3 (57544) - http://www.bohemiancoding.com/sketch -->
    <title>EBFF6AF2-B9A3-4260-A65B-7D1F93E4B315</title>
    <desc>Created with sketchtool.</desc>
    <defs></defs>
    <g id="Styleguide" stroke="none" stroke-width="1" fill="none" fill-rule="evenodd">
        <g transform="translate(-272.000000, -3528.000000)" fill="#942940" fill-rule="nonzero" id="ikona_ig">
            <path d="M279.5,3529.35187 C281.5025,3529.35187 281.74,3529.35938 282.53125,3529.39563 C284.56375,3529.48812 285.513125,3530.4525 285.605625,3532.47 C285.641875,3533.26062 285.64875,3533.49813 285.64875,3535.50063 C285.64875,3537.50375 285.64125,3537.74062 285.605625,3538.53125 C285.5125,3540.54688 284.565625,3541.51312 282.53125,3541.60563 C281.74,3541.64187 281.50375,3541.64937 279.5,3541.64937 C277.4975,3541.64937 277.26,3541.64187 276.469375,3541.60563 C274.431875,3541.5125 273.4875,3540.54375 273.395,3538.53062 C273.35875,3537.74 273.35125,3537.50313 273.35125,3535.5 C273.35125,3533.4975 273.359375,3533.26062 273.395,3532.46938 C273.488125,3530.4525 274.435,3529.4875 276.469375,3529.395 C277.260625,3529.35938 277.4975,3529.35187 279.5,3529.35187 Z M279.5,3528 C277.463125,3528 277.208125,3528.00875 276.408125,3528.045 C273.684375,3528.17 272.170625,3529.68125 272.045625,3532.4075 C272.00875,3533.20813 272,3533.46313 272,3535.5 C272,3537.53687 272.00875,3537.7925 272.045,3538.5925 C272.17,3541.31625 273.68125,3542.83 276.4075,3542.955 C277.208125,3542.99125 277.463125,3543 279.5,3543 C281.536875,3543 281.7925,3542.99125 282.5925,3542.955 C285.31375,3542.83 286.83125,3541.31875 286.954375,3538.5925 C286.99125,3537.7925 287,3537.53687 287,3535.5 C287,3533.46313 286.99125,3533.20813 286.955,3532.40812 C286.8325,3529.68687 285.319375,3528.17063 282.593125,3528.04563 C281.7925,3528.00875 281.536875,3528 279.5,3528 Z M279.5,3531.64875 C277.373125,3531.64875 275.64875,3533.37313 275.64875,3535.5 C275.64875,3537.62687 277.373125,3539.35187 279.5,3539.35187 C281.626875,3539.35187 283.35125,3537.6275 283.35125,3535.5 C283.35125,3533.37313 281.626875,3531.64875 279.5,3531.64875 Z M279.5,3538 C278.119375,3538 277,3536.88125 277,3535.5 C277,3534.11938 278.119375,3533 279.5,3533 C280.880625,3533 282,3534.11938 282,3535.5 C282,3536.88125 280.880625,3538 279.5,3538 Z M283.50375,3530.59688 C283.00625,3530.59688 282.603125,3531 282.603125,3531.49687 C282.603125,3531.99375 283.00625,3532.39687 283.50375,3532.39687 C284.000625,3532.39687 284.403125,3531.99375 284.403125,3531.49687 C284.403125,3531 284.000625,3530.59688 283.50375,3530.59688 Z"></path>
        </g>
    </g>
</svg>