<?xml version="1.0" encoding="UTF-8"?>
<svg width="15px" height="15px" viewBox="0 0 15 15" version="1.1" xmlns="http://www.w3.org/2000/svg" xmlns:xlink="http://www.w3.org/1999/xlink">
    <!-- Generator: sketchtool 51.3 (57544) - http://www.bohemiancoding.com/sketch -->
    <title>F53ED2A6-266A-435E-9B45-CCFA88F225D9</title>
    <desc>Created with sketchtool.</desc>
    <defs></defs>
    <g id="Styleguide" stroke="none" stroke-width="1" fill="none" fill-rule="evenodd">
        <g transform="translate(-493.000000, -3528.000000)" fill="#942940" fill-rule="nonzero" id="ikona_pin">
            <path d="M500.5,3528 C496.358125,3528 493,3531.3575 493,3535.5 C493,3538.6775 494.976875,3541.39125 497.766875,3542.48375 C497.70125,3541.89062 497.641875,3540.98063 497.793125,3540.33313 C497.929375,3539.7475 498.6725,3536.605 498.6725,3536.605 C498.6725,3536.605 498.448125,3536.15562 498.448125,3535.49125 C498.448125,3534.44875 499.0525,3533.67 499.805,3533.67 C500.444375,3533.67 500.75375,3534.15063 500.75375,3534.72625 C500.75375,3535.36938 500.344375,3536.33125 500.1325,3537.22312 C499.955625,3537.96938 500.506875,3538.57875 501.243125,3538.57875 C502.57625,3538.57875 503.600625,3537.17312 503.600625,3535.14437 C503.600625,3533.34875 502.310625,3532.09312 500.468125,3532.09312 C498.334375,3532.09312 497.081875,3533.69375 497.081875,3535.3475 C497.081875,3535.99188 497.33,3536.68375 497.64,3537.05875 C497.70125,3537.13312 497.71,3537.19875 497.691875,3537.27437 L497.48375,3538.12437 C497.450625,3538.26188 497.375,3538.29125 497.2325,3538.225 C496.295625,3537.78875 495.71,3536.41937 495.71,3535.31938 C495.71,3532.95375 497.42875,3530.78062 500.665625,3530.78062 C503.2675,3530.78062 505.289375,3532.635 505.289375,3535.1125 C505.289375,3537.6975 503.66,3539.7775 501.3975,3539.7775 C500.6375,3539.7775 499.923125,3539.38312 499.67875,3538.91625 L499.21125,3540.69938 C499.041875,3541.35125 498.585,3542.16813 498.27875,3542.66563 C498.98125,3542.8825 499.726875,3543 500.5,3543 C504.641875,3543 508,3539.64187 508,3535.5 C508,3531.3575 504.641875,3528 500.5,3528 Z"></path>
        </g>
    </g>
</svg>