<?xml version="1.0" encoding="UTF-8"?>
<svg width="152px" height="56px" viewBox="0 0 152 56" version="1.1" xmlns="http://www.w3.org/2000/svg" xmlns:xlink="http://www.w3.org/1999/xlink">
    <!-- Generator: Sketch 51.2 (57519) - http://www.bohemiancoding.com/sketch -->
    <title>browin_logo_2</title>
    <desc>Created with Sketch.</desc>
    <defs></defs>
    <g id="Symbols" stroke="none" stroke-width="1" fill="none" fill-rule="evenodd">
        <g id="top_menu" transform="translate(-378.000000, -122.000000)" fill="#FFFFFF">
            <g id="browin_logo_2">
                <g transform="translate(378.000000, 122.000000)">
                    <path d="M55.5260452,53.8477124 L55.2086895,53.0404315 C55.5673841,52.9296899 55.8224134,52.6213753 55.8662962,52.2268584 C55.9477021,51.5051506 55.5603883,51.1307685 54.6712837,51.031982 C54.2826979,50.9891955 53.7541958,50.9413753 53.2816603,50.9042517 C53.2606728,50.9891955 53.2441372,51.1005663 53.2339615,51.1873978 C53.2244218,51.2748584 53.216154,51.3887461 53.2180619,51.471173 L53.5481372,51.5605213 L53.2981958,53.7715775 L52.9554008,53.7866787 C52.9363213,53.867218 52.9185138,53.9785888 52.9083381,54.0654202 C52.8987983,54.1522517 52.8905305,54.2661393 52.8918025,54.3542292 L54.2260954,54.5020944 C54.2464469,54.4158921 54.2648904,54.3045213 54.2744301,54.2170607 C54.2839699,54.1296 54.2916017,54.0163416 54.2909657,53.9332854 L54.0429322,53.8546337 L54.1224301,53.1536899 L54.4792167,53.1927011 L54.8398192,54.1755326 C54.9676519,54.5272629 55.1310996,54.6537348 55.4160201,54.6858247 C55.7003046,54.7166562 55.8955515,54.6084315 55.9260787,54.3429034 L55.9546979,54.0817798 L55.8052418,54.064791 C55.6602377,54.0490607 55.5864636,54.0043865 55.5260452,53.8477124 Z M54.5161038,52.6371056 L54.1847565,52.6006112 L54.2985975,51.5926112 C54.4073506,51.5989034 54.5631665,51.6165213 54.6458444,51.6253303 C54.9867314,51.6630831 55.1317356,51.8241618 55.0929406,52.1620494 C55.0496937,52.5458697 54.8366393,52.6723416 54.5161038,52.6371056 Z M59.0417607,51.4422292 C58.1443883,51.3642067 57.4842377,51.9059596 57.3773925,53.1002067 C57.2680033,54.3215101 57.8047732,54.9217798 58.7282209,55.0029483 C59.6141456,55.0803416 60.2781121,54.5543191 60.3855933,53.3537798 C60.4949824,52.1287011 59.9696603,51.524027 59.0417607,51.4422292 Z M59.5817105,53.2833079 C59.5047565,54.1447011 59.2611749,54.4127461 58.7841874,54.3718472 C58.3180117,54.3309483 58.1049573,54.0226337 58.1819113,53.1612404 C58.2601372,52.2834876 58.5126226,52.0324315 58.9851582,52.0733303 C59.4309824,52.1123416 59.6605724,52.3954876 59.5817105,53.2833079 Z M65.0009238,51.9311281 C65.0066477,52.019218 65.0034678,52.1324764 64.9977439,52.2199371 C64.9913841,52.3067685 64.9799364,52.4206562 64.9634008,52.5018247 L64.6644887,52.5339146 L63.8364385,53.3682517 L64.4603381,54.5851506 C64.5430159,54.7506337 64.6091582,54.7764315 64.7554343,54.7858697 L64.9004385,54.7946787 L64.882631,55.0564315 C64.8654594,55.3244764 64.6803883,55.4408809 64.3891079,55.4220045 C64.0984636,55.4037573 63.9502795,55.2804315 63.7842879,54.9444315 L63.2780452,53.9150382 L62.8646561,54.3322067 L62.8443046,54.6455551 L63.094882,54.7141393 C63.1006059,54.7965663 63.0974259,54.9098247 63.0917021,54.9972854 C63.0859782,55.0853753 63.0738946,55.1973753 63.057995,55.284836 L61.7065305,55.1973753 C61.7020787,55.1086562 61.7039866,54.9953978 61.7097105,54.9079371 C61.7160703,54.8204764 61.727518,54.7084764 61.7440536,54.6260494 L62.0849406,54.5964764 L62.2318527,52.375982 L61.8979615,52.302364 C61.8928736,52.2199371 61.8954176,52.1060494 61.9011414,52.019218 C61.9068653,51.9317573 61.9202209,51.8191281 61.9361205,51.7316674 L63.2659615,51.8184989 C63.2704134,51.9065888 63.2678695,52.0198472 63.2621456,52.1073079 C63.2564218,52.1947685 63.2443381,52.308027 63.2278025,52.3891955 L62.9905808,52.4250607 L62.9168067,53.5456899 L62.9581456,53.548836 C63.1145975,53.3260944 63.2723213,53.1354427 63.435769,52.9598921 L63.8847732,52.4835775 L63.6437356,52.4162517 C63.6392837,52.3331955 63.6411916,52.2199371 63.6475515,52.1324764 C63.6532753,52.0443865 63.665359,51.9323865 63.6818946,51.8449258 L65.0009238,51.9311281 Z M71.189041,52.7906337 L69.4687063,54.9670831 L70.4360368,54.9972854 L70.4862795,54.7311281 C70.5753172,54.7235775 70.7368569,54.7235775 70.8303464,54.7273528 C70.9187481,54.7292404 71.0643883,54.7393079 71.1470661,54.7525213 L71.1178109,55.6522966 L68.6317523,55.5742742 L68.6094929,54.9664539 L70.3355515,52.7893753 L69.4553506,52.7616899 L69.4057439,53.0234427 C69.3173423,53.0309933 69.1564385,53.0309933 69.062313,53.0284764 C68.9739113,53.0253303 68.833359,53.0158921 68.7449573,53.0026787 L68.7742126,52.1073079 L71.1712335,52.1821843 L71.189041,52.7906337 Z M75.4424971,55.102364 C75.1823799,54.1409258 74.8968234,53.1989933 74.5794678,52.2362966 L73.6789155,52.2224539 C73.3253088,53.1738247 73.0079531,54.1050607 72.7166728,55.0583191 L72.5487732,55.1017348 C72.5373255,55.1841618 72.5303297,55.296791 72.5284218,55.3842517 C72.5271498,55.4717124 72.5303297,55.5856 72.5392335,55.6730607 L73.6420285,55.6906787 C73.6541121,55.603218 73.6611079,55.4905888 73.6630159,55.4024989 C73.6649238,55.3156674 73.6611079,55.2017798 73.6515682,55.1193528 L73.4187983,55.0696449 L73.5389992,54.6858247 L74.5902795,54.7021843 L74.6983967,55.090409 L74.4637188,55.1325663 C74.4522711,55.214364 74.4452753,55.3276225 74.4440033,55.4157124 C74.4420954,55.5025438 74.4452753,55.6158022 74.4541791,55.7038921 L75.598949,55.7221393 C75.6103967,55.6353079 75.6173925,55.5226787 75.6186644,55.4345888 C75.6199364,55.3471281 75.6167565,55.2332404 75.6078527,55.1514427 L75.4424971,55.102364 Z M73.7100787,54.1270831 L73.9956351,53.2203865 C74.0287063,53.1077573 74.0624134,52.9737348 74.0687732,52.8875326 L74.1209238,52.8881618 C74.1247397,52.9749933 74.153995,53.1096449 74.1826142,53.2235326 L74.4382795,54.1390382 L73.7100787,54.1270831 Z M79.6139113,54.7393079 L79.6285389,55.671173 L77.1628318,55.7108135 C77.1513841,55.6233528 77.1443883,55.5100944 77.1431163,55.4226337 C77.1412084,55.335173 77.1443883,55.2225438 77.1532921,55.1401169 L77.4909992,55.0828584 L77.4789155,54.362409 L77.230246,54.4486112 L77.2207063,53.8206562 L77.4687397,53.7338247 L77.4541121,52.859218 L77.1151331,52.8126562 C77.1036854,52.7302292 77.0966895,52.6169708 77.0954176,52.5295101 C77.0935096,52.4426787 77.0973255,52.328791 77.1055933,52.2425888 L78.561995,52.2180494 C78.5740787,52.3048809 78.5804385,52.4187685 78.5829824,52.5062292 C78.5842544,52.5930607 78.5804385,52.7069483 78.5715347,52.7893753 L78.2236519,52.8466337 L78.2338276,53.4538247 L78.5848904,53.3254652 C78.5893423,53.5513528 78.5772586,53.7778697 78.523836,53.9798472 L78.2446393,54.082409 L78.2611749,55.0753079 L78.9213255,55.0646112 L78.9524887,54.7506337 C79.0408904,54.7380494 79.2017941,54.7304989 79.2908318,54.7286112 C79.3843213,54.7273528 79.5242377,54.7304989 79.6139113,54.7393079 Z M81.9486059,55.2917573 C81.9562377,55.5497348 81.7870661,55.6718022 81.563836,55.6793528 C81.334882,55.6837573 81.1650745,55.5711281 81.1580787,55.3137798 C81.1510828,55.0614652 81.3240703,54.9230382 81.5473004,54.9167461 C81.7711665,54.9104539 81.942246,55.0394427 81.9486059,55.2917573 Z M88.0381456,54.6908584 C88.0483213,54.8815101 88.0476854,55.1539596 88.022882,55.3414652 L85.8503632,55.4603865 C85.8287397,55.3590831 85.8172921,55.2458247 85.8122042,55.1432629 C85.8058444,55.0356674 85.8039364,54.9274427 85.8134762,54.8129258 L86.6911331,54.7644764 L86.5709322,52.6157124 L85.7918527,52.7572854 C85.7460619,52.5993528 85.7015431,52.3539596 85.6907314,52.1696 L86.5957356,51.9443416 L87.2507983,51.9078472 L87.4091582,54.7254652 L88.0381456,54.6908584 Z M90.2615431,51.6536449 C89.5874008,51.7033528 89.1784636,52.1633079 89.2369741,52.9334652 C89.2942126,53.6778247 89.7209573,53.9358022 90.2189322,53.8980494 C90.4523381,53.8798022 90.645041,53.7992629 90.7817774,53.607982 L90.8180285,53.6054652 C90.8580954,54.3353528 90.6800201,54.6021393 90.3474008,54.6273079 C90.2748987,54.6323416 90.2011247,54.6273079 90.1642377,54.6203865 L90.0942795,54.3932404 C90.0058778,54.3882067 89.8914008,54.3926112 89.7979113,54.3989034 C89.7101456,54.4051955 89.5746812,54.4209258 89.4875515,54.4379146 L89.544154,55.1722067 C89.7565724,55.228836 90.0465808,55.2533753 90.3098778,55.2332404 C91.1614594,55.1703191 91.6200033,54.5473978 91.5157021,53.1713079 C91.4247565,51.9802067 90.9782962,51.6001618 90.2615431,51.6536449 Z M90.3900117,53.3374202 C90.1362544,53.3569258 89.961359,53.2556225 89.9308318,52.8611056 C89.9003046,52.4496 90.0217774,52.2652404 90.3181456,52.243218 C90.5814427,52.2237124 90.7340787,52.367173 90.7646059,52.7730157 C90.7925891,53.1473978 90.6603046,53.3179146 90.3900117,53.3374202 Z M94.9958025,51.300027 L95.0568569,51.9405663 C94.7388653,52.8283865 94.2688736,53.9836225 93.8427649,54.9381393 C93.6341623,54.9425438 93.3511498,54.9331056 93.1425473,54.8846562 L94.3210243,52.0041169 L93.4917021,52.0815101 L93.4745305,52.3929708 C93.381677,52.4118472 93.2691079,52.4275775 93.1762544,52.4363865 C93.0884887,52.4445663 92.9530243,52.4521169 92.8633506,52.4496 L92.774313,51.5070382 L94.9958025,51.300027 Z M97.2490912,50.9281618 C96.5774929,51.0074427 96.1895431,51.4850157 96.2830326,52.2513978 C96.3739782,52.9926112 96.8115347,53.2317124 97.3076017,53.1719371 C97.5403715,53.1436225 97.7279866,53.0542742 97.8564552,52.8573303 L97.8927063,52.8529258 C97.9652084,53.5809258 97.7998527,53.8552629 97.4685054,53.8949034 C97.3960033,53.9024539 97.3228653,53.9011955 97.2853423,53.8955326 L97.2058444,53.6715326 C97.1168067,53.6715326 97.0023297,53.6797124 96.9088402,53.6910382 C96.8217105,53.7011056 96.687518,53.7218697 96.6010243,53.7432629 L96.6900619,54.4750382 C96.9050243,54.5216 97.1956686,54.5335551 97.4583297,54.5020944 C98.3060954,54.4014202 98.7360201,53.7589933 98.5700285,52.3891955 C98.4262962,51.2024989 97.9633004,50.843218 97.2490912,50.9281618 Z M97.4532418,52.6043865 C97.2007565,52.635218 97.0207732,52.5414652 96.9724385,52.1482067 C96.9234678,51.739218 97.0373088,51.5498247 97.331769,51.5145888 C97.5937941,51.4831281 97.75279,51.6196674 97.8017607,52.0236225 C97.8469155,52.3967461 97.7222628,52.5729258 97.4532418,52.6043865 Z" id="Fill-1"></path>
                    <g id="Group" transform="translate(44.000000, 51.000000)" stroke="#FFFFFF" stroke-width="0.5">
                        <path d="M63.0813925,0.474319101 C63.1030159,0.616521348 63.0038025,0.74865618 62.8587983,0.769420225 C61.4551833,0.975802247 60.0261289,1.1696 58.6123381,1.34829663 C58.6015264,1.34955506 58.5894427,1.34955506 58.578631,1.34955506 C58.4476184,1.34955506 58.3350494,1.25454382 58.3178778,1.12240899 C58.2994343,0.979577528 58.4011916,0.849330337 58.5455598,0.830453933 C59.9561707,0.653644944 61.3814092,0.459217978 62.7824803,0.254094382 C62.9268485,0.234588764 63.059769,0.332116854 63.0813925,0.474319101 Z" id="Path"></path>
                        <path d="M5.4683046,1.12177978 C5.45113305,1.25328539 5.33792803,1.34955506 5.20691548,1.34955506 C5.19610377,1.34955506 5.18465607,1.34955506 5.17320837,1.34766742 C3.74669791,1.16834157 2.30428787,0.972026966 0.887953138,0.763757303 C0.743584937,0.742993258 0.644371548,0.610229213 0.665994979,0.468026966 C0.68761841,0.325195506 0.822446862,0.228296629 0.965543096,0.247802247 C2.37806192,0.45607191 3.81665607,0.65112809 5.23998661,0.830453933 C5.38435481,0.84807191 5.48611213,0.979577528 5.4683046,1.12177978 Z" id="Path"></path>
                    </g>
                    <path d="M45.5447331,30.9683775 C47.8781556,30.0459506 49.5304402,27.7958831 49.5304402,25.157591 C49.5304402,21.7025798 46.6990427,18.9006921 43.2068586,18.9006921 L28.4526828,18.9006921 L28.4526828,20.1276584 L29.5058711,20.5618157 L29.5058711,38.0979955 L28.4526828,38.5308944 L28.4526828,39.7553438 L34.7749925,39.7553438 L34.7749925,38.5308944 L33.7211682,38.0979955 L33.7211682,31.4144899 L41.0941222,31.4144899 L44.2893021,38.0866697 L43.2068586,38.5308944 L43.2068586,39.7553438 L50.5836285,39.7553438 L50.5836285,38.5308944 L48.8194109,37.8091865 L45.5447331,30.9683775 Z M31.981754,37.2353438 C31.981754,37.4385798 31.8157623,37.6015461 31.6135197,37.6015461 C31.409369,37.6015461 31.2459213,37.4385798 31.2459213,37.2353438 L31.2459213,21.423209 C31.2459213,21.2250067 31.409369,21.0588944 31.6135197,21.0588944 C31.8157623,21.0588944 31.981754,21.2250067 31.981754,21.423209 L31.981754,37.2353438 Z M33.7211682,28.2885573 L33.7211682,22.0310292 L42.1587582,22.0310292 C43.9007163,22.0335461 45.3151431,23.4322876 45.3151431,25.157591 C45.3151431,26.8879281 43.8994444,28.2885573 42.1530343,28.2885573 L33.7211682,28.2885573 Z M46.4878962,37.8091865 C46.3040971,37.8928719 46.0840469,37.8173663 45.9950092,37.6348944 L42.3444653,30.0075685 L42.3654527,29.6539506 L42.6802644,29.4846921 C45.0931849,29.4821753 47.0450176,27.547973 47.0507414,25.1601079 C47.0507414,23.7512989 46.3740552,22.504827 45.3253188,21.7101303 C45.1618711,21.591209 45.1307079,21.3602876 45.2521808,21.1998382 C45.3755615,21.0425348 45.6070594,21.0098157 45.7711431,21.1312539 C46.9979548,22.0524225 47.7910259,23.5172315 47.7910259,25.1601079 C47.7910259,27.763164 45.7914946,29.8817258 43.2361138,30.1617258 L46.6608837,37.3202876 C46.7492854,37.5027596 46.6723314,37.7217258 46.4878962,37.8091865 Z M67.4454527,18.1210966 C61.0423732,18.1210966 55.8521138,23.1384449 55.8521138,29.3299056 C55.8521138,35.5201079 61.0423732,40.5380854 67.4454527,40.5380854 C73.8459883,40.5380854 79.0362477,35.5201079 79.0362477,29.3299056 C79.0362477,23.1384449 73.8459883,18.1210966 67.4454527,18.1210966 Z M62.6501389,37.4341753 C62.5394778,37.6034337 62.3117958,37.6537708 62.1400803,37.5417708 C59.4047163,35.8139506 57.591528,32.7824 57.591528,29.3299056 C57.591528,25.8805573 59.4047163,22.8464899 62.1400803,21.1148944 C62.3117958,21.004782 62.5394778,21.0570067 62.6501389,21.2262652 C62.7588921,21.3942652 62.7080134,21.6195236 62.5375699,21.7290067 C60.0044485,23.3353888 58.3279967,26.139164 58.3279967,29.3299056 C58.3279967,32.5244225 60.0057205,35.3256809 62.5375699,36.9295461 C62.7080134,37.0390292 62.7588921,37.2642876 62.6501389,37.4341753 Z M60.0680469,29.3299056 C60.0680469,25.1557034 63.369436,21.7686472 67.4454527,21.7686472 C71.5189255,21.7686472 74.8196787,25.1557034 74.8196787,29.3299056 C74.8196787,33.5066247 71.5189255,36.8873888 67.4454527,36.8873888 C63.369436,36.8873888 60.0680469,33.5066247 60.0680469,29.3299056 Z M72.7463732,37.5417708 C72.5746577,37.6537708 72.3463397,37.6034337 72.2375866,37.4341753 C72.1275615,37.2642876 72.1771682,37.0390292 72.3488837,36.9295461 C74.881369,35.3256809 76.5597289,32.5244225 76.5597289,29.3299056 C76.5597289,26.139164 74.881369,23.3353888 72.3488837,21.7290067 C72.1790762,21.6195236 72.1288335,21.3942652 72.2401305,21.2262652 C72.3463397,21.0570067 72.5746577,21.004782 72.7476452,21.1148944 C75.4811013,22.8464899 77.2955615,25.8805573 77.2955615,29.3299056 C77.2955615,32.7824 75.4811013,35.8139506 72.7463732,37.5417708 Z M151.747578,20.1276584 L151.747578,18.9006921 L146.478457,18.9006921 L145.423997,18.9006921 L145.423997,20.1276584 L146.478457,20.5599281 L146.478457,23.6537708 L134.88639,18.9006921 L134.883846,18.9006921 L129.617905,18.9006921 L129.617905,20.1276584 L130.673001,20.5599281 L130.673001,38.0979955 L129.617905,38.5308944 L129.617905,39.7553438 L135.941486,39.7553438 L135.941486,38.5308944 L134.88639,38.0979955 L134.88639,22.2902652 L146.478457,27.0389393 L146.478457,38.0979955 L145.423997,38.5308944 L145.423997,39.7553438 L151.747578,39.7553438 L151.747578,38.5308944 L150.693754,38.0979955 L150.693754,20.5599281 L151.747578,20.1276584 Z M133.146976,37.2340854 C133.146976,37.4341753 132.98162,37.5977708 132.776197,37.5977708 C132.573319,37.5977708 132.408599,37.4341753 132.408599,37.2340854 L132.408599,21.423209 C132.408599,21.2250067 132.573319,21.0588944 132.776197,21.0588944 C132.98162,21.0588944 133.146976,21.2250067 133.146976,21.423209 L133.146976,37.2340854 Z M148.95434,37.2340854 C148.95434,37.4341753 148.788348,37.5977708 148.585469,37.5977708 C148.380683,37.5977708 148.217235,37.4341753 148.217235,37.2340854 L148.217235,21.423209 C148.217235,21.2250067 148.380683,21.0588944 148.585469,21.0588944 C148.788348,21.0588944 148.95434,21.2250067 148.95434,21.423209 L148.95434,37.2340854 Z M115.919461,20.1276584 L116.972649,20.5599281 L116.972649,38.0979955 L115.919461,38.5308944 L115.919461,39.7553438 L122.242407,39.7553438 L122.242407,38.5308944 L121.188582,38.0979955 L121.188582,20.5599281 L122.242407,20.1276584 L122.242407,18.9006921 L115.919461,18.9006921 L115.919461,20.1276584 Z M118.70952,21.423209 C118.70952,21.2250067 118.875511,21.0588944 119.080298,21.0588944 C119.283177,21.0588944 119.448532,21.2250067 119.448532,21.423209 L119.448532,37.2340854 C119.448532,37.4341753 119.283177,37.5977708 119.080298,37.5977708 C118.875511,37.5977708 118.70952,37.4341753 118.70952,37.2340854 L118.70952,21.423209 Z M102.217838,20.1276584 L103.112666,20.4938607 L101.702691,34.4340854 L96.4233941,26.3235236 L91.1428251,34.4340854 L89.7341222,20.4938607 L90.6289506,20.1276584 L90.6289506,18.9006921 L84.3047331,18.9006921 L84.3047331,20.1276584 L85.5321808,20.6322876 L87.3065741,38.1628045 L86.4130176,38.5308944 L86.4130176,39.7553438 L92.7321473,39.7553438 L92.7321473,38.5308944 L92.3422895,38.3672989 L96.4233941,32.0971865 L100.501955,38.3672989 L100.110189,38.5308944 L100.110189,39.7553438 L106.433135,39.7553438 L106.433135,38.5308944 L105.540214,38.1628045 L107.312064,20.6322876 L108.541419,20.1276584 L108.541419,18.9006921 L102.217838,18.9006921 L102.217838,20.1276584 Z M89.3550762,37.6015461 C89.1521975,37.6229393 88.9728502,37.4763326 88.9518628,37.2724674 L87.3536368,21.4603326 C87.3332854,21.2596135 87.4808335,21.0815461 87.6843481,21.060782 C87.8872268,21.0425348 88.0659381,21.1891416 88.0862895,21.3898607 L89.6851515,37.2026247 C89.704231,37.4020854 89.5579548,37.5788944 89.3550762,37.6015461 Z M104.757955,21.3898607 C104.777034,21.1891416 104.958926,21.0425348 105.161804,21.060782 C105.365319,21.0815461 105.512867,21.2596135 105.491244,21.4603326 L103.896197,37.2724674 C103.873938,37.4763326 103.692047,37.6229393 103.489168,37.6015461 C103.288197,37.5788944 103.139377,37.4020854 103.158457,37.2026247 L104.757955,21.3898607 Z M18.5186243,28.4829843 C19.4497038,27.4649169 20.0233607,26.1158831 20.0233607,24.6378607 C20.0233607,21.4685124 17.427913,18.9006921 14.2257372,18.9006921 L6.35983264e-05,18.9006921 L6.35983264e-05,20.1276584 L1.05452385,20.5599281 L1.05452385,38.0979955 L6.35983264e-05,38.5308944 L6.35983264e-05,39.7553438 L14.7536033,39.7553438 C18.2451515,39.7553438 21.074641,36.9547146 21.074641,33.4984449 C21.074641,31.4421753 20.0691515,29.6231191 18.5186243,28.4829843 Z M5.26982092,22.0310292 L13.1744569,22.0310292 C14.6295866,22.0310292 15.8093356,23.1982202 15.8093356,24.6378607 C15.8093356,26.0768719 14.6295866,27.2434337 13.1744569,27.2434337 L5.26982092,27.2434337 L5.26982092,22.0310292 Z M3.53040669,37.2340854 C3.53040669,37.4341753 3.36759498,37.5977708 3.16217238,37.5977708 C2.96056569,37.5977708 2.79393808,37.4341753 2.79393808,37.2340854 L2.79393808,21.423209 C2.79393808,21.2250067 2.96056569,21.0588944 3.16217238,21.0588944 C3.36759498,21.0588944 3.53040669,21.2250067 3.53040669,21.423209 L3.53040669,37.2340854 Z M13.7055029,36.6294112 L5.26982092,36.6294112 L5.26982092,30.3744 L13.704231,30.3744 C15.450005,30.3744 16.8612519,31.7731416 16.8612519,33.4984449 C16.8612519,35.2243775 15.450005,36.6231191 13.7055029,36.6294112 Z M17.3197958,37.5266697 C17.1557121,37.6487371 16.9267582,37.616018 16.8008335,37.4574562 C16.6799967,37.297636 16.7079799,37.0704899 16.8707916,36.9459056 C17.9233439,36.1549843 18.6000301,34.9078831 18.6000301,33.4984449 C18.5962142,31.1086921 16.6412017,29.177636 14.2257372,29.1726022 L13.701687,29.1726022 L13.4402979,29.0668944 L13.3315448,28.8076584 L13.4402979,28.5490517 L13.701687,28.4414562 C15.8245992,28.4389393 17.541118,26.7388045 17.5474778,24.6378607 C17.5474778,23.4549393 17.0037121,22.4041528 16.1527665,21.7025798 C15.9931347,21.5717034 15.9727833,21.3420404 16.1025238,21.1891416 C16.2316285,21.0337258 16.4663063,21.013591 16.6208502,21.1419506 C17.6346075,21.9712539 18.2826745,23.2315685 18.2826745,24.6378607 C18.2826745,26.4185348 17.235846,27.9468944 15.7215699,28.6899955 C17.8114109,29.3248719 19.3390427,31.2269843 19.3390427,33.4984449 C19.3390427,35.1463551 18.5446996,36.6055011 17.3197958,37.5266697 Z" id="Fill-3"></path>
                    <path d="M75.6843615,8.33141573 L76.0996586,8.33141573 L76.0996586,9.86355056 L75.6843615,9.86355056 L75.6843615,8.33141573 Z M75.7237925,6.17069663 C75.7206126,5.69941573 75.856077,5.4647191 75.8770644,5.43137079 C75.8789724,5.42885393 75.8796084,5.42696629 75.8796084,5.42696629 L75.8796084,5.43137079 L75.8802444,5.43137079 L75.8796084,5.42696629 C75.8796084,5.42696629 76.0392402,5.66040449 76.0354243,6.17069663 C76.0347883,6.28458427 76.0347883,6.39721348 76.0347883,6.50355056 C76.2185874,6.09959551 76.4672569,5.72647191 76.7795247,5.41752809 C76.7420017,5.26777528 76.6663197,5.08089888 76.5531146,4.93177528 C76.4017506,4.67065169 76.1753406,4.40889888 75.8732485,4.18426966 C75.5711565,4.40889888 75.3441105,4.67065169 75.1933824,4.93177528 C75.1177004,5.08089888 75.0426544,5.26777528 75.0044954,5.41752809 C75.286872,5.72458427 75.5488971,6.09519101 75.7257004,6.49662921 C75.7250644,6.39217978 75.7244285,6.28206742 75.7237925,6.17069663 Z M75.8796084,3.13914607 L75.8796084,3.13474157 C75.8827883,3.14103371 75.9800937,3.34426966 75.9915414,3.77653933 C76.1028385,3.85141573 76.2147715,3.96152809 76.3267046,4.03514607 C76.4392736,3.88602247 76.5906377,3.69851685 76.7044787,3.54939326 C76.5531146,3.10076404 76.2885456,2.65276404 75.8732485,2.27901124 C75.4954745,2.65276404 75.1933824,3.10076404 75.0801774,3.54939326 C75.1933824,3.69851685 75.3441105,3.88602247 75.4579515,4.03514607 C75.5279096,3.96530337 75.6315749,3.86337079 75.7683113,3.78975281 C75.7772151,3.37761798 75.8637088,3.17060674 75.8777004,3.13914607 C75.8789724,3.13662921 75.8796084,3.13474157 75.8796084,3.13474157 L75.8796084,3.13914607 Z M75.8796084,1.44026966 L75.8796084,1.43586517 C75.8815163,1.43964045 75.9387548,1.56548315 75.968646,1.82723596 L76.0246126,1.86813483 C76.0621356,1.90588764 76.0996586,1.94301124 76.1371816,1.98013483 C76.2885456,1.79325843 76.4774326,1.56925843 76.6663197,1.38238202 C76.5149556,0.896629213 76.2510226,0.410876404 75.8732485,0 C75.4954745,0.410876404 75.2315414,0.896629213 75.1177004,1.38238202 C75.3065874,1.56925843 75.4954745,1.79325843 75.6462025,1.98013483 C75.6843615,1.94301124 75.7225205,1.90588764 75.7600435,1.86813483 L75.7899347,1.83919101 C75.816646,1.59316854 75.8675247,1.46417978 75.8777004,1.44026966 C75.8789724,1.43775281 75.8796084,1.43586517 75.8796084,1.43586517 L75.8796084,1.44026966 Z M77.1572987,5.56665169 C76.5531146,6.20152809 76.1378176,7.0232809 76.0996586,7.95640449 C77.3786209,7.35235955 78.3478594,6.58534831 78.6741188,5.96997753 C78.5742695,6.45132584 78.022872,7.09501124 77.1916418,7.71289888 C77.680713,7.5272809 78.1252653,7.24602247 78.478872,6.87478652 C79.1205791,6.27703371 79.4983531,5.41752809 79.5365121,4.52089888 C78.6296,4.55802247 77.7614828,4.96889888 77.1572987,5.56665169 Z M73.1079933,5.96997753 C73.4336167,6.58597753 74.4047632,7.35298876 75.6843615,7.95766292 C75.6462025,7.02391011 75.2315414,6.20152809 74.6267213,5.56665169 C73.9850142,4.96889888 73.1537841,4.55802247 72.2106209,4.52089888 C72.2856669,5.41752809 72.663441,6.27703371 73.3051481,6.87478652 C73.6657506,7.25357303 74.107759,7.53797753 74.6044619,7.72296629 C73.7656,7.10193258 73.2084787,6.4538427 73.1079933,5.96997753 Z M78.818487,2.76476404 C77.8746879,2.98939326 77.1191397,3.58651685 76.6281607,4.33339326 C76.7044787,4.44602247 76.8170477,4.59577528 76.8927297,4.74489888 C76.9684117,4.85689888 77.0440937,4.96889888 77.0816167,5.11865169 C77.2959431,4.92485393 77.5350728,4.75622472 77.7913741,4.61591011 C78.1640603,4.23397753 78.4267213,3.86651685 78.5443782,3.55316854 C78.5252987,3.79919101 78.3987381,4.09995506 78.1818678,4.43029213 C78.3516753,4.36107865 78.5272067,4.30382022 78.705282,4.25914607 C78.780964,3.92314607 78.856646,3.58651685 78.856646,3.25051685 C78.856646,3.06364045 78.856646,2.91451685 78.818487,2.76476404 Z M77.7226879,1.12125843 C77.1935498,1.42013483 76.7407297,1.79325843 76.4004787,2.27901124 C76.7025707,2.57788764 76.8914577,2.91451685 77.0421858,3.25051685 C77.0466377,3.24611236 77.0517255,3.24296629 77.0561774,3.23919101 C77.3137506,2.84530337 77.4803782,2.48224719 77.5369808,2.18211236 C77.5586042,2.40296629 77.5013657,2.68233708 77.376713,2.99820225 C77.5535163,2.87802247 77.7443113,2.76539326 77.9490979,2.65276404 C77.9866209,2.57788764 77.9866209,2.50301124 77.9866209,2.42813483 C77.9866209,2.01725843 77.9109389,1.56925843 77.7226879,1.12125843 Z M73.2593573,3.55316854 C73.3795582,3.8734382 73.6492151,4.24907865 74.0339849,4.6385618 C74.2750226,4.7738427 74.5001607,4.93492135 74.7024033,5.11865169 C74.7405623,4.96889888 74.8156084,4.85689888 74.8912904,4.74489888 C74.9669724,4.59577528 75.0426544,4.44602247 75.1552234,4.33339326 C74.6648803,3.58651685 73.9093322,2.98939326 72.9655331,2.76476404 C72.92801,2.91451685 72.92801,3.06364045 72.92801,3.25051685 C72.92801,3.58651685 72.9655331,3.92314607 73.0787381,4.25914607 C73.2663531,4.30570787 73.4501523,4.36674157 73.6282276,4.44035955 C73.4081774,4.1068764 73.2784368,3.80170787 73.2593573,3.55316854 Z M74.2508552,2.18211236 C74.3080937,2.48413483 74.4772653,2.85096629 74.7373824,3.248 C74.7386544,3.24862921 74.7392904,3.24988764 74.7405623,3.25051685 C74.8912904,2.91451685 75.0801774,2.57788764 75.3822695,2.27901124 C75.0426544,1.79325843 74.5891983,1.42013483 74.0606962,1.12125843 C73.8718092,1.56925843 73.7961272,2.01725843 73.7961272,2.42876404 C73.7961272,2.50301124 73.7961272,2.57788764 73.8342862,2.65276404 C74.0416167,2.76665169 74.2343197,2.88053933 74.4136669,3.00323596 C74.2877423,2.68485393 74.2298678,2.40422472 74.2508552,2.18211236 Z" id="Fill-6"></path>
                    <path d="M81.6600603,4.63101124 C81.6645121,4.48692135 81.7999766,4.37303371 81.9309891,4.3774382 C90.2674577,4.61024719 98.655441,5.33824719 106.858989,6.53878652 C107.003993,6.56017978 107.103207,6.69231461 107.081583,6.83451685 C107.061868,6.96476404 106.949935,7.05788764 106.82083,7.05788764 C106.80811,7.05788764 106.794755,7.05662921 106.782671,7.05474157 C98.5994745,5.85608989 90.2331146,5.13123596 81.9150895,4.89905618 C81.7700854,4.89465169 81.6556084,4.77447191 81.6600603,4.63101124 Z" id="Path" stroke="#FFFFFF" stroke-width="0.5"></path>
                    <path d="M44.8881439,6.54444944 C53.1069556,5.34013483 61.5070226,4.6108764 69.8568469,4.3774382 C69.9846795,4.37303371 70.1226879,4.48692135 70.1271397,4.63101124 C70.1315916,4.77447191 70.0171146,4.89465169 69.8714745,4.89905618 C61.5426377,5.13123596 53.1629222,5.85860674 44.9650979,7.06040449 C44.7978343,7.06355056 44.6852653,6.97042697 44.6661858,6.84080899 C44.6445623,6.69860674 44.7437757,6.5658427 44.8881439,6.54444944 Z" id="Path" stroke="#FFFFFF" stroke-width="0.5"></path>
                </g>
            </g>
        </g>
    </g>
</svg>