<?xml version="1.0" encoding="UTF-8"?>
<svg width="32px" height="32px" viewBox="0 0 32 32" version="1.1" xmlns="http://www.w3.org/2000/svg" xmlns:xlink="http://www.w3.org/1999/xlink">
    <!-- Generator: sketchtool 51.2 (57519) - http://www.bohemiancoding.com/sketch -->
    <title>70D4E252-4BB9-4C00-9E23-575BF748F4EE</title>
    <desc>Created with sketchtool.</desc>
    <defs></defs>
    <g id="Page-1" stroke="none" stroke-width="1" fill="none" fill-rule="evenodd">
        <g id="language" transform="translate(-87.000000, -281.000000)" fill-rule="nonzero">
            <g id="Group-8" transform="translate(73.000000, 99.000000)">
                <g id="Group-5" transform="translate(14.000000, 182.000000)">
                    <g id="flaga_uk">
                        <circle id="Oval" fill="#F0F0F0" cx="16" cy="16" r="16"></circle>
                        <g id="Group" transform="translate(0.500000, 0.500000)" fill="#0052B4">
                            <path d="M2.8075,5.758875 C1.5506875,7.3940625 0.603,9.27875 0.0511875,11.3261875 L8.3748125,11.3261875 L2.8075,5.758875 Z" id="Shape"></path>
                            <path d="M30.9488125,11.3261875 C30.397,9.2788125 29.44925,7.394125 28.1925,5.7589375 L22.6253125,11.3261875 L30.9488125,11.3261875 Z" id="Shape"></path>
                            <path d="M0.0511875,19.674 C0.6030625,21.721375 1.55075,23.6060625 2.8075,25.2411875 L8.374625,19.674 L0.0511875,19.674 Z" id="Shape"></path>
                            <path d="M25.241125,2.8075625 C23.6059375,1.55075 21.7213125,0.6030625 19.673875,0.0511875 L19.673875,8.37475 L25.241125,2.8075625 Z" id="Shape"></path>
                            <path d="M5.758875,28.1924375 C7.3940625,29.44925 9.27875,30.3969375 11.326125,30.9488125 L11.326125,22.6253125 L5.758875,28.1924375 Z" id="Shape"></path>
                            <path d="M11.3260625,0.0511875 C9.2786875,0.6030625 7.394,1.55075 5.758875,2.8075 L11.3260625,8.3746875 L11.3260625,0.0511875 Z" id="Shape"></path>
                            <path d="M19.6739375,30.9488125 C21.7213125,30.3969375 23.606,29.44925 25.241125,28.1925 L19.6739375,22.6253125 L19.6739375,30.9488125 Z" id="Shape"></path>
                            <path d="M22.6253125,19.674 L28.1925,25.24125 C29.44925,23.606125 30.397,21.721375 30.9488125,19.674 L22.6253125,19.674 Z" id="Shape"></path>
                        </g>
                        <g id="Group" fill="#D80027">
                            <path d="M31.8645625,13.9130625 L18.0870625,13.9130625 L18.087,13.9130625 L18.087,0.1354375 C17.4038125,0.0465 16.7073125,0 16,0 C15.2925625,0 14.5961875,0.0465 13.9130625,0.1354375 L13.9130625,13.9129375 L13.9130625,13.913 L0.1354375,13.913 C0.0465,14.5961875 0,15.2926875 0,16 C0,16.7074375 0.0465,17.4038125 0.1354375,18.0869375 L13.9129375,18.0869375 L13.913,18.0869375 L13.913,31.8645625 C14.5961875,31.9535 15.2925625,32 16,32 C16.7073125,32 17.4038125,31.9535625 18.0869375,31.8645625 L18.0869375,18.0870625 L18.0869375,18.087 L31.8645625,18.087 C31.9535,17.4038125 32,16.7074375 32,16 C32,15.2926875 31.9535,14.5961875 31.8645625,13.9130625 Z" id="Shape"></path>
                            <path d="M20.1739375,20.1739375 L27.3136875,27.31375 C27.6420625,26.9855 27.9553125,26.6423125 28.2541875,26.2865625 L22.1415625,20.1739375 L20.1739375,20.1739375 Z" id="Shape"></path>
                            <path d="M11.8260625,20.174 L11.8259375,20.174 L4.68625,27.3136875 C5.0145,27.6420625 5.3576875,27.9553125 5.7134375,28.2541875 L11.8260625,22.1414375 L11.8260625,20.174 Z" id="Shape"></path>
                            <path d="M11.8260625,11.8261875 L11.8260625,11.8260625 L4.6863125,4.68625 C4.3579375,5.0145 4.0446875,5.3576875 3.7458125,5.7134375 L9.8585,11.826125 L11.8260625,11.8261875 Z" id="Shape"></path>
                            <path d="M20.1739375,11.8261875 L27.31375,4.6863125 C26.9855,4.3579375 26.6423125,4.0446875 26.2865625,3.745875 L20.1739375,9.8585625 L20.1739375,11.8261875 Z" id="Shape"></path>
                        </g>
                    </g>
                </g>
            </g>
        </g>
    </g>
</svg>