<?xml version="1.0" encoding="utf-8"?>
<!-- Generator: Adobe Illustrator 16.0.0, SVG Export Plug-In . SVG Version: 6.00 Build 0)  -->
<!DOCTYPE svg PUBLIC "-//W3C//DTD SVG 1.1//EN" "http://www.w3.org/Graphics/SVG/1.1/DTD/svg11.dtd">
<svg version="1.1" id="Layer_1" xmlns="http://www.w3.org/2000/svg" xmlns:xlink="http://www.w3.org/1999/xlink" x="0px" y="0px"
	 width="250px" height="60.337px" viewBox="0 0 250 60.337" enable-background="new 0 0 250 60.337" xml:space="preserve">
<g>
	<path fill="#FFFFFF" d="M23.071,23.721c0.035,0.072,0.063,0.081,0.081,0.027c0.018-0.054,0.063-0.044,0.135,0.027
		c0,0.073-0.009,0.118-0.027,0.136c-0.019,0.019-0.027,0.01-0.027-0.027c-0.036,0-0.054-0.036-0.054-0.109
		c-0.073,0-0.099,0.037-0.081,0.109c0.017,0.072-0.01,0.144-0.082,0.216c0,0.073-0.037,0.1-0.108,0.082
		c-0.073-0.018-0.108,0.01-0.108,0.081c0.108,0.073,0.126,0.181,0.054,0.325c-0.073,0.146-0.073,0.252,0,0.325
		c-0.037,0-0.054,0.054-0.054,0.163c0.036,0.037,0.054,0.082,0.054,0.136s-0.037,0.081-0.109,0.081
		c0.036,0.037,0.072,0.055,0.109,0.055c-0.037,0.108-0.027,0.171,0.027,0.189c0.055,0.018,0.008,0.027-0.136,0.027
		c0,0.037,0.018,0.054,0.055,0.054c0.036,0,0.054,0.019,0.054,0.053c-0.073,0.181-0.109,0.371-0.109,0.569
		c0,0.199-0.036,0.406-0.108,0.623c0,0.253-0.026,0.686-0.081,1.299c-0.054,0.615-0.118,0.994-0.189,1.138
		c0,0.072,0.035,0.145,0.108,0.216h-0.108c0,0.073,0.008,0.101,0.027,0.082c0.018-0.018,0.044-0.009,0.081,0.027h-0.162l0.054,0.162
		l-0.054,0.108c0,0.037,0.008,0.037,0.027,0c0.018-0.035,0.045-0.035,0.082,0c0,0.037-0.054,0.054-0.163,0.054
		c0,0.037,0.018,0.046,0.054,0.027c0.036-0.018,0.072-0.008,0.108,0.027c0,0.073-0.019,0.091-0.054,0.054
		c-0.036-0.036-0.073-0.018-0.108,0.055c0.072,0.072,0.09,0.144,0.054,0.216c-0.037,0.073-0.037,0.146,0,0.217
		c0.036,0,0.036-0.018,0-0.054c-0.037-0.036-0.019-0.036,0.054,0c0.035,0,0.044,0.019,0.027,0.054
		c-0.019,0.037-0.063,0.054-0.135,0.054c0.072,0.253,0.036,0.47-0.108,0.65c-0.036,0.289-0.09,0.569-0.162,0.839
		c-0.073,0.271-0.145,0.515-0.217,0.731v0.325c0.036,0.145,0.036,0.181,0,0.108c-0.036-0.072-0.054-0.072-0.054,0
		c0.036,0.073,0.018,0.181-0.055,0.325c-0.073,0.145-0.144,0.235-0.216,0.271c0.108,0.037,0.108,0.054,0,0.054
		c0.072,0.253,0.072,0.461,0,0.623c-0.073,0.163-0.091,0.334-0.054,0.515c-0.037,0.036-0.055,0.036-0.055,0
		c0,0.073-0.018,0.127-0.054,0.162c-0.036,0.037-0.018,0.091,0.054,0.164c0.036,0.036,0,0.054-0.108,0.054
		c0,0.036,0.036,0.054,0.108,0.054c-0.145,0.073-0.145,0.181,0,0.325c-0.036,0.037-0.054,0.109-0.054,0.217
		c-0.144,0.037-0.181,0.091-0.108,0.163c0.072,0.072,0.035,0.126-0.108,0.162c-0.037,0.072-0.019,0.1,0.054,0.081
		c0.072-0.017,0.108-0.008,0.108,0.028h-0.217c-0.036,0.073-0.036,0.099,0,0.081c0.036-0.017,0.055,0.01,0.055,0.082
		c-0.108,0.398-0.208,0.813-0.298,1.246c-0.091,0.433-0.171,0.848-0.244,1.245c0,0.073,0.017,0.1,0.054,0.082
		c0.035-0.018,0.035,0.009,0,0.081c-0.037,0-0.045,0.027-0.027,0.081c0.018,0.054-0.01,0.082-0.081,0.082
		c0.071,0.072,0.099,0.153,0.081,0.243c-0.018,0.091-0.027,0.19-0.027,0.298l-0.054,0.054c0,0.073,0.008,0.127,0.027,0.163
		c0.018,0.036,0.027,0.073,0.027,0.109c0,0.035-0.019,0.08-0.054,0.135c-0.036,0.054-0.019,0.1,0.054,0.135
		c-0.109,0.073-0.154,0.163-0.135,0.271c0.018,0.108-0.027,0.217-0.136,0.325c0.036,0,0.072,0.027,0.108,0.081
		c0.036,0.054,0.018,0.081-0.055,0.081c0.108,0.145,0.108,0.298,0,0.46s-0.127,0.316-0.054,0.46
		c0.036,0.037,0.018,0.055-0.055,0.055c0,0.181,0.009,0.335,0.028,0.461c0.017,0.127-0.009,0.263-0.082,0.404
		c0.035,0.037,0.045,0.118,0.027,0.244c-0.018,0.127-0.1,0.209-0.244,0.244c0.036,0.073,0.055,0.127,0.055,0.163
		s0.035,0.054,0.108,0.054c-0.108,0.036-0.154,0.101-0.136,0.189c0.018,0.091,0.081,0.154,0.189,0.19h-0.217
		c0,0.036,0.018,0.054,0.055,0.054h0.054c0,0.072-0.019,0.091-0.054,0.055c-0.037-0.036-0.073-0.019-0.108,0.054
		c0.072,0.073,0.135,0.073,0.189,0c0.054-0.072,0.1-0.072,0.135,0c-0.036,0.036-0.072,0.055-0.107,0.055
		c-0.037,0-0.091,0.019-0.163,0.054c0,0.036,0.018,0.063,0.055,0.082c0.035,0.018,0.054,0.063,0.054,0.136
		c-0.108,0-0.189,0.062-0.244,0.188c-0.054,0.127-0.009,0.208,0.135,0.244c0.072,0.071,0.081,0.099,0.027,0.081
		c-0.054-0.02-0.1-0.026-0.135-0.026c0.036,0.035,0.063,0.044,0.081,0.026c0.019-0.02,0.063-0.01,0.135,0.027
		c0,0.071-0.027,0.108-0.081,0.108c-0.054,0-0.081,0.018-0.081,0.055h0.054h0.108c-0.073,0.071-0.09,0.099-0.054,0.081
		c0.035-0.02,0.054,0.008,0.054,0.08c-0.073,0-0.108-0.018-0.108-0.053c0-0.037-0.018-0.02-0.054,0.053v0.056l0.054-0.056
		c0.108,0.109,0.09,0.163-0.054,0.163c0.072,0.182,0.081,0.451,0.027,0.812c-0.054,0.361-0.1,0.687-0.135,0.976
		c-0.037,0.289-0.037,0.488,0,0.596c0.036,0.108,0.162,0,0.379-0.324c0.072,0.072,0.108,0.136,0.108,0.189
		c0,0.053,0.036,0.116,0.108,0.188h-0.108c0.036,0.072,0.063,0.126,0.081,0.163c0.018,0.034,0.063,0.09,0.136,0.161
		c-0.181,0-0.307,0.036-0.379,0.11c-0.073,0.071-0.055,0.143,0.054,0.217c-0.181,0-0.271,0.035-0.271,0.107
		c-0.073-0.072-0.145-0.107-0.217-0.107c-0.073,0-0.145-0.02-0.217-0.056c-0.073,0.036-0.073,0.056,0,0.056c0.072,0,0.126,0,0.163,0
		c-0.073,0.107-0.154,0.152-0.244,0.136c-0.091-0.02-0.189-0.01-0.297,0.025c0,0.036,0.018,0.072,0.054,0.109
		c-0.073,0-0.145,0.009-0.217,0.026s-0.09,0.063-0.054,0.136l-2.058,0.38c-0.072,0-0.144-0.037-0.216-0.109s-0.145-0.09-0.217-0.054
		c-0.289-0.29-0.487-0.724-0.595-1.301c-0.108-0.072-0.181-0.127-0.217-0.161c0.036-0.036,0.054-0.081,0.054-0.135
		c0-0.056,0.018-0.118,0.055-0.191c-0.073-0.506-0.127-1.012-0.163-1.515c-0.036-0.507-0.019-1.03,0.054-1.571
		c0.181-1.985,0.388-4.008,0.623-6.066c0.234-2.058,0.442-4.115,0.623-6.174c0.072-1.733,0.144-3.439,0.217-5.117
		c0.072-1.679,0.144-3.42,0.217-5.227c-1.191,0.145-2.383,0.298-3.575,0.46c-1.191,0.163-2.365,0.334-3.52,0.515
		c-0.361,0.831-0.642,1.76-0.839,2.789c-0.199,1.029-0.443,1.978-0.732,2.844c-0.072,0.252-0.17,0.496-0.297,0.731
		c-0.127,0.235-0.189,0.442-0.189,0.623c-0.037,0.109,0.018,0.271,0.163,0.488c0,0.181-0.01,0.361-0.027,0.542
		c-0.019,0.181-0.027,0.361-0.027,0.541c0.035,0.253-0.046,0.434-0.244,0.542c-0.199,0.107-0.389,0.234-0.569,0.378
		c-0.108,0.831-0.416,1.462-0.921,1.896c-0.108,0.145-0.325,0.298-0.649,0.46c-0.325,0.162-0.65,0.208-0.975,0.136
		c-0.289-0.072-0.551-0.171-0.785-0.298c-0.235-0.126-0.442-0.279-0.623-0.46c-0.506-0.505-0.767-1.064-0.785-1.678
		c-0.019-0.614-0.028-1.354-0.028-2.221c0.037-1.046,0.109-2.093,0.217-3.141c0.108-1.046,0.18-2.004,0.216-2.87
		c-0.469,0-0.866,0.063-1.191,0.189c-0.326,0.127-0.759,0.19-1.3,0.19c-0.072-0.18-0.17-0.388-0.297-0.623
		C0.118,23.838,0.036,23.612,0,23.396c0.036-0.181,0.091-0.306,0.162-0.379c0.073-0.072,0.127-0.198,0.164-0.379
		c0.505-0.072,0.992-0.126,1.461-0.163c0.469-0.036,0.902-0.144,1.3-0.325c0-0.396,0-0.813,0-1.246c0-0.433,0.018-0.867,0.054-1.3
		c0-0.793,0.063-1.615,0.189-2.464c0.126-0.848,0.262-1.706,0.406-2.573c0.144-0.866,0.289-1.715,0.434-2.545
		c0.144-0.83,0.217-1.66,0.217-2.491c0-0.433,0-0.857,0-1.273c0-0.415,0.063-0.793,0.189-1.137c0.126-0.342,0.343-0.604,0.65-0.786
		c0.306-0.18,0.749-0.234,1.327-0.162c0.614,0.073,1.119,0.353,1.516,0.839c0.397,0.488,0.595,1.093,0.595,1.814
		c0,0.145-0.009,0.29-0.027,0.434C8.619,9.405,8.611,9.532,8.611,9.64c-0.289,1.408-0.515,2.897-0.677,4.468
		c-0.163,1.57-0.297,3.132-0.406,4.684c-0.073,0.398-0.082,0.813-0.027,1.246c0.054,0.434,0.116,0.867,0.189,1.3
		c0.144,0.037,0.297,0.027,0.459-0.026c0.164-0.055,0.334-0.1,0.515-0.136c0.469-1.372,0.902-2.771,1.301-4.197
		c0.396-1.426,0.83-2.824,1.299-4.197c0.65-1.733,1.328-3.42,2.031-5.063c0.705-1.643,1.76-3.024,3.168-4.143
		c0.036-0.289,0.163-0.433,0.379-0.433c0.217,0,0.469,0.018,0.758,0.054c0.325,0.073,0.65,0.118,0.975,0.135
		c0.325,0.019,0.631,0.082,0.92,0.189c0.181,0.037,0.415,0.082,0.704,0.136c0.289,0.054,0.586,0.118,0.894,0.189
		c0.306,0.073,0.586,0.154,0.839,0.244c0.252,0.09,0.434,0.171,0.542,0.243c0.614,0.397,1.064,0.931,1.354,1.598
		c0.288,0.668,0.432,1.435,0.432,2.302c0,0.758-0.072,1.598-0.216,2.519c-0.145,0.921-0.253,1.851-0.325,2.788
		c0,0.542,0,1.075,0,1.598c0,0.524-0.019,1.074-0.054,1.651c0.036,0.507,0.027,1.011-0.026,1.517
		c-0.055,0.506-0.082,0.993-0.082,1.462c1.95-0.035,3.764-0.009,5.443,0.082c1.679,0.09,3.203,0.424,4.576,1.001
		c0,0.109-0.045,0.136-0.135,0.082c-0.09-0.054-0.172-0.082-0.244-0.082c-0.108,0-0.162,0.091-0.162,0.271
		c-0.108,0-0.262-0.027-0.46-0.081s-0.317-0.008-0.352,0.136c-0.252,0-0.379,0.054-0.379,0.162
		c-0.397-0.071-0.804-0.126-1.219-0.162c-0.415-0.035-0.821-0.055-1.218-0.055c0,0.037,0.018,0.055,0.054,0.055
		c-0.108,0-0.244-0.009-0.406-0.027c-0.162-0.018-0.316-0.008-0.46,0.027c0.217,0.108,0.488,0.154,0.813,0.136
		s0.577,0.063,0.758,0.244c-0.073,0.072-0.145,0.09-0.217,0.054c-0.072-0.035-0.144-0.054-0.216-0.054
		c-1.047-0.036-2.057-0.063-3.033-0.082c-0.975-0.018-2.04,0.01-3.195,0.082c0,0.107-0.037,0.271-0.108,0.487
		c-0.145,0-0.235,0.046-0.271,0.136c-0.037,0.09-0.037,0.154,0,0.19c0,0.035-0.019,0.054-0.054,0.054c-0.036,0-0.036,0.018,0,0.054
		c-0.073,0.036-0.073,0.055,0,0.055c0.072,0,0.09,0.036,0.054,0.108c0.036,0.181,0.027,0.325-0.027,0.434
		c-0.055,0.108-0.082,0.216-0.082,0.325c0,0.036,0.018,0.063,0.054,0.081c0.035,0.019,0.035,0.063,0,0.136V23.721z M17.871,6.228
		c-0.324,0.254-0.568,0.515-0.73,0.786c-0.163,0.271-0.371,0.551-0.623,0.839c-0.181,0.291-0.352,0.561-0.515,0.813
		c-0.162,0.254-0.352,0.524-0.568,0.813c-0.362,0.615-0.668,1.238-0.921,1.869c-0.253,0.632-0.523,1.255-0.812,1.869
		c-0.47,1.264-0.984,2.527-1.543,3.791c-0.56,1.265-1.021,2.564-1.381,3.899c1.046-0.108,2.112-0.225,3.195-0.352
		c1.083-0.126,2.147-0.261,3.195-0.406c0.072-1.769,0.136-3.547,0.19-5.334s0.17-3.511,0.352-5.172
		c0.035-0.613,0.082-1.191,0.136-1.733C17.898,7.365,17.907,6.806,17.871,6.228z M19.659,44.246c0.108,0,0.163-0.036,0.163-0.109
		l-0.054-0.054c0,0.037-0.019,0.063-0.054,0.081C19.677,44.184,19.659,44.21,19.659,44.246z"/>
	<path fill="#FFFFFF" d="M34.172,28.215c-0.145,0.181-0.226,0.47-0.244,0.866c-0.019,0.398-0.063,0.687-0.135,0.867
		c-0.073,0-0.09-0.018-0.054-0.054c0.036-0.035,0.018-0.018-0.055,0.054l0.217,0.163c0,0.036-0.019,0.054-0.055,0.054
		c0.036,0.036,0.055,0.09,0.055,0.162c-0.073,0-0.108-0.008-0.108-0.026c0-0.018-0.036-0.045-0.108-0.081
		c-0.036,0.036-0.027,0.054,0.027,0.054s0.045,0.019-0.027,0.054c0,0.073,0.036,0.073,0.108,0c0,0.146,0.035,0.217,0.108,0.217
		c0,0.037-0.037,0.054-0.108,0.054c0,0.253,0.054,0.416,0.163,0.488c0.108,0.433,0.035,0.777-0.216,1.029
		c-0.073,0.144-0.118,0.289-0.136,0.433c-0.019,0.144-0.063,0.271-0.135,0.379c0-0.181,0.017-0.353,0.054-0.515
		c0.035-0.162,0.072-0.315,0.108-0.461c-0.073,0-0.118,0.037-0.136,0.109c-0.019,0.073-0.027,0.127-0.027,0.162
		c-0.073,0.326-0.118,0.66-0.135,1.002c-0.02,0.343-0.063,0.676-0.136,1.001c0.072,0,0.09-0.027,0.054-0.081
		c-0.037-0.055-0.037-0.081,0-0.081c0.072,0.216,0.082,0.488,0.027,0.813c-0.054,0.324-0.081,0.631-0.081,0.92
		c0.035,0,0.054-0.018,0.054-0.054c-0.037,0.145-0.073,0.271-0.108,0.379c-0.037,0.108-0.054,0.235-0.054,0.379
		c0,0.036,0.018,0.054,0.054,0.054l0.054-0.054c0,0.073-0.019,0.153-0.054,0.244c-0.037,0.09-0.054,0.208-0.054,0.352
		c0.108-0.107,0.163-0.251,0.163-0.433c0.072,0.037,0.108,0.019,0.108-0.054c0.072,0.434,0.036,0.94-0.108,1.516
		c-0.037-0.035-0.045-0.026-0.027,0.027c0.017,0.055,0.008,0.046-0.027-0.027c-0.108,0.325-0.163,0.632-0.163,0.921l0.054-0.054
		c-0.037,0.253-0.063,0.506-0.082,0.758c-0.019,0.253-0.027,0.524-0.027,0.812c0.072-0.18,0.117-0.36,0.135-0.541
		s0.099-0.38,0.244-0.595c0.109,0.072,0.153,0.208,0.136,0.406c-0.019,0.199-0.063,0.334-0.136,0.406
		c-0.072,0.145-0.145,0.307-0.216,0.487c-0.073,0.181-0.108,0.361-0.108,0.541c-0.145,0.614-0.189,1.237-0.135,1.869
		c0.054,0.631,0.099,1.236,0.135,1.813c-0.072-0.072-0.117-0.17-0.135-0.298c-0.019-0.126-0.063-0.261-0.136-0.405
		c-0.072,0.181-0.072,0.344,0,0.488c0.072,0.143,0.144,0.306,0.217,0.486c-0.18-0.073-0.271-0.126-0.271-0.163
		c-0.073,0.072-0.09,0.189-0.054,0.353c0.036,0.162,0.036,0.298,0,0.406c-0.145-0.145-0.181-0.298-0.108-0.461
		c0.072-0.162,0.018-0.315-0.163-0.461c0.144-0.359,0.235-0.703,0.271-1.028c0-0.288-0.027-0.522-0.082-0.705
		c-0.054-0.179-0.117-0.378-0.189-0.595c0-0.071-0.036-0.108-0.108-0.108c0-0.071,0.018-0.09,0.054-0.053
		c0.036,0.035,0.054,0.018,0.054-0.056c-0.036-0.396-0.019-0.829,0.054-1.299c0.072-0.469,0.108-0.902,0.108-1.3
		c0.036-0.072,0.045-0.135,0.027-0.189s-0.027-0.116-0.027-0.189c0-0.18,0.009-0.37,0.027-0.569
		c0.018-0.198,0.045-0.424,0.082-0.677c0-0.216,0.009-0.45,0.027-0.704c0.017-0.252,0.027-0.469,0.027-0.65
		c-0.073,0-0.082-0.072-0.027-0.217c0.054-0.144,0.045-0.288-0.027-0.433h-0.054c-0.073,0.181-0.073,0.289,0,0.325
		c-0.108,0-0.154-0.018-0.136-0.054c0.018-0.036-0.009-0.054-0.081-0.054c-0.036,0.072-0.046,0.135-0.027,0.189
		c0.018,0.055,0.009,0.119-0.027,0.19c-0.073,0-0.118-0.018-0.136-0.054c-0.018-0.035-0.063-0.089-0.135-0.162
		c0.216-0.181,0.289-0.325,0.216-0.433c0-0.035,0.027-0.055,0.081-0.055c0.055,0,0.045-0.036-0.027-0.108
		c0.036-0.036,0.126-0.054,0.271-0.054c-0.145-0.181-0.172-0.379-0.081-0.596c0.089-0.217,0.116-0.415,0.081-0.596
		c-0.145-0.072-0.244-0.072-0.298,0c-0.054,0.073-0.118,0.108-0.189,0.108c0.071-1.984,0.088-3.385,0.053-4.197
		c-0.036-0.813-0.09-1.182-0.162-1.11c-0.073,0.073-0.136,0.551-0.19,1.436s-0.063,2.049-0.027,3.493
		c0,0.325-0.09,0.641-0.271,0.948c-0.181,0.307-0.361,0.659-0.542,1.056v0.433h-0.054v0.108h0.054
		c-0.181,0.145-0.316,0.524-0.406,1.137c-0.09,0.614-0.153,1.282-0.189,2.003c-0.036,0.724-0.046,1.391-0.027,2.004
		c0.017,0.614,0.063,0.984,0.135,1.109c0.071,0.127,0.171-0.088,0.298-0.649c0.125-0.559,0.261-1.633,0.406-3.221
		c-0.073,0.072-0.127,0.072-0.163,0c-0.037-0.072,0.018-0.09,0.163-0.055c-0.145-0.144-0.172-0.343-0.082-0.596
		c0.09-0.252,0.117-0.469,0.082-0.65c0.035-0.036,0.054-0.117,0.054-0.244c0-0.126,0.035-0.189,0.108-0.189
		c0,0.073-0.018,0.117-0.053,0.135c-0.037,0.019-0.02,0.045,0.053,0.082c-0.036,0-0.053,0.018-0.053,0.054v0.108
		c0.036,0,0.062-0.027,0.081-0.082c0.018-0.054,0.063-0.044,0.136,0.027c0.071,0.253,0.071,0.434,0,0.542
		c0.035,0.073,0.063,0.082,0.081,0.028c0.018-0.055,0.063-0.063,0.136-0.028c-0.073,0.073-0.118,0.118-0.136,0.136
		c-0.018,0.019-0.046,0.046-0.081,0.081c0.035,0.036,0.063,0.036,0.081,0c0.018-0.035,0.063-0.035,0.136,0
		c-0.073,0.108-0.09,0.199-0.055,0.271c0.036,0.073,0.018,0.127-0.054,0.163c0,0.073,0.018,0.091,0.054,0.054
		c0.036-0.036,0.055-0.018,0.055,0.055c0,0.073,0,0.073,0,0c0-0.072-0.037-0.072-0.108,0c0,0.073,0.018,0.1,0.054,0.081
		c0.036-0.018,0.055-0.008,0.055,0.027c-0.073,0.072-0.09,0.144-0.055,0.216c0.036,0.073,0,0.145-0.108,0.217
		c-0.038,0.615-0.102,1.328-0.194,2.139c-0.093,0.813-0.138,1.58-0.138,2.302h0.056c-0.037,0.072-0.046,0.136-0.027,0.189
		c0.018,0.055,0.027,0.118,0.027,0.19c0.074,0.036,0.11,0,0.11-0.108c0.074,0,0.112-0.027,0.112-0.082
		c0-0.054,0.036-0.045,0.109,0.027c-0.037-0.145-0.045-0.262-0.027-0.353c0.018-0.089,0.027-0.189,0.027-0.298
		c0,0.073,0.018,0.163,0.054,0.271c0.036,0.107,0.018,0.181-0.054,0.217c0.072,0.108,0.153,0.235,0.244,0.379
		c0.089,0.145,0.225,0.217,0.406,0.217c0,0.071,0.018,0.107,0.054,0.107c0,0.072-0.09,0.127-0.271,0.162
		c0,0.036,0.035,0.091,0.108,0.163l0.108,0.108H32.06c0,0.072,0.045,0.163,0.135,0.271c0.09,0.107,0.171,0.162,0.244,0.162
		c0,0.035,0.018,0.071,0.054,0.108c0.036,0.034,0.018,0.09-0.054,0.161h-0.054l-0.054,0.056c0.036,0,0.018,0.071-0.054,0.216h-0.27
		v0.162h-0.271c-0.146,0.145-0.146,0.271,0,0.379h-0.163c-0.111,0.253-0.24,0.398-0.388,0.434c-0.148,0.036-0.315,0.036-0.5,0
		c-0.111,0.036-0.111,0.108,0,0.217c-0.075-0.036-0.111-0.026-0.111,0.027c0,0.055-0.019,0.045-0.055-0.027
		c0,0.109-0.056,0.218-0.167,0.326c-0.185,0.107-0.333,0.242-0.443,0.404c-0.111,0.163-0.333,0.227-0.666,0.19l-0.434-0.595
		c0.036-0.182,0.063-0.362,0.082-0.543c0.017-0.181,0.062-0.361,0.134-0.541c0.072,0.035,0.109,0.035,0.109,0
		c0-0.036,0.017-0.055,0.054-0.055c0-0.181-0.01-0.388-0.027-0.622c-0.019-0.235-0.027-0.46-0.027-0.677
		c0-0.435-0.019-0.857-0.054-1.273c-0.037-0.414-0.055-0.84-0.055-1.271v-0.705c0-0.072-0.009-0.135-0.026-0.189
		c-0.02-0.055-0.028-0.117-0.028-0.189c0-0.253,0.008-0.487,0.028-0.704c0.018-0.217,0.026-0.451,0.026-0.704
		c0.072-1.191,0.144-2.418,0.217-3.683c0.072-1.263,0.126-2.473,0.163-3.628c0.054-0.252,0.095-0.478,0.122-0.677
		c0.027-0.199,0.041-0.406,0.041-0.623c0.035-0.722,0.071-1.426,0.108-2.111c0.035-0.686,0.053-1.373,0.053-2.059h-0.108
		c0-0.144-0.037-0.251-0.109-0.325c0.181-1.66,0.37-3.284,0.569-4.874c0.198-1.588,0.388-3.177,0.568-4.766
		c0.181-1.516,0.388-2.997,0.623-4.441c0.234-1.444,0.46-2.925,0.676-4.441c0-0.36,0.026-0.73,0.079-1.11
		c0.051-0.379,0.112-0.749,0.182-1.11c0.034-0.505,0.104-0.966,0.208-1.381c0.103-0.415,0.172-0.82,0.207-1.219
		c0.139-0.469,0.305-0.966,0.497-1.489c0.193-0.523,0.508-0.767,0.94-0.731c0.181,0.073,0.343,0.145,0.488,0.217
		c0.144,0.072,0.306,0.144,0.487,0.216c0.072,0.036,0.19,0.072,0.352,0.108s0.279,0.108,0.352,0.216
		c0.289,0.29,0.461,0.723,0.515,1.3c0.054,0.578,0.045,1.174-0.027,1.788c0,0.361-0.036,0.731-0.108,1.11
		c-0.073,0.379-0.144,0.768-0.216,1.164c-0.217,0.326-0.398,0.921-0.541,1.788c-0.146,0.866-0.254,1.733-0.326,2.599
		c-0.073,0.867-0.1,1.625-0.081,2.275c0.018,0.649,0.081,0.92,0.189,0.813c0,0.108,0.008,0.208,0.027,0.298
		c0.018,0.091,0.027,0.189,0.027,0.297c0,0.037,0.018,0.054,0.055,0.054h0.109c0,0.326-0.046,0.624-0.136,0.894
		c-0.091,0.271-0.046,0.515,0.136,0.731c0,0.29-0.01,0.588-0.028,0.894c-0.019,0.308-0.1,0.552-0.244,0.731
		c0.036,0.108,0.036,0.217,0,0.326c-0.036,0.108-0.073,0.199-0.108,0.271h0.054l-0.054,0.054v0.054H34.93
		c-0.145,0.216-0.244,0.524-0.298,0.92c-0.054,0.398-0.09,0.813-0.108,1.247c-0.018,0.433-0.036,0.848-0.054,1.246
		c-0.018,0.397-0.045,0.704-0.081,0.92c0,0.108,0.09,0.163,0.271,0.163L34.172,28.215z M29.948,36.177
		c0.108-0.072,0.198-0.171,0.271-0.298c0.072-0.126,0.072-0.244,0-0.352c-0.037,0.145-0.091,0.263-0.163,0.352
		C29.983,35.97,29.948,36.068,29.948,36.177z M31.302,38.125l-0.055-0.108L31.302,38.125z M31.355,38.125
		c0-0.035,0.018-0.072,0.054-0.108c0.036-0.036,0.018-0.054-0.054-0.054c0,0.108-0.018,0.162-0.053,0.162H31.355z M31.355,45.49
		c0.036,0,0.054,0.036,0.054,0.108c0,0.073,0.036,0.109,0.109,0.109v-0.271C31.446,45.438,31.391,45.455,31.355,45.49z
		 M31.519,38.722c-0.037,0.036-0.055,0.09-0.055,0.163l0.055-0.055V38.722z M31.573,38.938h-0.054
		C31.554,38.975,31.573,38.975,31.573,38.938z M32.276,35.96v-0.054v-0.054V35.96z M32.764,35.743
		c-0.108,0.109-0.162,0.235-0.162,0.379c0.144-0.072,0.199-0.126,0.162-0.162C32.728,35.924,32.728,35.852,32.764,35.743z
		 M32.98,41.321c0-0.072,0.008-0.126,0.027-0.162c0.018-0.036,0.008-0.09-0.027-0.163c0,0.037-0.009,0.091-0.027,0.163
		C32.935,41.231,32.944,41.286,32.98,41.321z M32.98,40.996c0.035-0.072,0.063-0.152,0.081-0.244
		c0.018-0.089-0.009-0.135-0.081-0.135V40.996z M33.089,38.451c0-0.108,0.009-0.252,0.027-0.433c0.018-0.18,0.063-0.325,0.136-0.433
		c-0.073-0.108-0.127-0.181-0.163-0.217c0,0.182-0.01,0.362-0.027,0.542C33.043,38.09,33.052,38.271,33.089,38.451z M33.197,38.343
		c0.108,0.181,0.072,0.361-0.108,0.542c0.035-0.072,0.045-0.163,0.027-0.271C33.098,38.505,33.124,38.416,33.197,38.343z
		 M33.197,39.046c-0.073,0-0.1-0.018-0.082-0.054c0.018-0.035,0.008-0.072-0.027-0.108C33.161,38.848,33.197,38.903,33.197,39.046z
		 M33.576,31.898c0.036,0,0.055-0.018,0.055-0.054s-0.019-0.055-0.055-0.055l-0.054,0.055L33.576,31.898z M34.605,20.092
		c0.035,0,0.072-0.082,0.108-0.244c0.036-0.163,0.036-0.262,0-0.298c0,0.108-0.01,0.199-0.027,0.271
		C34.667,19.894,34.64,19.984,34.605,20.092z"/>
	<path fill="#FFFFFF" d="M62.874,21.446c-0.037,0.072-0.189,0.289-0.461,0.65c-0.27,0.361-0.578,0.75-0.921,1.164
		c-0.343,0.416-0.668,0.813-0.974,1.192c-0.308,0.379-0.515,0.642-0.623,0.785c-0.144,0.109-0.271,0.226-0.379,0.352
		c-0.108,0.126-0.217,0.244-0.325,0.352c-0.108,0.145-0.225,0.263-0.352,0.352c-0.127,0.091-0.226,0.208-0.298,0.352
		c-0.29,0.29-0.524,0.551-0.704,0.786c-0.181,0.235-0.416,0.442-0.704,0.623c-0.037,0.072-0.082,0.117-0.135,0.135
		c-0.055,0.019-0.1,0.045-0.136,0.081c-0.217,0.181-0.424,0.389-0.623,0.624c-0.199,0.235-0.389,0.442-0.568,0.622
		c-0.615,0.542-1.201,1.12-1.76,1.733c-0.561,0.615-1.147,1.21-1.76,1.787c-0.832,0.723-1.743,1.499-2.735,2.33
		c-0.993,0.831-2.067,1.39-3.222,1.678l0.812,1.625c0.036,0.108,0.099,0.199,0.19,0.271c0.089,0.073,0.153,0.163,0.19,0.271
		c0.108,0.252,0.189,0.442,0.244,0.568c0.054,0.127,0.107,0.253,0.162,0.379c0.054,0.127,0.099,0.271,0.135,0.433
		c0.036,0.162,0.089,0.389,0.163,0.677c0.18,0.614,0.289,1.219,0.325,1.815c0.036,0.595,0.071,1.218,0.108,1.867
		c0.072,0.614,0.082,1.264,0.027,1.949c-0.054,0.686-0.135,1.39-0.243,2.112c-0.073,0.182-0.109,0.289-0.109,0.325
		s-0.018,0.145-0.055,0.326c0,0.18-0.009,0.287-0.026,0.323c-0.019,0.035-0.037,0.055-0.054,0.055c-0.019,0-0.037,0.018-0.055,0.055
		c-0.019,0.035-0.045,0.143-0.081,0.324c-0.145,0.759-0.297,1.39-0.46,1.896c-0.162,0.506-0.406,1.083-0.731,1.733
		c-0.289,0.721-0.615,1.362-0.975,1.922c-0.361,0.56-0.668,1.146-0.921,1.761c-0.361,0.359-0.615,0.685-0.758,0.975l-0.866,0.812
		c-0.325,0.181-0.713,0.344-1.165,0.488c-0.452,0.144-0.876,0.252-1.272,0.325c-0.578,0.035-1.029-0.073-1.354-0.325
		c-0.325-0.253-0.615-0.523-0.866-0.812c-0.182-0.181-0.362-0.407-0.542-0.677c-0.181-0.271-0.325-0.57-0.433-0.895
		c-0.072-0.217-0.144-0.434-0.216-0.649c-0.072-0.217-0.108-0.453-0.108-0.705c0-0.072,0.009-0.153,0.026-0.242
		c0.019-0.091,0.027-0.173,0.027-0.244c0-0.543-0.063-1.038-0.189-1.49c-0.125-0.451-0.189-0.966-0.189-1.542
		c0.108-1.662,0.279-3.313,0.514-4.957c0.235-1.642,0.496-3.348,0.786-5.117c0.035-0.541,0.072-1.083,0.108-1.624
		c0.035-0.542,0.09-1.102,0.162-1.679c0.217-1.516,0.388-3.041,0.515-4.577c0.126-1.534,0.226-3.059,0.298-4.575
		c0-0.181,0.009-0.334,0.027-0.461c0.018-0.125,0.028-0.224,0.028-0.297c-0.036-0.108-0.108-0.244-0.217-0.406
		c-0.108-0.162-0.199-0.297-0.271-0.406c-0.181-0.18-0.352-0.353-0.515-0.515c-0.163-0.162-0.406-0.261-0.731-0.297
		c-0.108-0.144-0.126-0.306-0.054-0.488c0.072-0.18,0.163-0.288,0.271-0.325c0.216,0,0.396,0.063,0.542,0.189
		c0.144,0.126,0.288,0.244,0.433,0.352c0.18,0.145,0.315,0.271,0.406,0.379c0.09,0.108,0.171,0.199,0.244,0.271
		c0.252-2.274,0.65-4.441,1.191-6.499s1.046-4.116,1.516-6.174c0.252-1.083,0.497-2.139,0.731-3.168
		c0.234-1.029,0.496-2.049,0.785-3.06c0.252-0.975,0.56-1.913,0.92-2.816c0.361-0.902,0.813-1.697,1.354-2.383
		c0.216-0.072,0.514-0.09,0.893-0.055c0.379,0.037,0.731,0.091,1.056,0.163c0.216,0.073,0.406,0.154,0.568,0.244
		c0.163,0.09,0.244,0.243,0.244,0.46c0.506,0.686,0.83,1.543,0.975,2.573c0.144,1.029,0.18,2.084,0.109,3.168
		c-0.037,0.902-0.172,1.833-0.407,2.789c-0.235,0.957-0.497,1.905-0.786,2.844c-0.216,0.939-0.433,1.869-0.649,2.789
		c-0.217,0.92-0.452,1.814-0.704,2.681c-0.361,0.975-0.722,1.914-1.083,2.816c-0.361,0.903-0.578,1.842-0.65,2.816
		c-0.073,0.29-0.163,0.822-0.271,1.598c-0.108,0.776-0.226,1.597-0.352,2.463c-0.127,0.867-0.235,1.688-0.326,2.464
		c-0.09,0.777-0.135,1.292-0.135,1.543c1.083-0.072,2.076-0.433,2.979-1.083c0.902-0.649,1.715-1.246,2.437-1.787
		c0.83-0.505,1.552-1.057,2.166-1.652c0.613-0.595,1.246-1.2,1.896-1.814c0.939-0.975,1.869-1.94,2.789-2.897
		c0.92-0.956,1.886-1.886,2.897-2.789c0.288-0.252,0.577-0.505,0.867-0.758c0.288-0.252,0.614-0.468,0.975-0.65
		c0.18-0.108,0.333-0.225,0.459-0.352c0.126-0.126,0.298-0.226,0.515-0.298c0.072,0.037,0.144,0.055,0.217,0.055
		C62.729,21.446,62.801,21.446,62.874,21.446z M46.682,43.866c0-0.505,0-1.01,0-1.517c0-0.505-0.037-0.992-0.108-1.462
		c-0.037-0.325-0.091-0.595-0.163-0.813c-0.073-0.216-0.163-0.415-0.271-0.595c-0.108-0.18-0.235-0.352-0.379-0.515
		c-0.145-0.163-0.29-0.388-0.434-0.677c-0.073-0.181-0.181-0.388-0.325-0.623c-0.145-0.235-0.29-0.371-0.433-0.407
		c-0.073,0-0.108,0.019-0.108,0.054c0.035,0.434,0.044,0.812,0.026,1.137c-0.019,0.325-0.036,0.633-0.054,0.921
		c-0.019,0.289-0.054,0.605-0.108,0.947c-0.054,0.345-0.101,0.751-0.136,1.219c-0.108,0.903-0.189,1.814-0.244,2.735
		s-0.171,1.851-0.352,2.789c-0.036,0.506-0.063,0.856-0.081,1.056c-0.019,0.198-0.036,0.38-0.054,0.541
		c-0.019,0.163-0.046,0.353-0.082,0.57c-0.036,0.217-0.072,0.559-0.108,1.028c-0.072,0.939-0.099,1.787-0.081,2.545
		c0.018,0.759,0.081,1.571,0.189,2.437c0.289-0.324,0.469-0.605,0.542-0.838c0.072-0.236,0.199-0.605,0.379-1.111
		c0.289-0.648,0.55-1.174,0.785-1.57c0.234-0.397,0.442-0.804,0.623-1.219s0.342-0.875,0.488-1.38
		c0.144-0.507,0.271-1.192,0.379-2.059c0.072-0.506,0.108-1.028,0.108-1.571C46.682,44.949,46.682,44.408,46.682,43.866z
		 M45.111,13.323c-0.181,0.723-0.271,1.444-0.271,2.166c0,0.722,0.018,1.445,0.054,2.167c0.037,0.722,0.082,1.426,0.136,2.112
		c0.054,0.687,0.082,1.354,0.082,2.003c0.468-1.083,0.92-2.229,1.354-3.438c0.433-1.209,0.812-2.482,1.137-3.818
		c0.108-0.65,0.234-1.327,0.379-2.031c0.144-0.704,0.252-1.417,0.326-2.139c0.071-0.65,0.062-1.291-0.028-1.922
		c-0.091-0.632-0.171-1.254-0.244-1.869c-0.397-0.289-0.731-0.298-1.002-0.027c-0.27,0.271-0.478,0.604-0.622,1.002
		c-0.181,0.469-0.317,0.929-0.407,1.38c-0.09,0.453-0.189,0.931-0.298,1.436c-0.072,0.542-0.171,1.047-0.298,1.516
		C45.281,12.33,45.183,12.817,45.111,13.323z M46.735,38.343c-0.073-0.18-0.162-0.388-0.271-0.623
		c-0.109-0.234-0.253-0.46-0.434-0.677c0,0.036-0.027,0.045-0.081,0.027c-0.054-0.017-0.081-0.009-0.081,0.027
		c0,0.073,0.027,0.118,0.081,0.135c0.054,0.02,0.063,0.063,0.027,0.136c0.035,0.073,0.063,0.091,0.081,0.054
		c0.018-0.036,0.063-0.054,0.136-0.054c0.108,0.182,0.189,0.371,0.244,0.568C46.492,38.135,46.591,38.271,46.735,38.343z"/>
	<path fill="#FFFFFF" d="M79.662,21.121c0.072,0.146,0.072,0.263,0,0.353c-0.073,0.091-0.145,0.189-0.217,0.297
		c-0.144,0.253-0.252,0.506-0.324,0.759l-0.379,0.65c0.072,0,0.117-0.054,0.136-0.163c0.018-0.108,0.099-0.163,0.244-0.163
		c-0.109,0.145-0.199,0.262-0.271,0.352c-0.073,0.09-0.108,0.189-0.108,0.298c0,0.073,0.018,0.09,0.054,0.054
		c0.036-0.035,0.072-0.054,0.108-0.054c-0.397,0.831-0.831,1.678-1.299,2.545c-0.47,0.866-0.903,1.733-1.3,2.6
		c0,0.181-0.01,0.262-0.027,0.244c-0.019-0.018-0.081,0.063-0.189,0.243c-0.073,0.181-0.135,0.307-0.189,0.378
		c-0.054,0.073-0.1,0.127-0.135,0.164c-0.037,0.036-0.073,0.09-0.109,0.162c-0.036,0.073-0.072,0.199-0.108,0.38
		c-0.073,0.036-0.073,0.054,0,0.054c0.072,0,0.09,0.019,0.054,0.054c-0.073,0.182-0.145,0.362-0.217,0.542
		c-0.072,0.182-0.072,0.308,0,0.379c-0.144,0.433-0.297,0.849-0.46,1.246c-0.163,0.398-0.298,0.831-0.406,1.299
		c0,0.073,0.018,0.082,0.054,0.027c0.036-0.053,0.055-0.044,0.055,0.027l-0.108,0.109c0.035,0.036,0.054,0.072,0.054,0.108h-0.162
		c-0.146,0.181-0.209,0.352-0.189,0.515c0.018,0.162-0.01,0.334-0.082,0.514c-0.073,0.181-0.135,0.343-0.189,0.487
		c-0.054,0.145-0.1,0.307-0.135,0.488c-0.253,0.469-0.452,0.947-0.596,1.435c-0.145,0.488-0.325,0.984-0.542,1.489
		c-0.073,0.326-0.181,0.649-0.325,0.975c-0.145,0.326-0.271,0.632-0.379,0.92c-0.181,0.398-0.344,0.776-0.488,1.138
		c-0.145,0.361-0.361,0.668-0.65,0.921c-0.182,0.289-0.344,0.56-0.487,0.812c-0.145,0.253-0.398,0.398-0.758,0.434
		c-0.47,0.072-0.848,0.027-1.137-0.136c-0.29-0.162-0.523-0.352-0.704-0.568c-0.073-0.181-0.172-0.378-0.298-0.595
		c-0.127-0.218-0.263-0.416-0.406-0.597c-0.108-0.217-0.208-0.441-0.299-0.677c-0.09-0.233-0.171-0.46-0.243-0.677l-0.487-1.516
		c-0.037-0.252-0.09-0.506-0.163-0.759c-0.073-0.252-0.145-0.505-0.217-0.758c-0.037-0.614-0.081-1.227-0.135-1.841
		s-0.081-1.228-0.081-1.842c0-1.155,0.072-2.292,0.216-3.412c0.144-1.119,0.252-2.184,0.325-3.196
		c-0.108,0.146-0.217,0.299-0.325,0.461c-0.108,0.162-0.235,0.333-0.379,0.514c-0.289,0.542-0.568,1.065-0.839,1.57
		c-0.271,0.506-0.514,1.065-0.731,1.679c-0.182,0.614-0.416,1.173-0.704,1.679c-0.29,0.505-0.615,1.011-0.976,1.516
		c-0.108,0.182-0.216,0.344-0.325,0.487c-0.108,0.145-0.235,0.29-0.378,0.434c-0.109,0.073-0.226,0.181-0.352,0.324
		c-0.127,0.145-0.262,0.271-0.406,0.379c-0.108,0.073-0.199,0.136-0.271,0.19c-0.072,0.054-0.181,0.118-0.325,0.189
		c-0.325,0.181-0.741,0.28-1.246,0.297c-0.506,0.019-0.957-0.063-1.354-0.244c-0.686-0.288-1.128-0.821-1.327-1.598
		c-0.198-0.776-0.297-1.633-0.297-2.572c0-0.722,0.073-1.399,0.216-2.031c0.145-0.631,0.325-1.218,0.542-1.76
		c0.18-0.397,0.378-0.767,0.595-1.11c0.217-0.343,0.414-0.677,0.595-1.002c0.759-1.372,1.616-2.644,2.573-3.818
		c0.956-1.173,1.958-2.337,3.006-3.493c0.216-0.289,0.46-0.604,0.731-0.947c0.271-0.343,0.55-0.569,0.839-0.677
		c0.289-0.144,0.605-0.171,0.948-0.082c0.343,0.091,0.641,0.244,0.894,0.46c0.252,0.216,0.441,0.479,0.568,0.786
		c0.126,0.307,0.135,0.605,0.027,0.893c-0.072,0.108-0.144,0.208-0.216,0.298c-0.073,0.091-0.145,0.19-0.217,0.298
		c0.108,0.036,0.234,0.081,0.379,0.135c0.144,0.054,0.288,0.045,0.434-0.028l0.271,0.217c0.831,0.29,1.408,0.813,1.733,1.57
		c0.18,0.578,0.325,1.083,0.434,1.516c0.072,0.471,0.044,0.958-0.082,1.463c-0.127,0.505-0.226,1.028-0.298,1.57
		c-0.036,0.397-0.027,0.786,0.027,1.164c0.055,0.379,0.045,0.786-0.027,1.219c-0.036,0.216-0.063,0.433-0.081,0.65
		c-0.019,0.216-0.063,0.415-0.135,0.595c-0.037,0.289-0.047,0.578-0.028,0.866c0.018,0.29,0.028,0.578,0.028,0.867l-0.217,1.625
		c-0.108,0.614-0.127,1.218-0.054,1.814c0.072,0.596,0.09,1.183,0.054,1.76c0,0.145-0.027,0.28-0.082,0.406
		c-0.054,0.127-0.081,0.263-0.081,0.406c-0.037,0.108-0.046,0.226-0.027,0.352c0.018,0.127,0.027,0.263,0.027,0.407
		c-0.037,0.144-0.063,0.262-0.082,0.351c-0.019,0.091-0.009,0.227,0.027,0.406c0.071,0.65,0.252,1.229,0.542,1.733
		c0.469-0.902,0.884-1.832,1.246-2.789c0.36-0.957,0.776-1.941,1.246-2.952c0.36-0.83,0.704-1.697,1.029-2.599
		c0.325-0.903,0.613-1.788,0.867-2.654c0.144-0.144,0.225-0.279,0.244-0.406c0.018-0.126,0.063-0.226,0.135-0.298
		c0.036-0.072,0.081-0.126,0.135-0.163c0.054-0.036,0.099-0.089,0.135-0.163c0.072-0.144,0.108-0.234,0.108-0.271
		c0-0.035,0-0.062,0-0.081c0-0.018,0.008-0.054,0.027-0.109c0.018-0.054,0.063-0.17,0.136-0.352c0.035-0.18,0.063-0.297,0.081-0.352
		s0.063-0.171,0.136-0.352c0.072-0.108,0.108-0.216,0.108-0.325s0.036-0.217,0.108-0.326c0.072-0.288,0.207-0.577,0.406-0.866
		c0.198-0.29,0.333-0.577,0.406-0.867c0.18-0.397,0.37-0.785,0.569-1.164c0.198-0.379,0.406-0.749,0.623-1.11
		c0.216-0.326,0.423-0.668,0.623-1.029c0.198-0.36,0.387-0.704,0.568-1.028c0.144-0.252,0.298-0.506,0.461-0.759
		c0.162-0.252,0.333-0.468,0.514-0.65c0.072-0.072,0.144-0.144,0.216-0.216c0.072-0.071,0.144-0.108,0.217-0.108
		c-0.036,0.216-0.127,0.433-0.271,0.65c-0.145,0.216-0.307,0.415-0.487,0.595c-0.361,0.578-0.723,1.191-1.084,1.842
		c-0.361,0.649-0.686,1.335-0.975,2.057c0.109-0.288,0.244-0.541,0.407-0.758c0.162-0.216,0.279-0.451,0.352-0.704l0.162-0.325
		c0.217-0.397,0.479-0.75,0.785-1.056C79.129,21.817,79.409,21.483,79.662,21.121z M66.015,21.229
		c-0.253,0.146-0.47,0.308-0.65,0.488c-0.181,0.181-0.379,0.379-0.596,0.596c-0.181,0.108-0.352,0.235-0.515,0.379
		c-0.162,0.145-0.298,0.308-0.406,0.488c-0.289,0.325-0.569,0.65-0.839,0.974c-0.271,0.325-0.534,0.651-0.786,0.975
		c-0.397,0.541-0.74,1.093-1.029,1.652c-0.289,0.56-0.614,1.129-0.975,1.706c-0.144,0.181-0.28,0.361-0.406,0.541
		c-0.127,0.181-0.226,0.361-0.298,0.542c-0.108,0.181-0.199,0.388-0.271,0.623c-0.073,0.235-0.145,0.46-0.216,0.677
		c-0.073,0.182-0.136,0.389-0.189,0.623c-0.054,0.235-0.1,0.443-0.136,0.624c-0.073,0.397-0.108,0.785-0.108,1.164
		c0,0.379,0,0.75,0,1.11c0.252-0.108,0.469-0.271,0.65-0.488c0.18-0.216,0.343-0.451,0.488-0.704l0.92-1.354
		c0.613-0.976,1.154-1.95,1.625-2.925c0.469-0.974,0.992-1.949,1.57-2.924c0.143-0.216,0.297-0.441,0.46-0.677
		c0.163-0.234,0.316-0.479,0.46-0.731c0.144-0.289,0.288-0.568,0.434-0.839c0.144-0.271,0.234-0.533,0.271-0.785
		c0-0.144-0.01-0.271-0.027-0.379c-0.019-0.108-0.009-0.198,0.027-0.271c0.072-0.216,0.18-0.397,0.325-0.542
		c0.144-0.144,0.252-0.324,0.326-0.542H66.015z M74.517,34.01v-0.054c-0.036,0.036-0.054,0.063-0.054,0.081
		C74.463,34.056,74.481,34.046,74.517,34.01z M77.333,24.75c-0.073,0.073-0.108,0.145-0.108,0.216c0-0.036,0.017-0.072,0.054-0.108
		C77.314,24.822,77.333,24.786,77.333,24.75z M77.387,24.641c0.181-0.108,0.307-0.244,0.379-0.406
		c0.072-0.163,0.126-0.333,0.162-0.514c-0.073,0.181-0.162,0.334-0.27,0.46C77.55,24.308,77.459,24.461,77.387,24.641z
		 M78.037,23.612c0-0.072,0.018-0.126,0.054-0.163s0.036-0.072,0-0.108c0,0.036-0.026,0.072-0.081,0.108S77.964,23.54,78.037,23.612
		z M78.254,23.017c0,0.073-0.037,0.108-0.108,0.108C78.29,23.125,78.326,23.089,78.254,23.017z M78.741,22.367
		c0.072,0,0.117-0.028,0.136-0.082c0.018-0.054,0.008-0.082-0.027-0.082C78.885,22.204,78.85,22.258,78.741,22.367z"/>
	<path fill="#FFFFFF" d="M79.77,27.891c0.613-1.3,1.354-2.6,2.22-3.899c0.866-1.3,1.841-2.402,2.925-3.304
		c0.396-0.289,0.812-0.569,1.245-0.839c0.433-0.271,0.921-0.479,1.462-0.624c0.252-0.072,0.596-0.107,1.029-0.107
		c0.434,0,0.831,0.036,1.192,0.107c0.975,0.29,1.715,0.768,2.221,1.436c0.505,0.669,0.721,1.543,0.649,2.626
		c-0.073,0.506-0.189,1.002-0.352,1.49c-0.163,0.488-0.317,0.966-0.461,1.436c-0.397,1.516-0.722,2.943-0.975,4.278
		c-0.253,1.336-0.614,2.672-1.083,4.007c-0.506,1.553-0.975,3.042-1.408,4.468c-0.433,1.427-1.083,2.626-1.95,3.601
		c-0.361,0.435-0.885,0.83-1.57,1.191l-0.542,0.325c-0.361,0.108-0.74,0.209-1.137,0.298c-0.398,0.091-0.794,0.172-1.191,0.244
		c-0.397,0.109-0.758,0.198-1.083,0.27c-0.325,0.074-0.669,0.146-1.029,0.217h0.054c-0.072,0-0.135,0.01-0.189,0.027
		c-0.054,0.019-0.1,0.009-0.135-0.027c-0.037-0.071-0.082-0.116-0.136-0.135c-0.054-0.018-0.117-0.063-0.189-0.135
		c-0.073-0.037-0.118-0.09-0.136-0.163c-0.019-0.071-0.063-0.144-0.135-0.216c-0.073-0.108-0.163-0.19-0.271-0.244
		c-0.108-0.055-0.181-0.136-0.217-0.244c-0.072-0.035-0.063-0.045,0.027-0.027c0.09,0.02,0.099-0.008,0.027-0.081
		c-0.505-0.687-0.939-1.534-1.299-2.545c-0.361-1.011-0.506-2.094-0.433-3.25c0.072-0.542,0.162-1.091,0.271-1.652
		c0.108-0.559,0.251-1.091,0.433-1.597c-0.397,0.108-0.723,0.271-0.975,0.487c-0.253,0.217-0.668,0.344-1.246,0.379
		c-0.397,0.108-0.686,0.127-0.866,0.054c-0.181-0.072-0.307-0.207-0.379-0.406c-0.072-0.198-0.117-0.46-0.135-0.785
		c-0.019-0.326-0.027-0.705-0.027-1.138c-0.037-0.36-0.01-0.757,0.082-1.191c0.089-0.433,0.135-0.884,0.135-1.354
		c-0.073-2.058-0.019-4.206,0.163-6.444c0.18-2.238,0.306-4.441,0.379-6.607c0.18-1.191,0.379-2.346,0.596-3.466
		c0.144-0.613,0.261-1.227,0.352-1.841c0.089-0.614,0.189-1.227,0.298-1.841c0.18-1.3,0.333-2.526,0.46-3.683
		c0.126-1.155,0.333-2.364,0.623-3.628c0.036-0.252,0.081-0.523,0.135-0.813c0.054-0.288,0.136-0.577,0.244-0.867
		c0.072-0.216,0.171-0.487,0.298-0.812c0.125-0.325,0.243-0.523,0.351-0.596c0.072-0.072,0.252-0.135,0.542-0.189
		C78.921,0.028,79.155,0,79.337,0c0.433,0.036,0.813,0.172,1.137,0.406c0.325,0.235,0.613,0.442,0.866,0.623
		c0.108,0.145,0.217,0.28,0.326,0.406c0.108,0.127,0.198,0.263,0.27,0.407c0.181,0.289,0.28,0.623,0.298,1.001
		c0.018,0.379,0.045,0.768,0.082,1.164c0.072,0.794,0.072,1.607,0,2.437c-0.073,0.832-0.145,1.698-0.217,2.6
		c-0.073,0.831-0.172,1.661-0.297,2.491c-0.127,0.831-0.263,1.661-0.407,2.491c-0.073,0.832-0.208,1.67-0.406,2.519
		c-0.199,0.848-0.335,1.651-0.406,2.409c-0.146,1.408-0.263,2.889-0.353,4.441C80.14,24.948,79.986,26.447,79.77,27.891z
		 M84.752,38.614c0.505-0.938,1.002-1.967,1.489-3.087c0.487-1.118,0.947-2.256,1.38-3.411c0.397-1.155,0.785-2.365,1.165-3.629
		c0.379-1.263,0.658-2.527,0.839-3.791c0.036-0.397,0.063-0.82,0.082-1.273c0.018-0.45-0.009-0.867-0.082-1.245
		c-0.072-0.379-0.226-0.677-0.46-0.894c-0.235-0.217-0.587-0.307-1.057-0.271c-0.433,0.072-0.884,0.289-1.354,0.649
		c-0.469,0.362-0.866,0.705-1.19,1.029c-1.806,1.806-3.214,3.953-4.225,6.445c-0.181,0.398-0.397,0.767-0.649,1.11
		c-0.254,0.343-0.434,0.696-0.542,1.057c-0.073,0.072-0.073,0.09,0,0.053c0.072-0.035,0.089-0.017,0.054,0.054
		c-0.073,0.109-0.108,0.227-0.108,0.353c0,0.126-0.054,0.262-0.163,0.406c0.072,0.037,0.126,0.01,0.163-0.081
		c0.035-0.089,0.071-0.099,0.108-0.027c-0.037,0.216-0.1,0.406-0.189,0.568c-0.091,0.163-0.135,0.334-0.135,0.515
		c0,0.217,0.054,0.416,0.163,0.596c0.108,0.18,0.197,0.378,0.27,0.595v0.217c0.072,0.107,0.136,0.189,0.19,0.243
		c0.054,0.055,0.082,0.136,0.082,0.244v0.271c0.035,0.073,0.089,0.163,0.162,0.271c0.072,0.108,0.126,0.199,0.163,0.271
		c0.18,0.505,0.252,1.038,0.216,1.597c-0.037,0.56,0.036,1.093,0.216,1.598c0.29,1.048,0.613,1.643,0.976,1.788
		c0.36,0.145,0.704,0.082,1.028-0.189c0.325-0.271,0.614-0.632,0.867-1.083C84.462,39.11,84.644,38.794,84.752,38.614z"/>
	<path fill="#FFFFFF" d="M116.974,20.417c-0.073,0.182-0.046,0.308,0.081,0.379c0.126,0.073,0.171,0.199,0.136,0.379
		c0,0.181-0.054,0.352-0.163,0.515c-0.108,0.162-0.235,0.316-0.379,0.46c-0.181,0.433-0.407,0.867-0.677,1.3
		c-0.271,0.434-0.497,0.849-0.677,1.246c-0.181,0.361-0.398,0.723-0.65,1.083c-0.252,0.362-0.505,0.74-0.758,1.137
		c-0.433,0.723-0.913,1.444-1.436,2.166c-0.523,0.723-1.02,1.462-1.489,2.221c-0.398,0.722-0.948,1.444-1.652,2.167
		c-0.704,0.722-1.31,1.408-1.814,2.057c-0.65,0.542-1.138,1.083-1.462,1.625c-0.398,0.325-0.668,0.651-0.813,0.975
		c-0.145,0.146-0.289,0.281-0.433,0.407c-0.146,0.127-0.271,0.262-0.379,0.406c-0.217,0.217-0.389,0.479-0.515,0.786
		c-0.126,0.307-0.316,0.569-0.568,0.785c-0.182,0.181-0.424,0.344-0.731,0.487c-0.307,0.145-0.659,0.271-1.056,0.38
		c-0.181,0.072-0.343,0.145-0.488,0.216c-0.145,0.072-0.289,0.145-0.433,0.217c-0.361,0.072-0.677,0.127-0.947,0.162
		c-0.271,0.036-0.605,0.092-1.002,0.163c-0.866,0.072-1.661-0.127-2.382-0.597c-0.542-0.576-0.921-1.516-1.138-2.815
		c-0.073-0.542-0.145-1.064-0.217-1.571c-0.072-0.504-0.09-1.064-0.055-1.679c0.072-0.36,0.117-0.704,0.136-1.028
		c0.018-0.326,0.028-0.651,0.028-0.975c0.072-0.614,0.116-1.21,0.135-1.788c0.018-0.577,0.099-1.208,0.244-1.896
		c0.036-0.325,0.072-0.641,0.108-0.948c0.035-0.306,0.09-0.604,0.162-0.893c0.144-0.722,0.406-1.426,0.786-2.112
		c0.379-0.686,0.712-1.354,1.002-2.003c0.216-0.361,0.37-0.695,0.46-1.002c0.09-0.307,0.207-0.659,0.352-1.057
		c0.18-0.938,0.578-1.588,1.191-1.949l1.517-0.542c0.396-0.072,0.938-0.036,1.625,0.108c0.108,0.036,0.234,0.063,0.378,0.081
		c0.144,0.019,0.252,0.046,0.325,0.082c0.181,0.072,0.316,0.208,0.406,0.406c0.09,0.199,0.153,0.389,0.189,0.569
		c0.108,0.289,0.19,0.65,0.244,1.083c0.054,0.433,0.045,0.831-0.027,1.191c-0.073,0.361-0.182,0.731-0.325,1.11
		c-0.145,0.379-0.307,0.75-0.487,1.11c-0.182,0.361-0.352,0.731-0.515,1.11c-0.162,0.379-0.353,0.731-0.568,1.056
		c-0.217,0.506-0.461,0.975-0.731,1.408c-0.271,0.433-0.533,0.903-0.785,1.408c-0.109,0.145-0.227,0.325-0.353,0.542
		c-0.127,0.217-0.208,0.398-0.244,0.542c-0.037,0.181-0.045,0.388-0.027,0.623c0.018,0.235,0.045,0.46,0.081,0.677v1.3
		c0.072,0.433,0.072,0.903,0,1.408c-0.073,0.506-0.091,0.957-0.054,1.354c0.036,0.506,0.126,0.93,0.271,1.272
		c0.144,0.344,0.234,0.786,0.27,1.327c0.578-0.144,1.119-0.441,1.625-0.894c0.505-0.451,0.956-0.894,1.354-1.327l1.733-1.949
		c1.227-1.408,2.491-2.87,3.791-4.387c1.3-1.517,2.437-3.051,3.412-4.604c0.252-0.397,0.568-0.803,0.948-1.218
		c0.378-0.415,0.677-0.821,0.893-1.219c0.252-0.397,0.523-0.803,0.813-1.218c0.289-0.415,0.577-0.803,0.867-1.165
		c0.071-0.072,0.198-0.181,0.379-0.325c0.072-0.108,0.126-0.198,0.163-0.271C116.685,20.399,116.793,20.381,116.974,20.417z
		 M100.294,22.854c-0.073,0.253-0.154,0.479-0.244,0.677c-0.091,0.199-0.172,0.389-0.244,0.568
		c-0.073,0.182-0.108,0.362-0.108,0.542c0,0.181-0.018,0.379-0.054,0.596c-0.108,0.181-0.198,0.371-0.271,0.568
		c-0.073,0.199-0.163,0.443-0.271,0.731c-0.037,0.362-0.02,0.697,0.054,1.002c0.072,0.308,0.109,0.587,0.109,0.839
		c0.216-0.217,0.46-0.468,0.731-0.759c0.271-0.288,0.478-0.595,0.623-0.92c0.144-0.217,0.261-0.478,0.352-0.786
		c0.09-0.306,0.171-0.604,0.244-0.894c0.288-0.686,0.46-1.317,0.514-1.895c0.054-0.577,0.045-1.155-0.027-1.733l-0.596-0.378
		c-0.29,0.181-0.479,0.433-0.568,0.757C100.448,22.096,100.366,22.457,100.294,22.854z"/>
	<path fill="#FFFFFF" d="M117.948,47.225c0.036,0.072,0.126,0.107,0.271,0.107c0.035-0.072,0.045-0.136,0.027-0.188
		c-0.019-0.055,0.008-0.101,0.082-0.136c0.108,0.071,0.126,0.162,0.054,0.271c-0.073,0.107-0.073,0.197,0,0.27l-0.054,0.109v0.053
		c-0.073-0.036-0.108-0.08-0.108-0.135c0-0.054-0.019-0.118-0.054-0.189c-0.181,0.071-0.208,0.171-0.082,0.298
		c0.126,0.126,0.19,0.226,0.19,0.298c0,0.036-0.019,0.07-0.054,0.108v0.054c0,0.035-0.019,0.035-0.054,0l0.108,0.325
		c0.035,0.071,0.072,0.081,0.108,0.027c0.036-0.055,0.09-0.064,0.163-0.027c-0.145,0.071-0.19,0.126-0.135,0.163
		c0.054,0.034,0.044,0.071-0.028,0.107c0.072,0.035,0.126,0.045,0.163,0.027c0.035-0.019,0.071,0.008,0.107,0.082
		c0.036,0.071,0.036,0.136,0,0.188c-0.036,0.055-0.036,0.136,0,0.244c-0.145-0.073-0.252-0.118-0.324-0.136
		c-0.073-0.018-0.181-0.026-0.325-0.026c0.216,0.072,0.325,0.198,0.325,0.379h-0.38c0.036,0.108,0.09,0.179,0.163,0.217
		c0.072,0.034,0.126,0.107,0.163,0.216c-0.036,0-0.054-0.019-0.054-0.055c0-0.035-0.019-0.054-0.054-0.054
		c-0.181,0.108-0.181,0.217,0,0.324c-0.108,0.073-0.181,0.073-0.217,0c-0.036-0.071-0.09-0.09-0.162-0.053
		c0,0.071,0.035,0.18,0.108,0.324c-0.182-0.036-0.469-0.046-0.867-0.026c-0.397,0.018-0.704,0.008-0.919-0.028
		c0,0.145,0.063,0.199,0.189,0.163c0.126-0.037,0.244-0.054,0.353-0.054c-0.109,0.072-0.227,0.108-0.353,0.108
		c-0.126,0-0.262,0.018-0.406,0.054c0,0.072,0.036,0.09,0.108,0.055c0.071-0.037,0.125-0.019,0.162,0.054
		c-0.037,0.035-0.082,0.045-0.136,0.027c-0.053-0.019-0.117-0.027-0.189-0.027v0.108c0,0.036,0.018,0.055,0.054,0.055
		c0,0.071-0.027,0.089-0.082,0.053c-0.054-0.035-0.081-0.035-0.081,0c0.036,0.036,0.089,0.046,0.163,0.028
		c0.072-0.02,0.144-0.01,0.217,0.027c-0.037,0.108-0.135,0.152-0.298,0.136c-0.163-0.02-0.262,0.026-0.298,0.136
		c-0.324,0.034-0.604,0.106-0.839,0.215c-0.235,0.108-0.551,0.181-0.948,0.217c0.035-0.073,0.027-0.09-0.027-0.054
		c-0.054,0.035-0.082,0.018-0.082-0.055c0-0.037-0.045-0.081-0.134-0.136c-0.091-0.053-0.154-0.117-0.19-0.188
		c-0.217-0.362-0.271-0.805-0.163-1.328s0.18-0.966,0.217-1.326c0.035-0.253,0.045-0.498,0.027-0.73
		c-0.019-0.237-0.045-0.48-0.081-0.732c-0.073-1.264-0.09-2.554-0.054-3.873c0.036-1.316,0.09-2.644,0.163-3.979l0.325-9.965
		c0.108-2.31,0.361-4.675,0.758-7.094c0.397-2.418,0.739-4.658,1.028-6.715c-1.299,0.325-2.518,0.596-3.655,0.812
		c-1.137,0.217-2.355,0.524-3.656,0.921c-0.181,0.037-0.37,0.037-0.569,0c-0.197-0.035-0.387-0.035-0.568,0
		c-0.108,0.037-0.252,0.1-0.434,0.189c-0.18,0.09-0.343,0.154-0.487,0.19s-0.262,0.036-0.353,0
		c-0.089-0.036-0.099-0.163-0.027-0.379c0.181-0.325,0.56-0.586,1.138-0.785c0.578-0.198,1.083-0.37,1.517-0.515
		c0.469-0.179,0.993-0.324,1.57-0.433c0.289-0.072,0.577-0.144,0.867-0.216c0.289-0.072,0.614-0.126,0.975-0.163
		c0.18-0.072,0.369-0.125,0.568-0.162c0.199-0.035,0.424-0.072,0.677-0.108c0.433-0.072,0.857-0.18,1.273-0.325
		c0.415-0.144,0.875-0.217,1.381-0.217c0.036-0.325,0.089-0.604,0.163-0.839c0.072-0.234,0.135-0.469,0.189-0.704
		c0.054-0.234,0.117-0.488,0.19-0.758c0.072-0.271,0.126-0.604,0.162-1.002v-0.704c0.072-0.686,0.163-1.39,0.271-2.112
		c0.108-0.722,0.18-1.389,0.216-2.004c0-0.251-0.027-0.487-0.081-0.704c-0.054-0.216-0.063-0.432-0.027-0.649
		c0.035-0.433,0.224-0.793,0.568-1.083c0.342-0.288,0.749-0.433,1.218-0.433c0.325,0,0.712,0.063,1.165,0.19
		c0.45,0.126,0.785,0.262,1.001,0.406c0.324,0.181,0.613,0.425,0.866,0.731c0.252,0.307,0.342,0.713,0.271,1.219
		c0,0.252-0.063,0.47-0.189,0.65c-0.127,0.181-0.226,0.361-0.298,0.542c-0.073,0.253-0.118,0.533-0.135,0.839
		c-0.019,0.307-0.064,0.605-0.136,0.894c-0.073,0.831-0.19,1.688-0.352,2.572c-0.163,0.885-0.316,1.743-0.46,2.573
		c0.397,0.036,0.813-0.008,1.246-0.136c0.433-0.126,0.866-0.225,1.3-0.298c1.191-0.251,2.336-0.45,3.438-0.595
		c1.101-0.144,2.266-0.271,3.494-0.379c0.503-0.072,0.991-0.126,1.462-0.162c0.469-0.036,0.938,0.018,1.407,0.162
		c0.071,0.073,0.171,0.154,0.298,0.244c0.127,0.09,0.279,0.117,0.461,0.082c0.072,0.072,0.206,0.108,0.405,0.108
		c0.198,0,0.353,0,0.461,0c-0.073,0.181-0.199,0.271-0.38,0.271c-0.182,0-0.343,0.019-0.486,0.054
		c-2.275,0.361-4.522,0.668-6.742,0.921c-2.222,0.252-4.415,0.632-6.581,1.137c-0.072,0.722-0.099,1.454-0.081,2.193
		c0.018,0.741,0.008,1.473-0.027,2.194c-0.108,1.047-0.263,2.077-0.46,3.087c-0.199,1.011-0.334,2.04-0.406,3.087
		c-0.037,0.361-0.045,0.731-0.027,1.11c0.018,0.379,0.027,0.767,0.027,1.164c0,2.275-0.154,4.433-0.461,6.472
		c-0.307,2.04-0.587,4.017-0.84,5.93c0.037,0.036,0.045,0.081,0.028,0.135c-0.019,0.055-0.009,0.101,0.027,0.136
		c-0.073,0.036-0.09,0.063-0.055,0.081c0.037,0.02,0.019,0.027-0.054,0.027c0.072,0.182,0.082,0.353,0.027,0.515
		c-0.054,0.161-0.027,0.315,0.081,0.46c-0.253,0.072-0.27,0.235-0.055,0.487c0.072-0.18,0.072-0.288,0-0.324
		c0.072-0.071,0.127-0.145,0.164-0.218c0.035-0.071,0.125-0.144,0.271-0.217c-0.073,0-0.091-0.018-0.054-0.053
		c0.035-0.036,0.054-0.072,0.054-0.109c0.072,0.037,0.09,0.1,0.054,0.189c-0.037,0.092-0.054,0.172-0.054,0.244
		c0,0.29-0.019,0.633-0.054,1.03c-0.037,0.396-0.108,0.686-0.216,0.865c0.108,0.036,0.144,0.063,0.108,0.081
		c-0.037,0.02-0.019,0.063,0.054,0.136v0.054h-0.162c0,0.073,0.054,0.109,0.162,0.109c-0.073,0.181-0.127,0.397-0.162,0.648
		c-0.037,0.253-0.055,0.451-0.055,0.596l0.055,0.108c0,0.073-0.01,0.127-0.028,0.163c-0.019,0.036-0.027,0.071-0.027,0.109
		c-0.036,0.18-0.036,0.387,0,0.621s0.036,0.442,0,0.623c0.036,0.036,0.072,0.055,0.109,0.055
		C118.092,47.17,118.057,47.188,117.948,47.225z"/>
	<path fill="#FFFFFF" d="M145.567,27.891c0.613-1.3,1.354-2.6,2.22-3.899c0.866-1.3,1.843-2.402,2.925-3.304
		c0.396-0.289,0.813-0.569,1.245-0.839c0.434-0.271,0.923-0.479,1.463-0.624c0.252-0.072,0.595-0.107,1.029-0.107
		c0.433,0,0.829,0.036,1.19,0.107c0.975,0.29,1.716,0.768,2.222,1.436c0.505,0.669,0.721,1.543,0.648,2.626
		c-0.071,0.506-0.189,1.002-0.352,1.49c-0.162,0.488-0.316,0.966-0.46,1.436c-0.398,1.516-0.723,2.943-0.976,4.278
		c-0.252,1.336-0.613,2.672-1.083,4.007c-0.506,1.553-0.974,3.042-1.407,4.468c-0.434,1.427-1.084,2.626-1.95,3.601
		c-0.362,0.435-0.884,0.83-1.57,1.191l-0.541,0.325c-0.361,0.108-0.74,0.209-1.138,0.298c-0.398,0.091-0.795,0.172-1.19,0.244
		c-0.398,0.109-0.76,0.198-1.084,0.27c-0.326,0.074-0.669,0.146-1.029,0.217h0.055c-0.073,0-0.136,0.01-0.19,0.027
		c-0.054,0.019-0.101,0.009-0.136-0.027c-0.036-0.071-0.081-0.116-0.136-0.135c-0.053-0.018-0.117-0.063-0.188-0.135
		c-0.072-0.037-0.118-0.09-0.136-0.163c-0.02-0.071-0.062-0.144-0.135-0.216c-0.072-0.108-0.162-0.19-0.271-0.244
		c-0.108-0.055-0.182-0.136-0.217-0.244c-0.073-0.035-0.063-0.045,0.026-0.027c0.091,0.02,0.1-0.008,0.027-0.081
		c-0.506-0.687-0.94-1.534-1.299-2.545c-0.362-1.011-0.506-2.094-0.434-3.25c0.071-0.542,0.163-1.091,0.271-1.652
		c0.107-0.559,0.252-1.091,0.432-1.597c-0.396,0.108-0.723,0.271-0.975,0.487c-0.254,0.217-0.668,0.344-1.246,0.379
		c-0.396,0.108-0.686,0.127-0.866,0.054c-0.181-0.072-0.307-0.207-0.379-0.406c-0.072-0.198-0.116-0.46-0.135-0.785
		c-0.019-0.326-0.027-0.705-0.027-1.138c-0.037-0.36-0.009-0.757,0.081-1.191c0.089-0.433,0.136-0.884,0.136-1.354
		c-0.072-2.058-0.019-4.206,0.163-6.444c0.179-2.238,0.305-4.441,0.379-6.607c0.179-1.191,0.379-2.346,0.596-3.466
		c0.144-0.613,0.262-1.227,0.352-1.841c0.089-0.614,0.188-1.227,0.298-1.841c0.18-1.3,0.333-2.526,0.46-3.683
		c0.127-1.155,0.334-2.364,0.624-3.628c0.034-0.252,0.08-0.523,0.135-0.813c0.054-0.288,0.136-0.577,0.244-0.867
		c0.072-0.216,0.17-0.487,0.297-0.812c0.125-0.325,0.244-0.523,0.352-0.596c0.072-0.072,0.252-0.135,0.542-0.189
		C144.719,0.028,144.951,0,145.134,0c0.434,0.036,0.813,0.172,1.138,0.406c0.324,0.235,0.613,0.442,0.866,0.623
		c0.107,0.145,0.217,0.28,0.325,0.406c0.108,0.127,0.197,0.263,0.271,0.407c0.18,0.289,0.278,0.623,0.297,1.001
		c0.019,0.379,0.046,0.768,0.082,1.164c0.071,0.794,0.071,1.607,0,2.437c-0.073,0.832-0.145,1.698-0.218,2.6
		c-0.072,0.831-0.172,1.661-0.297,2.491c-0.127,0.831-0.263,1.661-0.406,2.491c-0.074,0.832-0.21,1.67-0.407,2.519
		c-0.198,0.848-0.333,1.651-0.404,2.409c-0.146,1.408-0.263,2.889-0.354,4.441C145.937,24.948,145.784,26.447,145.567,27.891z
		 M150.55,38.614c0.505-0.938,1.001-1.967,1.488-3.087c0.487-1.118,0.949-2.256,1.382-3.411c0.396-1.155,0.786-2.365,1.165-3.629
		c0.377-1.263,0.656-2.527,0.839-3.791c0.035-0.397,0.063-0.82,0.08-1.273c0.02-0.45-0.009-0.867-0.08-1.245
		c-0.073-0.379-0.227-0.677-0.462-0.894s-0.585-0.307-1.055-0.271c-0.434,0.072-0.885,0.289-1.354,0.649
		c-0.47,0.362-0.866,0.705-1.19,1.029c-1.807,1.806-3.214,3.953-4.225,6.445c-0.182,0.398-0.398,0.767-0.649,1.11
		c-0.254,0.343-0.435,0.696-0.542,1.057c-0.073,0.072-0.073,0.09,0,0.053c0.072-0.035,0.09-0.017,0.055,0.054
		c-0.074,0.109-0.109,0.227-0.109,0.353c0,0.126-0.054,0.262-0.162,0.406c0.072,0.037,0.126,0.01,0.162-0.081
		c0.035-0.089,0.071-0.099,0.109-0.027c-0.038,0.216-0.101,0.406-0.19,0.568c-0.091,0.163-0.135,0.334-0.135,0.515
		c0,0.217,0.054,0.416,0.162,0.596c0.108,0.18,0.198,0.378,0.271,0.595v0.217c0.071,0.107,0.136,0.189,0.188,0.243
		c0.055,0.055,0.083,0.136,0.083,0.244v0.271c0.034,0.073,0.089,0.163,0.161,0.271c0.071,0.108,0.125,0.199,0.161,0.271
		c0.182,0.505,0.253,1.038,0.218,1.597c-0.036,0.56,0.035,1.093,0.217,1.598c0.288,1.048,0.614,1.643,0.976,1.788
		c0.359,0.145,0.704,0.082,1.027-0.189c0.326-0.271,0.614-0.632,0.867-1.083C150.26,39.11,150.441,38.794,150.55,38.614z"/>
	<path fill="#FFFFFF" d="M187.051,21.988c-0.072,0.216-0.208,0.469-0.407,0.757c-0.198,0.291-0.334,0.578-0.406,0.867
		c0.107,0,0.172-0.045,0.19-0.136c0.018-0.09,0.099-0.135,0.244-0.135c0.179-0.181,0.307-0.388,0.379-0.623
		c0.071-0.234,0.18-0.423,0.324-0.569c-0.289,0.687-0.587,1.427-0.895,2.22c-0.307,0.795-0.622,1.553-0.947,2.274
		c0.072-0.035,0.108-0.089,0.108-0.163c0-0.071,0.035-0.107,0.108-0.107c0.035-0.181,0.108-0.307,0.216-0.38
		c0.109-0.072,0.163-0.162,0.163-0.271v-0.054l0.055,0.054c-0.253,0.687-0.614,1.391-1.083,2.113
		c-0.218,0.073-0.38,0.226-0.487,0.46c-0.109,0.235-0.2,0.443-0.271,0.623c0.035,0.037,0.127-0.053,0.271-0.27
		c-0.182,0.433-0.299,0.74-0.353,0.92c-0.055,0.181-0.091,0.325-0.108,0.433c-0.019,0.109-0.073,0.244-0.161,0.407
		c-0.091,0.162-0.244,0.459-0.462,0.894c-0.289,0.505-0.497,0.866-0.621,1.083c-0.127,0.217-0.237,0.407-0.327,0.569
		c-0.091,0.162-0.197,0.361-0.323,0.595c-0.127,0.235-0.298,0.623-0.516,1.164c-0.071,0.181-0.1,0.335-0.08,0.461
		c0.017,0.127-0.027,0.244-0.136,0.352c-0.073,0.216-0.146,0.416-0.217,0.596c-0.073,0.181-0.145,0.379-0.218,0.596
		c-0.071,0.217-0.162,0.452-0.27,0.704c-0.108,0.253-0.253,0.523-0.434,0.813c-0.18,0.253-0.335,0.479-0.459,0.677
		c-0.128,0.199-0.282,0.425-0.462,0.677c-0.182,0.073-0.344,0.172-0.485,0.298c-0.146,0.127-0.291,0.244-0.435,0.353
		c-0.073,0.145-0.171,0.271-0.298,0.379s-0.263,0.217-0.407,0.325c-0.182,0.108-0.378,0.226-0.595,0.352
		c-0.217,0.127-0.434,0.209-0.651,0.243c-0.179,0-0.387-0.034-0.622-0.107c-0.233-0.072-0.424-0.144-0.568-0.216
		c-0.253-0.181-0.46-0.397-0.622-0.651c-0.163-0.252-0.282-0.522-0.354-0.812c-0.071-0.324-0.153-0.623-0.242-0.894
		c-0.091-0.27-0.155-0.568-0.19-0.893c-0.036-0.505-0.036-1.037,0-1.598c0.035-0.56,0.091-1.091,0.162-1.598v-1.516
		c0.073-0.36,0.144-0.848,0.217-1.462c0.073-0.505,0.117-1.029,0.136-1.57c0.018-0.542,0.063-1.083,0.136-1.625
		c0.181-0.976,0.343-1.95,0.487-2.925c0.144-0.974,0.234-1.966,0.271-2.978c-0.144,0.217-0.234,0.479-0.271,0.785
		c-0.036,0.308-0.127,0.605-0.271,0.894c-0.107,0.29-0.253,0.596-0.434,0.921c-0.071,0.145-0.127,0.271-0.162,0.378
		c-0.035,0.109-0.108,0.236-0.216,0.38c-0.107,0.289-0.207,0.605-0.299,0.948c-0.09,0.343-0.207,0.659-0.352,0.948
		c-0.217,0.289-0.405,0.55-0.568,0.785c-0.164,0.234-0.299,0.514-0.406,0.839c-0.324,0.614-0.561,1.191-0.705,1.733l-0.812,1.732
		c-0.144,0.29-0.271,0.578-0.379,0.866c-0.107,0.29-0.253,0.579-0.435,0.867c-0.288,0.542-0.613,1.066-0.974,1.571
		c-0.432,0.65-0.975,1.102-1.624,1.354c-0.289,0.145-0.643,0.235-1.058,0.271c-0.413,0.036-0.838,0.045-1.271,0.027
		c-0.435-0.018-0.839-0.09-1.219-0.217c-0.38-0.126-0.66-0.279-0.84-0.46c-0.469-0.396-0.712-0.993-0.731-1.787
		c-0.018-0.794-0.026-1.606-0.026-2.437c0.035-0.722,0.09-1.408,0.162-2.057c0.071-0.65,0.143-1.354,0.218-2.113
		c0.034-0.36,0.08-0.73,0.135-1.11c0.052-0.379,0.098-0.749,0.136-1.11c0.034-0.361,0.044-0.705,0.025-1.03
		c-0.019-0.324-0.025-0.649-0.025-0.974c-0.038-0.505-0.047-1.011-0.028-1.516c0.018-0.506,0.028-1.047,0.028-1.625
		c0-0.18-0.028-0.326-0.084-0.434c-0.052-0.107-0.079-0.234-0.079-0.378c0-0.469,0.163-0.813,0.486-1.029
		c0.325-0.217,0.686-0.325,1.084-0.325c0.217,0.036,0.46,0.135,0.731,0.298c0.271,0.163,0.478,0.352,0.622,0.568
		c0.181,0.325,0.244,0.768,0.19,1.327c-0.055,0.561-0.119,1.075-0.19,1.544c0,0.289,0.027,0.533,0.082,0.731
		c0.054,0.199,0.081,0.406,0.081,0.623c0,0.29-0.027,0.569-0.081,0.839c-0.055,0.271-0.101,0.497-0.136,0.677
		c-0.073,0.362-0.127,0.741-0.162,1.138c-0.036,0.398-0.073,0.794-0.107,1.191c0,0.47-0.011,0.885-0.028,1.246
		c-0.019,0.361-0.027,0.723-0.027,1.083c0,0.578,0.107,1.156,0.325,1.733c0.035,0.47,0.181,0.975,0.433,1.516
		c0.181-0.251,0.361-0.514,0.541-0.785c0.182-0.27,0.361-0.55,0.543-0.839c0.504-0.867,1.045-1.724,1.625-2.572
		c0.575-0.848,1.116-1.688,1.624-2.519c0.722-1.155,1.426-2.329,2.112-3.521c0.685-1.191,1.462-2.255,2.329-3.194
		c0.18-0.072,0.323-0.172,0.433-0.299c0.109-0.125,0.253-0.225,0.433-0.297c0.831,0,1.354,0.289,1.572,0.867
		c0.179,0.325,0.242,0.75,0.187,1.272c-0.051,0.523-0.079,1.075-0.079,1.651v0.921c-0.036,0.361-0.099,0.696-0.189,1.002
		c-0.091,0.307-0.172,0.623-0.244,0.947c-0.107,0.398-0.189,0.785-0.243,1.165c-0.056,0.38-0.154,0.713-0.299,1.002
		c-0.071,0.434-0.107,0.84-0.107,1.218c0,0.38-0.02,0.768-0.056,1.165c-0.035,0.289-0.08,0.568-0.135,0.839
		c-0.054,0.27-0.081,0.551-0.081,0.839v1.788c0,0.325-0.01,0.631-0.028,0.92c-0.018,0.29,0.009,0.578,0.083,0.867
		c0.18,1.12,0.451,2.094,0.813,2.924c0.181,0,0.333-0.072,0.46-0.217c0.126-0.144,0.242-0.289,0.352-0.433
		c0.396-0.469,0.739-0.948,1.029-1.436c0.289-0.487,0.577-1.038,0.866-1.652l2.275-4.332c0.359-0.722,0.585-1.165,0.677-1.327
		c0.089-0.162,0.161-0.271,0.216-0.325c0.056-0.054,0.127-0.163,0.217-0.326c0.09-0.162,0.317-0.604,0.678-1.326
		c0-0.072,0.025-0.09,0.081-0.054c0.055,0.036,0.08,0.036,0.08,0c0.397-0.831,0.768-1.66,1.11-2.491s0.713-1.625,1.11-2.383
		c0.037,0,0.073,0.054,0.108,0.163c0.107-0.181,0.234-0.37,0.379-0.569C186.76,22.359,186.906,22.168,187.051,21.988z
		 M184.017,29.624c0-0.072,0.035-0.126,0.109-0.163c0.072-0.035,0.053-0.09-0.055-0.162c0,0.072-0.02,0.127-0.055,0.162
		C183.981,29.498,183.981,29.552,184.017,29.624z M184.83,28.215c0-0.036,0.053-0.109,0.161-0.217L184.83,28.215z M184.991,27.999
		c0.072-0.072,0.109-0.126,0.109-0.162L184.991,27.999z M185.426,27.187c0.036-0.072,0.071-0.135,0.107-0.189
		s0.02-0.082-0.053-0.082c0,0.037-0.01,0.073-0.027,0.108C185.435,27.061,185.426,27.115,185.426,27.187z M186.237,25.669
		c-0.035,0-0.054,0.019-0.054,0.054L186.237,25.669z M186.4,25.128l-0.163,0.541c0-0.107,0.018-0.207,0.056-0.297
		C186.327,25.283,186.364,25.202,186.4,25.128z M186.888,22.637c0.036,0.108,0.008,0.208-0.08,0.298
		c-0.092,0.09-0.136,0.208-0.136,0.351c0-0.143,0.026-0.261,0.08-0.351C186.808,22.846,186.851,22.745,186.888,22.637z"/>
	<path fill="#FFFFFF" d="M215.752,21.555c-0.397,0.433-0.758,0.857-1.083,1.272s-0.633,0.894-0.92,1.435
		c0.216-0.144,0.359-0.27,0.433-0.378c-0.181,0.289-0.353,0.578-0.515,0.866c-0.162,0.289-0.334,0.524-0.514,0.704
		c0,0.073,0.018,0.108,0.055,0.108c0.035,0,0.017,0.037-0.055,0.107c-0.072,0.146-0.117,0.244-0.136,0.299
		c-0.02,0.054-0.027,0.1-0.027,0.135c0,0.037-0.009,0.091-0.027,0.163c-0.018,0.072-0.063,0.198-0.136,0.378
		c-0.072,0.182-0.161,0.361-0.27,0.542c-0.11,0.181-0.2,0.361-0.271,0.542c-0.108-0.036-0.153-0.063-0.136-0.081
		c0.019-0.018-0.01-0.045-0.081-0.082c-0.108,0.217-0.228,0.47-0.352,0.758c-0.127,0.29-0.261,0.506-0.405,0.649
		c-0.108-0.035-0.154-0.089-0.136-0.162c0.018-0.072,0.045-0.144,0.08-0.216c-0.071,0.181-0.181,0.397-0.324,0.649
		c-0.146,0.253-0.271,0.487-0.38,0.704c-0.072-0.072-0.063-0.18,0.027-0.325c0.09-0.144,0.1-0.271,0.027-0.379l-0.434,0.867
		l-0.649,0.866c-0.182,0.326-0.29,0.65-0.326,0.975c-0.036,0.325-0.127,0.633-0.271,0.921c0,0.037-0.026,0.073-0.08,0.109
		c-0.056,0.036-0.1,0.072-0.136,0.108v0.163c0,0.073-0.055,0.09-0.163,0.054c-0.108-0.035-0.162-0.017-0.162,0.055
		c-0.107,0.109-0.18,0.236-0.215,0.379c-0.037,0.144-0.092,0.289-0.164,0.433c0,0.072-0.027,0.127-0.08,0.162
		c-0.056,0.037-0.102,0.091-0.136,0.163c-0.146,0.181-0.263,0.388-0.353,0.623c-0.091,0.235-0.189,0.46-0.298,0.676
		c-0.073,0.29-0.217,0.506-0.433,0.65c-0.146,0.181-0.244,0.388-0.298,0.623c-0.056,0.235-0.119,0.425-0.19,0.568
		c-0.072,0.146-0.108,0.227-0.108,0.244c0,0.019,0.008,0.027,0.027,0.027c0.018,0,0.027,0.019,0.027,0.054
		c0,0.036-0.037,0.127-0.108,0.271c-0.325,0.542-0.615,1.092-0.866,1.651c-0.254,0.56-0.47,1.093-0.65,1.598
		c-0.181,0.433-0.425,0.939-0.732,1.518c-0.305,0.577-0.621,1.064-0.946,1.462c-0.072,0-0.244,0.117-0.515,0.351
		c-0.271,0.235-0.424,0.389-0.461,0.461c-0.18,0-0.271,0.009-0.271,0.027c0,0.018-0.035,0.062-0.108,0.136
		c-0.253,0.144-0.515,0.179-0.784,0.108c-0.271-0.074-0.551-0.074-0.841,0c-0.143,0.07-0.361,0-0.648-0.217
		c-0.291-0.218-0.525-0.36-0.704-0.435c-0.145-0.035-0.317-0.152-0.515-0.351c-0.199-0.198-0.318-0.334-0.353-0.407
		c-0.108-0.144-0.181-0.306-0.218-0.487c-0.035-0.18-0.091-0.361-0.162-0.54c-0.072-0.326-0.153-0.624-0.242-0.895
		c-0.092-0.271-0.155-0.604-0.19-1.001c-0.072-0.326-0.108-0.651-0.108-0.976c0-0.325-0.036-0.668-0.108-1.029
		c-0.036-0.722-0.008-1.381,0.082-1.978c0.09-0.595,0.17-1.199,0.244-1.813c0.072-0.325,0.143-0.667,0.216-1.029
		c0.071-0.361,0.107-0.739,0.107-1.137c0-0.072,0.009-0.126,0.027-0.163c0.018-0.036,0.027-0.09,0.027-0.162v-0.867
		c0-0.072-0.01-0.126-0.027-0.163c-0.019-0.035-0.027-0.072-0.027-0.108c-0.036-0.18-0.018-0.36,0.055-0.542
		c0.072-0.18,0.107-0.379,0.107-0.596c0.037-0.685,0.091-1.362,0.164-2.031c0.071-0.667,0.088-1.309,0.054-1.922
		c-0.471,0.181-0.875,0.442-1.218,0.785c-0.345,0.344-0.696,0.713-1.057,1.11c-0.289,0.361-0.605,0.713-0.948,1.056
		c-0.343,0.344-0.659,0.713-0.947,1.11c-0.289,0.398-0.578,0.794-0.866,1.191c-0.29,0.398-0.596,0.795-0.921,1.192
		c-0.288,0.397-0.533,0.813-0.731,1.246s-0.46,0.849-0.784,1.246c-0.037,0.253-0.074,0.389-0.108,0.406
		c-0.037,0.019-0.146,0.063-0.326,0.136c-0.289,0.107-0.532,0.262-0.732,0.46c-0.197,0.199-0.44,0.316-0.729,0.353
		c-0.29,0.18-0.669,0.361-1.138,0.541c-0.47,0.181-0.94,0.163-1.409-0.054c-0.107,0-0.207,0.036-0.296,0.108
		c-0.092,0.073-0.227,0.091-0.406,0.054c-0.291-0.035-0.525-0.216-0.705-0.542c-0.183-0.325-0.271-0.631-0.271-0.92
		c0-0.397,0.099-0.749,0.299-1.056c0.196-0.306,0.332-0.641,0.405-1.002c0.072-0.217,0.099-0.505,0.081-0.866
		c-0.02-0.36,0.008-0.686,0.081-0.975c0.035-0.758,0.054-1.524,0.054-2.301c0-0.776,0-1.525,0-2.248c0-0.18,0.009-0.343,0.027-0.487
		c0.018-0.144,0.009-0.271-0.027-0.379c0-0.108-0.054-0.252-0.162-0.433c0-0.18,0.019-0.379,0.054-0.596
		c0.037-0.216,0.055-0.415,0.055-0.596c0.035-0.217,0.054-0.415,0.054-0.596c0-0.18,0-0.36,0-0.542c0-0.396,0.045-0.803,0.136-1.218
		c0.091-0.415,0.063-0.785-0.08-1.11c-0.038-0.108-0.082-0.189-0.136-0.244c-0.055-0.054-0.101-0.116-0.136-0.189
		c-0.073-0.252-0.073-0.478,0-0.677c0.072-0.198,0.171-0.388,0.298-0.568c0.126-0.18,0.244-0.352,0.353-0.515
		c0.107-0.163,0.18-0.333,0.216-0.514c0.18,0,0.298-0.045,0.353-0.136c0.053-0.09,0.135-0.136,0.243-0.136
		c0.072,0,0.126,0.019,0.163,0.055c0.035,0.036,0.089,0.073,0.162,0.108c0.252,0.073,0.515,0.118,0.785,0.135
		c0.271,0.02,0.495,0.063,0.678,0.135c0.937,0.217,1.624,0.633,2.058,1.247c0.217,0.361,0.353,0.767,0.405,1.218
		c0.054,0.452,0.063,0.947,0.027,1.489c-0.145,1.445-0.235,3.005-0.271,4.684c-0.035,1.679-0.071,3.205-0.107,4.576
		c0.18,0,0.289-0.045,0.326-0.135c0.034-0.09,0.088-0.171,0.16-0.244c0.434-0.614,0.839-1.246,1.22-1.896
		c0.379-0.65,0.767-1.281,1.164-1.896c0.469-0.758,0.992-1.435,1.57-2.031c0.577-0.595,1.191-1.128,1.843-1.598
		c0.179-0.072,0.314-0.153,0.405-0.244c0.09-0.09,0.225-0.171,0.406-0.244c0.035,0,0.098-0.018,0.188-0.054
		c0.091-0.035,0.171-0.054,0.244-0.054c0.253-0.072,0.452-0.09,0.596-0.054c0.145,0.035,0.271,0.107,0.379,0.216
		c0.108,0.109,0.207,0.226,0.298,0.353c0.089,0.127,0.225,0.208,0.406,0.244c0.217,0.072,0.45,0.198,0.705,0.378
		c0.252,0.182,0.494,0.389,0.729,0.623c0.234,0.235,0.426,0.488,0.568,0.759c0.145,0.271,0.199,0.514,0.163,0.73
		c-0.036,0.362-0.063,0.714-0.08,1.056c-0.019,0.344-0.011,0.677,0.027,1.002c0.034,0.29,0.025,0.605-0.027,0.948
		c-0.055,0.343-0.063,0.676-0.027,1.002c0,0.325-0.01,0.649-0.027,0.974c-0.02,0.325-0.028,0.633-0.028,0.921
		c-0.071,0.325-0.116,0.649-0.135,0.975c-0.018,0.325-0.026,0.649-0.026,0.975c0,0.325-0.019,0.687-0.055,1.083
		c-0.035,0.398-0.072,0.794-0.107,1.191c-0.037,0.398-0.055,0.777-0.055,1.137c0,0.361,0.035,0.65,0.107,0.867
		c0.036,0.072,0.091,0.171,0.163,0.297c0.072,0.127,0.107,0.208,0.107,0.244c0,0.073,0.028,0.163,0.083,0.271
		c0.053,0.107,0.136,0.181,0.244,0.216c0.107,0.037,0.224,0,0.35-0.108c0.127-0.107,0.28-0.324,0.462-0.649
		c0.036-0.036,0.126-0.126,0.271-0.271s0.216-0.252,0.216-0.326c0.072-0.035,0.199-0.181,0.38-0.433
		c0.182-0.252,0.289-0.396,0.324-0.433c0.252-0.397,0.451-0.712,0.597-0.948c0.144-0.234,0.36-0.55,0.65-0.948
		c0.396-0.613,0.819-1.246,1.272-1.895c0.451-0.651,0.874-1.318,1.271-2.004l0.868-1.245c0.035-0.108,0.072-0.208,0.106-0.298
		c0.036-0.09,0.126-0.19,0.271-0.298c0.181-0.397,0.415-0.803,0.704-1.218c0.289-0.416,0.56-0.821,0.813-1.219
		c0.252-0.396,0.468-0.739,0.649-1.029c0.181-0.289,0.36-0.56,0.542-0.812c0.18-0.252,0.37-0.505,0.568-0.758
		c0.197-0.253,0.442-0.56,0.73-0.921l0.975-1.029c0.218-0.289,0.435-0.569,0.65-0.839c0.218-0.271,0.47-0.515,0.759-0.731
		c0.072-0.108,0.17-0.189,0.297-0.244c0.126-0.054,0.226-0.136,0.298-0.243H215.752z M208.008,32.548
		c0.072-0.036,0.127-0.117,0.164-0.244c0.035-0.126,0.088-0.244,0.162-0.353h-0.162c0,0.146-0.048,0.262-0.136,0.353
		C207.944,32.395,207.936,32.476,208.008,32.548z M209.903,28.919c-0.035,0.037-0.035,0.063,0,0.082
		c0.036,0.019,0.018,0.063-0.054,0.135c-0.289,0.398-0.568,0.821-0.839,1.273c-0.271,0.451-0.498,0.93-0.677,1.435
		c0.215-0.181,0.405-0.434,0.567-0.758c0.162-0.325,0.333-0.577,0.515-0.759c-0.108-0.035-0.127-0.062-0.054-0.081
		c0.071-0.018,0.107-0.063,0.107-0.135c0.218-0.397,0.47-0.786,0.759-1.165c0.288-0.379,0.559-0.803,0.813-1.272
		c0.072,0.036,0.108,0.036,0.108,0c0-0.036,0.017-0.036,0.055,0c0.143-0.217,0.296-0.415,0.46-0.596
		c0.162-0.18,0.297-0.397,0.405-0.649c-0.108,0.107-0.228,0.252-0.352,0.433c-0.127,0.181-0.261,0.325-0.405,0.433
		c0.034-0.216,0.152-0.441,0.352-0.677c0.197-0.234,0.369-0.46,0.514-0.677c0.218-0.217,0.37-0.397,0.461-0.542
		c0.089-0.144,0.163-0.28,0.216-0.407c0.056-0.125,0.108-0.251,0.163-0.378c0.055-0.126,0.153-0.298,0.298-0.515
		c-0.362,0.47-0.687,0.886-0.976,1.247s-0.569,0.722-0.84,1.083s-0.532,0.74-0.784,1.137
		C210.463,27.963,210.191,28.414,209.903,28.919z M208.549,33.089c0.252-0.18,0.379-0.36,0.379-0.541s0.055-0.415,0.163-0.704
		h-0.055c-0.072,0.181-0.188,0.397-0.353,0.649C208.521,32.747,208.477,32.946,208.549,33.089z M211.313,28.486
		c-0.074,0.072-0.091,0.108-0.056,0.108C211.293,28.559,211.313,28.523,211.313,28.486z M212.069,27.511
		c0.071-0.072,0.144-0.117,0.217-0.135c0.071-0.018,0.071-0.045,0-0.082c0,0.037-0.046,0.082-0.136,0.136
		S212.033,27.511,212.069,27.511z M212.178,27.241c0.071,0.035,0.127,0.018,0.162-0.055c0.036-0.072,0.018-0.108-0.054-0.108
		C212.286,27.151,212.249,27.205,212.178,27.241z M214.452,23.396c-0.145,0.217-0.235,0.379-0.271,0.488L214.452,23.396z"/>
	<path fill="#FFFFFF" d="M217.322,47.225c0.035,0.072,0.127,0.107,0.271,0.107c0.036-0.072,0.045-0.136,0.027-0.188
		c-0.019-0.055,0.009-0.101,0.08-0.136c0.11,0.071,0.127,0.162,0.056,0.271c-0.072,0.107-0.072,0.197,0,0.27l-0.056,0.109v0.053
		c-0.071-0.036-0.107-0.08-0.107-0.135c0-0.054-0.02-0.118-0.054-0.189c-0.182,0.071-0.209,0.171-0.082,0.298
		c0.127,0.126,0.191,0.226,0.191,0.298c0,0.036-0.02,0.07-0.056,0.108v0.054c0,0.035-0.02,0.035-0.054,0l0.109,0.325
		c0.035,0.071,0.071,0.081,0.107,0.027c0.036-0.055,0.089-0.064,0.163-0.027c-0.146,0.071-0.19,0.126-0.135,0.163
		c0.052,0.034,0.043,0.071-0.028,0.107c0.071,0.035,0.126,0.045,0.163,0.027c0.034-0.019,0.072,0.008,0.108,0.082
		c0.035,0.071,0.035,0.136,0,0.188c-0.036,0.055-0.036,0.136,0,0.244c-0.146-0.073-0.254-0.118-0.327-0.136
		c-0.071-0.018-0.179-0.026-0.323-0.026c0.216,0.072,0.323,0.198,0.323,0.379h-0.378c0.035,0.108,0.09,0.179,0.162,0.217
		c0.073,0.034,0.126,0.107,0.164,0.216c-0.038,0-0.056-0.019-0.056-0.055c0-0.035-0.02-0.054-0.054-0.054
		c-0.182,0.108-0.182,0.217,0,0.324c-0.108,0.073-0.182,0.073-0.217,0c-0.036-0.071-0.092-0.09-0.163-0.053
		c0,0.071,0.036,0.18,0.109,0.324c-0.182-0.036-0.471-0.046-0.866-0.026c-0.398,0.018-0.705,0.008-0.921-0.028
		c0,0.145,0.062,0.199,0.188,0.163c0.127-0.037,0.244-0.054,0.354-0.054c-0.109,0.072-0.227,0.108-0.354,0.108
		s-0.263,0.018-0.407,0.054c0,0.072,0.036,0.09,0.11,0.055c0.071-0.037,0.125-0.019,0.161,0.054
		c-0.036,0.035-0.08,0.045-0.136,0.027c-0.052-0.019-0.116-0.027-0.188-0.027v0.108c0,0.036,0.017,0.055,0.052,0.055
		c0,0.071-0.025,0.089-0.08,0.053c-0.054-0.035-0.081-0.035-0.081,0c0.034,0.036,0.09,0.046,0.161,0.028
		c0.073-0.02,0.145-0.01,0.219,0.027c-0.037,0.108-0.135,0.152-0.299,0.136c-0.163-0.02-0.262,0.026-0.297,0.136
		c-0.325,0.034-0.606,0.106-0.841,0.215c-0.235,0.108-0.55,0.181-0.947,0.217c0.036-0.073,0.027-0.09-0.026-0.054
		c-0.054,0.035-0.081,0.018-0.081-0.055c0-0.037-0.046-0.081-0.136-0.136c-0.091-0.053-0.155-0.117-0.189-0.188
		c-0.218-0.362-0.271-0.805-0.162-1.328s0.181-0.966,0.216-1.326c0.036-0.253,0.045-0.498,0.027-0.73
		c-0.019-0.237-0.047-0.48-0.081-0.732c-0.073-1.264-0.091-2.554-0.054-3.873c0.036-1.316,0.088-2.644,0.163-3.979l0.323-9.965
		c0.109-2.31,0.361-4.675,0.759-7.094c0.396-2.418,0.739-4.658,1.029-6.715c-1.3,0.325-2.519,0.596-3.656,0.812
		c-1.138,0.217-2.355,0.524-3.656,0.921c-0.179,0.037-0.37,0.037-0.568,0c-0.197-0.035-0.387-0.035-0.567,0
		c-0.109,0.037-0.253,0.1-0.434,0.189c-0.181,0.09-0.343,0.154-0.489,0.19c-0.144,0.036-0.26,0.036-0.35,0s-0.1-0.163-0.028-0.379
		c0.182-0.325,0.561-0.586,1.139-0.785c0.576-0.198,1.083-0.37,1.516-0.515c0.47-0.179,0.992-0.324,1.571-0.433
		c0.287-0.072,0.577-0.144,0.865-0.216c0.289-0.072,0.614-0.126,0.975-0.163c0.181-0.072,0.371-0.125,0.568-0.162
		c0.199-0.035,0.425-0.072,0.677-0.108c0.435-0.072,0.857-0.18,1.274-0.325c0.415-0.144,0.874-0.217,1.38-0.217
		c0.034-0.325,0.09-0.604,0.161-0.839c0.073-0.234,0.136-0.469,0.191-0.704c0.054-0.234,0.116-0.488,0.189-0.758
		c0.072-0.271,0.126-0.604,0.162-1.002v-0.704c0.071-0.686,0.163-1.39,0.271-2.112c0.109-0.722,0.181-1.389,0.218-2.004
		c0-0.251-0.027-0.487-0.082-0.704c-0.053-0.216-0.063-0.432-0.026-0.649c0.035-0.433,0.226-0.793,0.567-1.083
		c0.342-0.288,0.749-0.433,1.219-0.433c0.325,0,0.712,0.063,1.166,0.19c0.45,0.126,0.783,0.262,0.999,0.406
		c0.327,0.181,0.614,0.425,0.868,0.731c0.252,0.307,0.344,0.713,0.271,1.219c0,0.252-0.063,0.47-0.19,0.65
		c-0.127,0.181-0.226,0.361-0.298,0.542c-0.072,0.253-0.117,0.533-0.136,0.839c-0.018,0.307-0.063,0.605-0.136,0.894
		c-0.072,0.831-0.188,1.688-0.352,2.572c-0.163,0.885-0.316,1.743-0.46,2.573c0.396,0.036,0.812-0.008,1.245-0.136
		c0.434-0.126,0.867-0.225,1.301-0.298c1.19-0.251,2.337-0.45,3.438-0.595c1.103-0.144,2.266-0.271,3.494-0.379
		c0.504-0.072,0.992-0.126,1.463-0.162c0.468-0.036,0.937,0.018,1.406,0.162c0.072,0.073,0.171,0.154,0.298,0.244
		c0.128,0.09,0.28,0.117,0.463,0.082c0.071,0.072,0.206,0.108,0.404,0.108c0.197,0,0.352,0,0.46,0
		c-0.072,0.181-0.199,0.271-0.379,0.271c-0.181,0-0.344,0.019-0.485,0.054c-2.276,0.361-4.523,0.668-6.743,0.921
		c-2.221,0.252-4.415,0.632-6.58,1.137c-0.073,0.722-0.1,1.454-0.081,2.193c0.017,0.741,0.008,1.473-0.027,2.194
		c-0.107,1.047-0.263,2.077-0.462,3.087c-0.199,1.011-0.334,2.04-0.406,3.087c-0.036,0.361-0.045,0.731-0.026,1.11
		c0.019,0.379,0.026,0.767,0.026,1.164c0,2.275-0.153,4.433-0.458,6.472c-0.309,2.04-0.589,4.017-0.841,5.93
		c0.036,0.036,0.045,0.081,0.027,0.135c-0.019,0.055-0.011,0.101,0.027,0.136c-0.073,0.036-0.09,0.063-0.055,0.081
		c0.036,0.02,0.017,0.027-0.055,0.027c0.071,0.182,0.082,0.353,0.027,0.515c-0.054,0.161-0.027,0.315,0.082,0.46
		c-0.254,0.072-0.271,0.235-0.055,0.487c0.072-0.18,0.072-0.288,0-0.324c0.072-0.071,0.126-0.145,0.163-0.218
		c0.035-0.071,0.125-0.144,0.271-0.217c-0.075,0-0.091-0.018-0.056-0.053c0.036-0.036,0.056-0.072,0.056-0.109
		c0.071,0.037,0.088,0.1,0.052,0.189c-0.035,0.092-0.052,0.172-0.052,0.244c0,0.29-0.02,0.633-0.056,1.03
		c-0.035,0.396-0.108,0.686-0.216,0.865c0.107,0.036,0.145,0.063,0.107,0.081c-0.035,0.02-0.019,0.063,0.055,0.136v0.054h-0.162
		c0,0.073,0.054,0.109,0.162,0.109c-0.073,0.181-0.127,0.397-0.162,0.648c-0.037,0.253-0.055,0.451-0.055,0.596l0.055,0.108
		c0,0.073-0.011,0.127-0.027,0.163c-0.02,0.036-0.027,0.071-0.027,0.109c-0.036,0.18-0.036,0.387,0,0.621
		c0.035,0.234,0.035,0.442,0,0.623c0.035,0.036,0.072,0.055,0.108,0.055C217.466,47.17,217.431,47.188,217.322,47.225z"/>
	<path fill="#FFFFFF" d="M249.653,21.988c-0.073,0.216-0.209,0.469-0.407,0.757c-0.197,0.291-0.333,0.578-0.405,0.867
		c0.107,0,0.171-0.045,0.19-0.136c0.018-0.09,0.099-0.135,0.242-0.135c0.18-0.181,0.307-0.388,0.38-0.623
		c0.071-0.234,0.179-0.423,0.325-0.569c-0.29,0.687-0.588,1.427-0.895,2.22c-0.307,0.795-0.623,1.553-0.948,2.274
		c0.072-0.035,0.108-0.089,0.108-0.163c0-0.071,0.036-0.107,0.109-0.107c0.035-0.181,0.107-0.307,0.217-0.38
		c0.107-0.072,0.162-0.162,0.162-0.271v-0.054l0.055,0.054c-0.253,0.687-0.615,1.391-1.084,2.113
		c-0.217,0.073-0.379,0.226-0.486,0.46c-0.108,0.235-0.2,0.443-0.271,0.623c0.036,0.037,0.127-0.053,0.271-0.27
		c-0.182,0.433-0.3,0.74-0.352,0.92c-0.056,0.181-0.092,0.325-0.11,0.433c-0.017,0.109-0.072,0.244-0.161,0.407
		c-0.092,0.162-0.244,0.459-0.461,0.894c-0.289,0.505-0.497,0.866-0.621,1.083c-0.128,0.217-0.236,0.407-0.327,0.569
		c-0.091,0.162-0.198,0.361-0.324,0.595c-0.127,0.235-0.298,0.623-0.516,1.164c-0.072,0.181-0.099,0.335-0.08,0.461
		c0.018,0.127-0.027,0.244-0.135,0.352c-0.073,0.216-0.146,0.416-0.217,0.596c-0.074,0.181-0.146,0.379-0.218,0.596
		c-0.071,0.217-0.162,0.452-0.271,0.704c-0.107,0.253-0.253,0.523-0.435,0.813c-0.179,0.253-0.334,0.479-0.458,0.677
		c-0.127,0.199-0.281,0.425-0.461,0.677c-0.182,0.073-0.343,0.172-0.487,0.298c-0.146,0.127-0.29,0.244-0.434,0.353
		c-0.073,0.145-0.17,0.271-0.298,0.379c-0.127,0.108-0.262,0.217-0.406,0.325c-0.181,0.108-0.379,0.226-0.596,0.352
		c-0.217,0.127-0.433,0.209-0.65,0.243c-0.18,0-0.388-0.034-0.622-0.107c-0.235-0.072-0.425-0.144-0.569-0.216
		c-0.252-0.181-0.459-0.397-0.621-0.651c-0.164-0.252-0.282-0.522-0.354-0.812c-0.071-0.324-0.154-0.623-0.243-0.894
		c-0.091-0.27-0.155-0.568-0.189-0.893c-0.037-0.505-0.037-1.037,0-1.598c0.034-0.56,0.09-1.091,0.161-1.598v-1.516
		c0.072-0.36,0.145-0.848,0.219-1.462c0.071-0.505,0.116-1.029,0.135-1.57c0.017-0.542,0.062-1.083,0.136-1.625
		c0.181-0.976,0.343-1.95,0.486-2.925c0.144-0.974,0.234-1.966,0.271-2.978c-0.145,0.217-0.235,0.479-0.271,0.785
		c-0.035,0.308-0.127,0.605-0.271,0.894c-0.108,0.29-0.252,0.596-0.434,0.921c-0.071,0.145-0.127,0.271-0.162,0.378
		c-0.037,0.109-0.109,0.236-0.217,0.38c-0.108,0.289-0.207,0.605-0.298,0.948s-0.208,0.659-0.352,0.948
		c-0.217,0.289-0.406,0.55-0.569,0.785c-0.163,0.234-0.298,0.514-0.406,0.839c-0.325,0.614-0.56,1.191-0.704,1.733l-0.813,1.732
		c-0.144,0.29-0.271,0.578-0.379,0.866c-0.107,0.29-0.253,0.579-0.433,0.867c-0.289,0.542-0.613,1.066-0.975,1.571
		c-0.434,0.65-0.974,1.102-1.625,1.354c-0.289,0.145-0.642,0.235-1.056,0.271c-0.415,0.036-0.841,0.045-1.271,0.027
		c-0.435-0.018-0.841-0.09-1.22-0.217c-0.379-0.126-0.66-0.279-0.839-0.46c-0.47-0.396-0.714-0.993-0.732-1.787
		c-0.019-0.794-0.026-1.606-0.026-2.437c0.035-0.722,0.089-1.408,0.162-2.057c0.071-0.65,0.144-1.354,0.218-2.113
		c0.035-0.36,0.08-0.73,0.136-1.11c0.052-0.379,0.098-0.749,0.135-1.11c0.034-0.361,0.044-0.705,0.026-1.03
		c-0.018-0.324-0.026-0.649-0.026-0.974c-0.037-0.505-0.047-1.011-0.027-1.516c0.017-0.506,0.027-1.047,0.027-1.625
		c0-0.18-0.027-0.326-0.083-0.434c-0.052-0.107-0.08-0.234-0.08-0.378c0-0.469,0.163-0.813,0.487-1.029
		c0.325-0.217,0.685-0.325,1.082-0.325c0.218,0.036,0.462,0.135,0.732,0.298s0.478,0.352,0.622,0.568
		c0.181,0.325,0.244,0.768,0.189,1.327c-0.055,0.561-0.118,1.075-0.189,1.544c0,0.289,0.027,0.533,0.082,0.731
		c0.053,0.199,0.081,0.406,0.081,0.623c0,0.29-0.028,0.569-0.081,0.839c-0.055,0.271-0.101,0.497-0.136,0.677
		c-0.073,0.362-0.126,0.741-0.162,1.138c-0.036,0.398-0.074,0.794-0.108,1.191c0,0.47-0.011,0.885-0.027,1.246
		c-0.019,0.361-0.026,0.723-0.026,1.083c0,0.578,0.106,1.156,0.324,1.733c0.035,0.47,0.181,0.975,0.434,1.516
		c0.181-0.251,0.36-0.514,0.542-0.785c0.181-0.27,0.36-0.55,0.54-0.839c0.506-0.867,1.047-1.724,1.625-2.572
		c0.577-0.848,1.119-1.688,1.624-2.519c0.725-1.155,1.427-2.329,2.113-3.521c0.687-1.191,1.462-2.255,2.329-3.194
		c0.181-0.072,0.323-0.172,0.433-0.299c0.109-0.125,0.252-0.225,0.433-0.297c0.832,0,1.354,0.289,1.571,0.867
		c0.181,0.325,0.244,0.75,0.189,1.272c-0.054,0.523-0.081,1.075-0.081,1.651v0.921c-0.035,0.361-0.1,0.696-0.19,1.002
		c-0.091,0.307-0.172,0.623-0.243,0.947c-0.107,0.398-0.19,0.785-0.242,1.165c-0.056,0.38-0.155,0.713-0.299,1.002
		c-0.072,0.434-0.108,0.84-0.108,1.218c0,0.38-0.019,0.768-0.055,1.165c-0.036,0.289-0.081,0.568-0.135,0.839
		c-0.054,0.27-0.081,0.551-0.081,0.839v1.788c0,0.325-0.01,0.631-0.027,0.92c-0.019,0.29,0.008,0.578,0.081,0.867
		c0.181,1.12,0.452,2.094,0.812,2.924c0.182,0,0.333-0.072,0.46-0.217c0.128-0.144,0.244-0.289,0.354-0.433
		c0.396-0.469,0.738-0.948,1.028-1.436c0.288-0.487,0.578-1.038,0.867-1.652l2.274-4.332c0.359-0.722,0.587-1.165,0.678-1.327
		c0.089-0.162,0.162-0.271,0.216-0.325c0.056-0.054,0.127-0.163,0.217-0.326c0.091-0.162,0.315-0.604,0.677-1.326
		c0-0.072,0.026-0.09,0.081-0.054c0.055,0.036,0.08,0.036,0.08,0c0.398-0.831,0.769-1.66,1.11-2.491
		c0.344-0.831,0.713-1.625,1.111-2.383c0.036,0,0.072,0.054,0.108,0.163c0.107-0.181,0.234-0.37,0.378-0.569
		C249.362,22.359,249.509,22.168,249.653,21.988z M246.621,29.624c0-0.072,0.034-0.126,0.108-0.163
		c0.071-0.035,0.053-0.09-0.056-0.162c0,0.072-0.019,0.127-0.053,0.162C246.583,29.498,246.583,29.552,246.621,29.624z
		 M247.434,28.215c0-0.036,0.053-0.109,0.161-0.217L247.434,28.215z M247.595,27.999c0.071-0.072,0.108-0.126,0.108-0.162
		L247.595,27.999z M248.028,27.187c0.036-0.072,0.071-0.135,0.107-0.189s0.02-0.082-0.053-0.082c0,0.037-0.011,0.073-0.027,0.108
		C248.036,27.061,248.028,27.115,248.028,27.187z M248.841,25.669c-0.036,0-0.054,0.019-0.054,0.054L248.841,25.669z
		 M249.004,25.128l-0.163,0.541c0-0.107,0.018-0.207,0.055-0.297C248.931,25.283,248.968,25.202,249.004,25.128z M249.489,22.637
		c0.036,0.108,0.009,0.208-0.08,0.298c-0.092,0.09-0.136,0.208-0.136,0.351c0-0.143,0.028-0.261,0.08-0.351
		C249.409,22.846,249.453,22.745,249.489,22.637z"/>
</g>
</svg>
