<?xml version="1.0" encoding="utf-8"?>
<!-- Generator: Adobe Illustrator 25.0.0, SVG Export Plug-In . SVG Version: 6.00 Build 0)  -->
<svg version="1.1"
	 id="svg2" xmlns:cc="http://creativecommons.org/ns#" xmlns:dc="http://purl.org/dc/elements/1.1/" xmlns:rdf="http://www.w3.org/1999/02/22-rdf-syntax-ns#" xmlns:svg="http://www.w3.org/2000/svg"
	 xmlns="http://www.w3.org/2000/svg" xmlns:xlink="http://www.w3.org/1999/xlink" x="0px" y="0px" viewBox="0 0 360.5 444"
	 style="enable-background:new 0 0 360.5 444;" xml:space="preserve">
<style type="text/css">
	.st0{fill:#9E1D20;}
</style>
<g id="g10" transform="matrix(1.3333333,0,0,-1.3333333,0,793.70667)">
	<g id="g12">
		<g>
			<g id="g14">
				<g id="g20" transform="translate(482.834,338.5923)">
					<path id="path22" class="st0" d="M-282,147.8c0-25.8-20.9-46.6-46.6-46.6c-25.7,0-46.6,20.9-46.6,46.6s20.9,46.6,46.6,46.6
						C-302.9,194.4-282,173.5-282,147.8"/>
				</g>
				<g id="g24" transform="translate(541.4551,195.7412)">
					<path id="path26" d="M-282,147.8h-248.7v241.5c0,0,113-3.2,179.9-74.2C-280.4,240.4-282,147.8-282,147.8 M-344.4,322.4
						c-78.4,81.2-197.2,77.5-197.2,77.5V137.1H-271C-271,137.1-265,240.1-344.4,322.4"/>
				</g>
				<g id="g28" transform="translate(289.5454,146.544)">
					<path id="path30" d="M-282,147.8c0-1.7,0.3-3.3,0.8-4.9c0.5-1.6,1.3-3,2.2-4.2c1-1.2,2.2-2.2,3.6-2.9c1.4-0.7,3-1.1,4.9-1.1
						c1.9,0,3.5,0.4,4.9,1.1c1.4,0.8,2.6,1.8,3.6,3c1,1.3,1.7,2.7,2.2,4.2c0.5,1.6,0.7,3.2,0.7,4.8c0,1.7-0.3,3.3-0.8,4.9
						c-0.5,1.6-1.3,3-2.3,4.2c-1,1.2-2.2,2.2-3.6,2.9c-1.4,0.7-3,1.1-4.8,1.1c-1.9,0-3.5-0.4-4.9-1.1c-1.4-0.8-2.6-1.8-3.6-3
						c-1-1.2-1.7-2.6-2.2-4.2C-281.8,151-282,149.4-282,147.8 M-270.6,127.8c-2.9,0-5.5,0.6-7.9,1.7c-2.4,1.1-4.4,2.6-6,4.5
						c-1.7,1.9-3,4-3.9,6.4c-0.9,2.4-1.4,4.9-1.4,7.4c0,2.6,0.5,5.1,1.5,7.5c1,2.4,2.3,4.5,4.1,6.4c1.7,1.8,3.8,3.3,6.1,4.4
						c2.4,1.1,4.9,1.6,7.7,1.6c2.8,0,5.4-0.6,7.8-1.7c2.3-1.2,4.4-2.7,6-4.6c1.7-1.9,3-4,3.9-6.4c0.9-2.4,1.4-4.8,1.4-7.3
						c0-2.6-0.5-5.1-1.4-7.5s-2.3-4.5-4-6.3c-1.7-1.8-3.7-3.3-6.1-4.4C-265.2,128.3-267.8,127.8-270.6,127.8"/>
				</g>
				<g id="g32" transform="translate(326.1191,126.8418)">
					<path id="path34" d="M-282,147.8v39.4h7.7v-18.7l16.5,18.8h8.4l-15.1-17.5l16-21.9h-8.6l-12.3,17l-5-5.3v-11.8H-282z"/>
				</g>
				<g id="g36" transform="translate(366.5234,146.544)">
					<path id="path38" d="M-282,147.8c0-1.7,0.3-3.3,0.8-4.9c0.5-1.6,1.3-3,2.2-4.2c1-1.2,2.2-2.2,3.6-2.9c1.4-0.7,3-1.1,4.9-1.1
						c1.9,0,3.5,0.4,4.9,1.1c1.4,0.8,2.6,1.8,3.6,3c1,1.3,1.7,2.7,2.2,4.2c0.5,1.6,0.7,3.2,0.7,4.8c0,1.7-0.3,3.3-0.8,4.9
						c-0.5,1.6-1.3,3-2.3,4.2c-1,1.2-2.2,2.2-3.6,2.9c-1.4,0.7-3,1.1-4.8,1.1c-1.9,0-3.5-0.4-4.9-1.1c-1.4-0.8-2.6-1.8-3.6-3
						c-1-1.2-1.7-2.6-2.2-4.2C-281.8,151-282,149.4-282,147.8 M-270.6,127.8c-2.9,0-5.5,0.6-7.9,1.7c-2.4,1.1-4.4,2.6-6,4.5
						c-1.7,1.9-3,4-3.9,6.4c-0.9,2.4-1.4,4.9-1.4,7.4c0,2.6,0.5,5.1,1.5,7.5c1,2.4,2.3,4.5,4.1,6.4c1.7,1.8,3.8,3.3,6.1,4.4
						c2.4,1.1,4.9,1.6,7.7,1.6c2.8,0,5.4-0.6,7.8-1.7c2.3-1.2,4.4-2.7,6-4.6c1.7-1.9,3-4,3.9-6.4c0.9-2.4,1.4-4.8,1.4-7.3
						c0-2.6-0.5-5.1-1.4-7.5s-2.3-4.5-4-6.3c-1.7-1.8-3.7-3.3-6.1-4.4C-265.2,128.3-267.8,127.8-270.6,127.8"/>
				</g>
				<path id="path40" d="M119.1,282.6h6.1v-8h-6.1V282.6z"/>
				<g id="g42" transform="translate(428.6836,132.6143)">
					<path id="path44" d="M-282,147.8c1.1,0,2.1,0.2,3.1,0.7c0.9,0.5,1.7,1.1,2.4,1.9c0.7,0.8,1.2,1.8,1.6,2.8
						c0.4,1.1,0.6,2.2,0.6,3.3c0,1.2-0.2,2.4-0.6,3.4c-0.4,1.1-1,2-1.7,2.7c-0.7,0.8-1.6,1.4-2.6,1.8c-1,0.4-2,0.7-3.2,0.7
						c-0.7,0-1.4-0.1-2.2-0.4c-0.7-0.2-1.4-0.6-2.1-1c-0.6-0.4-1.2-1-1.7-1.6c-0.5-0.6-0.9-1.2-1.1-1.9v-6.8c0.7-1.7,1.7-3,3.1-4.1
						C-285.1,148.3-283.6,147.8-282,147.8 M-279.5,141.4c-2.3,0-4.3,0.5-6,1.5c-1.7,1-3,2.4-4,4.1v-16.9h-7.4v40.9h6.5v-5
						c1.1,1.7,2.5,3,4.2,4c1.7,1,3.7,1.5,5.9,1.5c2,0,3.8-0.4,5.4-1.2c1.7-0.8,3.1-1.9,4.3-3.2c1.2-1.4,2.1-2.9,2.8-4.8
						c0.7-1.8,1-3.8,1-5.8c0-2.1-0.3-4.1-0.9-5.9c-0.6-1.9-1.5-3.5-2.6-4.8c-1.1-1.4-2.5-2.4-4-3.2
						C-276,141.8-277.7,141.4-279.5,141.4"/>
				</g>
				<g id="g46" transform="translate(466.2559,149.4854)">
					<path id="path48" d="M-282,147.8c-2.3,0-4.3-0.5-6.1-1.3c-1.8-0.8-3.1-2.1-3.8-3.7v-17.6h-7.4v29.1h6.8V148
						c0.5,1,1.1,1.9,1.8,2.7c0.7,0.8,1.5,1.5,2.3,2.1c0.8,0.6,1.6,1,2.5,1.4c0.8,0.3,1.6,0.5,2.4,0.5h0.9c0.2,0,0.4,0,0.6-0.1V147.8
						z"/>
				</g>
				<g id="g50" transform="translate(490.0098,143.8252)">
					<path id="path52" d="M-282,147.8c-0.2,2.2-1,3.9-2.4,5.2c-1.4,1.3-3.2,2-5.2,2c-1,0-1.9-0.2-2.8-0.5c-0.9-0.4-1.6-0.8-2.3-1.5
						c-0.7-0.6-1.2-1.4-1.6-2.3c-0.4-0.9-0.7-1.9-0.8-2.9H-282z M-289.5,130.2c-2.3,0-4.4,0.4-6.3,1.2c-1.9,0.8-3.5,1.9-4.8,3.2
						s-2.4,3-3.1,4.8c-0.7,1.8-1.1,3.7-1.1,5.7c0,2.1,0.4,4,1.1,5.9c0.7,1.8,1.7,3.4,3.1,4.8c1.3,1.4,2.9,2.5,4.9,3.3
						c1.9,0.8,4,1.2,6.4,1.2c2.4,0,4.5-0.4,6.4-1.2c1.9-0.8,3.5-1.9,4.8-3.3c1.3-1.4,2.3-3,3-4.8c0.7-1.8,1-3.7,1-5.7
						c0-0.5,0-0.9,0-1.4c0-0.4-0.1-0.8-0.1-1.1H-297c0.1-1.1,0.4-2.2,0.8-3.1c0.4-0.9,1-1.6,1.7-2.3s1.5-1.1,2.4-1.4
						c0.9-0.3,1.8-0.5,2.8-0.5c1.5,0,2.9,0.4,4.2,1.1c1.3,0.7,2.2,1.7,2.7,2.9l6.4-1.8c-1.1-2.2-2.8-4-5.1-5.5
						C-283.5,130.9-286.3,130.2-289.5,130.2"/>
				</g>
				<g id="g54" transform="translate(513.209,126.2871)">
					<path id="path56" d="M-282,147.8c-2.4,0-4.8,0.4-7.2,1.2c-2.3,0.8-4.3,1.9-6,3.3l2.8,4.7c1.8-1.3,3.5-2.2,5.2-2.9
						c1.7-0.6,3.4-1,5-1c1.5,0,2.6,0.3,3.5,0.8c0.9,0.6,1.3,1.4,1.3,2.4c0,1-0.5,1.8-1.5,2.3c-1,0.5-2.6,1-4.9,1.7
						c-1.9,0.5-3.5,1-4.8,1.5c-1.3,0.5-2.4,1-3.2,1.6s-1.4,1.3-1.8,2.1c-0.4,0.8-0.6,1.7-0.6,2.9c0,1.5,0.3,2.8,0.9,4
						c0.6,1.2,1.4,2.2,2.4,3c1,0.8,2.2,1.5,3.6,1.9c1.4,0.4,2.9,0.7,4.5,0.7c2.2,0,4.2-0.3,6.1-0.9c1.9-0.6,3.7-1.6,5.2-3.1l-3-4.5
						c-1.5,1.1-2.9,1.9-4.3,2.4c-1.4,0.5-2.8,0.8-4.1,0.8c-1.3,0-2.3-0.3-3.2-0.8c-0.9-0.5-1.3-1.4-1.3-2.5c0-0.5,0.1-0.9,0.3-1.3
						c0.2-0.3,0.5-0.6,1-0.9c0.4-0.3,1-0.5,1.7-0.8c0.7-0.2,1.6-0.5,2.7-0.7c2-0.5,3.7-1,5.1-1.6c1.4-0.5,2.6-1.1,3.5-1.8
						c0.9-0.7,1.6-1.4,2-2.3c0.4-0.9,0.6-1.9,0.6-3.1c0-2.8-1.1-5.1-3.2-6.7C-275.5,148.6-278.4,147.8-282,147.8"/>
				</g>
				<g id="g58" transform="translate(540.792,126.2871)">
					<path id="path60" d="M-282,147.8c-2.4,0-4.8,0.4-7.2,1.2c-2.3,0.8-4.3,1.9-6,3.3l2.8,4.7c1.8-1.3,3.5-2.2,5.2-2.9
						c1.7-0.6,3.4-1,5-1c1.5,0,2.6,0.3,3.5,0.8c0.9,0.6,1.3,1.4,1.3,2.4c0,1-0.5,1.8-1.5,2.3c-1,0.5-2.6,1-4.9,1.7
						c-1.9,0.5-3.5,1-4.8,1.5c-1.3,0.5-2.4,1-3.2,1.6c-0.8,0.6-1.4,1.3-1.8,2.1c-0.4,0.8-0.6,1.7-0.6,2.9c0,1.5,0.3,2.8,0.9,4
						c0.6,1.2,1.4,2.2,2.4,3c1,0.8,2.2,1.5,3.6,1.9c1.4,0.4,2.9,0.7,4.5,0.7c2.2,0,4.2-0.3,6.1-0.9c1.9-0.6,3.7-1.6,5.2-3.1l-3-4.5
						c-1.5,1.1-2.9,1.9-4.3,2.4c-1.4,0.5-2.8,0.8-4.1,0.8c-1.3,0-2.3-0.3-3.2-0.8c-0.9-0.5-1.3-1.4-1.3-2.5c0-0.5,0.1-0.9,0.3-1.3
						c0.2-0.3,0.5-0.6,1-0.9c0.4-0.3,1-0.5,1.7-0.8c0.7-0.2,1.6-0.5,2.7-0.7c2-0.5,3.7-1,5.1-1.6c1.4-0.5,2.6-1.1,3.5-1.8
						c0.9-0.7,1.6-1.4,2-2.3c0.4-0.9,0.6-1.9,0.6-3.1c0-2.8-1.1-5.1-3.2-6.7C-275.5,148.6-278.4,147.8-282,147.8"/>
				</g>
			</g>
		</g>
	</g>
</g>
</svg>
