<?xml version="1.0" encoding="utf-8"?>
<!-- Generator: Adobe Illustrator 16.0.0, SVG Export Plug-In . SVG Version: 6.00 Build 0)  -->
<!DOCTYPE svg PUBLIC "-//W3C//DTD SVG 1.1//EN" "http://www.w3.org/Graphics/SVG/1.1/DTD/svg11.dtd">
<svg version="1.1" id="Layer_1" xmlns="http://www.w3.org/2000/svg" xmlns:xlink="http://www.w3.org/1999/xlink" x="0px" y="0px"
	 width="269.29px" height="86.666px" viewBox="0 0 269.29 86.666" enable-background="new 0 0 269.29 86.666" xml:space="preserve">
<g>
	<g>
		<path fill="#FFFFFF" d="M69.322,44.02l7.838,9.433c1.276,1.562,2.766,2.13,4.858,2.446v1.349h-6.844l-8.688-11.136
			c-1.241-1.632-1.952-1.809-4.151-1.809v7.378c0,3.508,0.604,4.218,4.894,4.218v1.348H54.71v-1.348
			c3.333-0.104,3.901-0.71,3.901-4.043V35.329c0-3.297-0.497-3.9-3.546-4.041V29.94h11.134c6.49,0,10.25,2.553,10.25,6.845
			C76.451,40.542,74.288,43.168,69.322,44.02z M62.336,42.529h2.519c4.682,0,6.986-1.632,6.986-5.568
			c0-3.795-1.773-5.355-5.64-5.355H62.94c-0.39,0-0.604,0.249-0.604,0.604V42.529L62.336,42.529z"/>
		<path fill="#FFFFFF" d="M97.48,44.125c0-3.865-0.214-4.15-2.944-4.433v-1.24h6.418v10.885c0,2.696,0.072,4.363,0.214,5.215
			c0.212,1.206,0.708,1.418,2.871,1.418v1.245l-5.852,0.423l-0.391-4.256h-0.141c-1.808,2.908-4.22,4.22-6.774,4.22
			c-1.986,0-4.042-0.815-5-2.093c-0.781-1.03-1.135-2.837-1.135-5.745v-5.639c0-3.865-0.213-4.183-2.943-4.433v-1.24h6.42v9.681
			c0,5.108,1.17,7.344,3.793,7.344c2.022,0,3.688-1.351,4.859-4.08c0.46-1.101,0.603-1.774,0.603-3.795v-3.477H97.48z"/>
		<path fill="#FFFFFF" d="M112.23,51.716c0,3.579,0.426,4.183,3.156,4.291v1.24H105.6v-1.24c2.802-0.145,3.333-0.78,3.333-4.043
			V36.679c0-2.552-0.07-4.363-0.213-4.965c-0.248-1.099-0.921-1.382-3.192-1.382v-1.205l6.702-1.313L112.23,51.716L112.23,51.716z"
			/>
		<path fill="#FFFFFF" d="M134.856,53.951c-2.057,2.479-4.468,3.65-7.482,3.65c-5.533,0-9.292-3.866-9.292-9.54
			c0-5.815,4.007-9.965,9.717-9.965c4.539,0,7.2,2.589,7.2,7.201c0,0.636-0.142,0.709-1.099,0.709h-11.667
			c-0.107,0.389-0.142,0.959-0.142,1.596c0,4.932,2.482,8.158,6.277,8.158c1.951,0,3.617-0.852,5.39-2.803L134.856,53.951z
			 M129.004,44.374c1.916,0,2.128-0.142,2.128-0.993c0-2.164-1.526-3.583-3.901-3.583c-2.517,0-4.15,1.561-4.751,4.575H129.004
			L129.004,44.374z"/>
		<path fill="#FFFFFF" d="M168.331,47.708c0,5.744-4.574,9.894-9.963,9.894c-5.323,0-9.825-4.113-9.825-9.894
			c0-5.604,4.502-9.612,9.825-9.612C163.756,38.096,168.331,42.139,168.331,47.708z M152.552,47.743
			c0,4.896,2.269,8.052,5.815,8.052c3.616,0,5.956-3.193,5.956-8.052c0-4.717-2.374-7.945-5.956-7.945
			C154.854,39.798,152.552,42.99,152.552,47.743z"/>
		<path fill="#FFFFFF" d="M170.815,39.018h4.007v-2.552c0-5.426,2.979-8.653,8.263-8.653c2.906,0,4.964,0.992,4.964,2.412
			c0,0.957-0.673,1.665-1.559,1.665c-0.568,0-1.137-0.319-2.165-1.17c-1.172-0.993-1.668-1.206-2.554-1.206
			c-1.418,0-2.445,0.745-3.052,2.164c-0.425,0.921-0.565,2.198-0.565,4.575v2.767h5.711v1.666h-5.711v10.851
			c0,3.511,0.711,4.4,3.688,4.471v1.24h-10.07v-1.24c2.694-0.145,3.05-0.603,3.05-4.186V40.685h-4.007V39.018z"/>
		<path fill="#FFFFFF" d="M219.327,57.247h-22.911v-1.349c3.335-0.104,3.901-0.71,3.901-4.043V35.329c0-3.297-0.497-3.9-3.549-4.041
			V29.94h10.784v1.348c-3.049,0.106-3.513,0.709-3.513,4.29v15.284c0,3.973,1.421,4.79,6.313,4.79c5.428,0,7.131-0.992,8.156-5.392
			h1.349L219.327,57.247z"/>
		<path fill="#FFFFFF" d="M232.977,45.227v-1.456c0-2.943-1.172-4.327-3.69-4.327c-1.629,0-2.088,0.461-2.693,2.306
			c-0.532,1.347-0.922,1.702-1.846,1.702c-1.133,0-1.771-0.64-1.771-1.774c0-2.271,2.518-3.582,6.95-3.582
			c4.752,0,6.523,1.49,6.523,5.533v7.945c0,2.729,0.532,4.041,1.596,4.041c0.638,0,1.312-0.071,1.738-0.779l0.499,0.854
			c-0.569,1.098-2.272,1.913-3.939,1.913c-2.057,0-3.085-1.382-3.085-3.795h-0.178c-1.241,2.306-3.544,3.76-6.171,3.76
			c-2.941,0-4.787-1.668-4.787-4.185c0-2.27,1.453-4.079,5.743-5.922L232.977,45.227z M232.977,46.751
			c-5.426,2.058-7.27,3.937-7.27,6.027c0,1.561,1.137,2.659,2.836,2.659c2.447,0,4.434-2.659,4.434-5.887V46.751z"/>
		<path fill="#FFFFFF" d="M249.395,57.602h-1.312l-4.609-14.752c-0.817-2.625-1.453-3.157-3.512-3.157v-1.24h9.4v1.24
			c-1.848,0-2.52,0.391-2.52,1.419c0,0.462,0.139,1.1,0.388,2.022l2.414,8.475h0.141l5.213-13.157h1.102l4.714,13.157h0.142
			l2.13-5.747c1.169-3.155,1.452-4.077,1.452-4.893c0-1.027-0.46-1.276-2.375-1.276v-1.24h7.093v1.24
			c-1.385,0-1.88,0.639-3.369,4.327l-5.495,13.583h-1.313l-4.327-13.088h-0.143L249.395,57.602z"/>
	</g>
	<path fill="#FFFFFF" d="M40.084,49.196c-1.065,4.965-2.767,6.099-8.228,6.099c-4.929,0-6.417-0.816-6.417-4.789V35.649
		c0-3.58,0.496-4.185,3.688-4.292v-1.419h-0.366h-8.548h-3.722c-6.809,0-10.746,2.553-10.746,6.845c0,3.936,2.164,6.703,7.128,7.588
		l-8.227,9.435c-1.134,1.312-2.801,2.021-4.397,2.021v1.418h8.405l8.795-10.78c1.17-1.42,2.021-1.811,2.765-1.811v6.953
		c0,3.509-0.637,4.22-5.141,4.22v1.418h1.429h12.649h11.785l0.566-8.052h-1.418V49.196z M17.909,42.529
		c-4.433,0-6.632-1.632-6.632-5.568c0-3.014,1.951-5.036,5.213-5.036h3.084c0.39,0,0.638,0.249,0.638,0.604v10H17.909z"/>
</g>
</svg>
