<?xml version="1.0" encoding="UTF-8"?>
<svg width="123px" height="19px" viewBox="0 0 123 19" version="1.1" xmlns="http://www.w3.org/2000/svg" xmlns:xlink="http://www.w3.org/1999/xlink">
    <!-- Generator: sketchtool 51.2 (57519) - http://www.bohemiancoding.com/sketch -->
    <title>12EB22A7-5A68-4D10-AB89-B0FE7FE07635</title>
    <desc>Created with sketchtool.</desc>
    <defs></defs>
    <g id="Page-1" stroke="none" stroke-width="1" fill="none" fill-rule="evenodd">
        <g id="Mobile" transform="translate(-99.000000, -76.000000)" fill="#FFFFFF">
            <path d="M110.108446,91.6870644 L103.271978,91.6870644 L103.271978,86.3854696 L110.108446,86.3854696 C111.520867,86.3854696 112.666426,87.5705848 112.666426,89.0317779 C112.666426,90.4974601 111.520867,91.6803308 110.108446,91.6870644 Z M103.271978,79.3129356 L109.678861,79.3129356 C110.856964,79.3129356 111.813766,80.3027761 111.813766,81.5238039 C111.813766,82.7425871 110.856964,83.7301831 109.678861,83.7301831 L103.271978,83.7301831 L103.271978,79.3129356 Z M114.009419,84.7828706 C114.764446,83.9187242 115.228745,82.7740106 115.228745,81.5238039 C115.228745,78.8348494 113.126385,76.6598937 110.529352,76.6598937 L99,76.6598937 L99,77.7013585 L99.85266,78.067218 L99.85266,92.932782 L99,93.2986415 L99,94.3378618 L110.958936,94.3378618 C113.788118,94.3378618 116.081405,91.9631424 116.081405,89.0317779 C116.081405,87.2900177 115.265628,85.7480213 114.009419,84.7828706 Z M181.853383,77.7013585 L182.578036,78.00886 L181.436816,89.8263438 L177.15616,82.951329 L172.877672,89.8263438 L171.734283,78.00886 L172.458936,77.7013585 L172.458936,76.6598937 L167.334298,76.6598937 L167.334298,77.7013585 L168.330152,78.1278204 L169.76644,92.9866509 L169.043957,93.2986415 L169.043957,94.3378618 L174.164256,94.3378618 L174.164256,93.2986415 L173.849661,93.1594802 L177.15616,87.8444182 L180.462658,93.1594802 L180.145894,93.2986415 L180.145894,94.3378618 L185.272702,94.3378618 L185.272702,93.2986415 L184.548049,92.9866509 L185.984336,78.1278204 L186.980191,77.7013585 L186.980191,76.6598937 L181.853383,76.6598937 L181.853383,77.7013585 Z M192.961829,77.7013585 L193.814489,78.067218 L193.814489,92.932782 L192.961829,93.2986415 L192.961829,94.3378618 L198.086467,94.3378618 L198.086467,93.2986415 L197.229468,92.932782 L197.229468,78.067218 L198.086467,77.7013585 L198.086467,76.6598937 L192.961829,76.6598937 L192.961829,77.7013585 Z M222,77.7013585 L222,76.6598937 L217.730191,76.6598937 L216.875362,76.6598937 L216.875362,77.7013585 L217.730191,78.067218 L217.730191,80.6888364 L208.333574,76.6598937 L208.331405,76.6598937 L204.063766,76.6598937 L204.063766,77.7013585 L204.918595,78.067218 L204.918595,92.932782 L204.063766,93.2986415 L204.063766,94.3378618 L209.190574,94.3378618 L209.190574,93.2986415 L208.333574,92.932782 L208.333574,79.5329002 L217.730191,83.5573538 L217.730191,92.932782 L216.875362,93.2986415 L216.875362,94.3378618 L222,94.3378618 L222,93.2986415 L221.14734,92.932782 L221.14734,78.067218 L222,77.7013585 Z M147.688404,85.4988777 C147.688404,81.9614885 150.365713,79.0929711 153.667872,79.0929711 C156.970031,79.0929711 159.64517,81.9614885 159.64517,85.4988777 C159.64517,89.0385115 156.970031,91.9047844 153.667872,91.9047844 C150.365713,91.9047844 147.688404,89.0385115 147.688404,85.4988777 Z M153.667872,76 C148.478145,76 144.271255,80.2511518 144.271255,85.4988777 C144.271255,90.7466037 148.478145,95 153.667872,95 C158.857599,95 163.062319,90.7466037 163.062319,85.4988777 C163.062319,80.2511518 158.857599,76 153.667872,76 Z M126.332851,84.6190195 L126.332851,79.3129356 L133.171488,79.3129356 C134.58391,79.3151802 135.731638,80.5002953 135.731638,81.963733 C135.731638,83.4294152 134.58174,84.6190195 133.167149,84.6190195 L126.332851,84.6190195 Z M135.916055,86.8882457 C137.807962,86.1071471 139.146617,84.1992912 139.146617,81.963733 C139.146617,79.0346131 136.851161,76.6598937 134.019809,76.6598937 L122.063042,76.6598937 L122.063042,77.7013585 L122.913533,78.0694625 L122.913533,92.932782 L122.063042,93.2986415 L122.063042,94.3378618 L127.187681,94.3378618 L127.187681,93.2986415 L126.332851,92.932782 L126.332851,87.2653278 L132.30798,87.2653278 L134.898504,92.9215594 L134.019809,93.2986415 L134.019809,94.3378618 L139.999277,94.3378618 L139.999277,93.2986415 L138.569498,92.685883 L135.916055,86.8882457 Z" id="browin_mobile_logo"></path>
        </g>
    </g>
</svg>