<?xml version="1.0" encoding="UTF-8"?>
<svg width="204px" height="75px" viewBox="0 0 204 75" version="1.1" xmlns="http://www.w3.org/2000/svg" xmlns:xlink="http://www.w3.org/1999/xlink">
    <!-- Generator: sketchtool 51.2 (57519) - http://www.bohemiancoding.com/sketch -->
    <title>C20B6A9C-CE7A-4578-BA2A-33B12DD7CC53</title>
    <desc>Created with sketchtool.</desc>
    <defs></defs>
    <g id="Page-1" stroke="none" stroke-width="1" fill="none" fill-rule="evenodd">
        <g id="Home-v4" transform="translate(-375.000000, -4771.000000)" fill="#942940">
            <g id="Group-25" transform="translate(0.000000, 4393.000000)">
                <g id="browin_logo_stopka" transform="translate(375.000000, 378.000000)">
                    <path d="M74.5217975,72.1174719 L74.0958728,71.0362921 C74.5772787,70.8879775 74.9195548,70.4750562 74.9784502,69.9466854 C75.0877054,68.9801124 74.5678895,68.4787079 73.3746176,68.3464045 C72.8530946,68.2891011 72.1437891,68.2250562 71.5095967,68.1753371 C71.4814293,68.2891011 71.4592368,68.4382584 71.4455799,68.5545506 C71.4327766,68.6716854 71.4216803,68.8242135 71.424241,68.9346067 L71.8672368,69.0542697 L71.5317891,72.0155056 L71.0717222,72.0357303 C71.0461155,72.1435955 71.0222159,72.2927528 71.008559,72.4090449 C70.9957556,72.5253371 70.9846594,72.6778652 70.9863665,72.7958427 L72.777128,72.9938764 C72.8044418,72.878427 72.829195,72.7292697 72.8419983,72.6121348 C72.8548017,72.495 72.8650444,72.3433146 72.8641908,72.2320787 L72.5313038,72.1267416 L72.6379983,71.1879775 L73.1168435,71.2402247 L73.60081,72.5565169 C73.7723749,73.0275843 73.9917389,73.1969663 74.3741322,73.2399438 C74.755672,73.281236 75.0177138,73.1362921 75.0586845,72.7806742 L75.0970946,72.4309551 L74.8965088,72.4082022 C74.7018979,72.3871348 74.6028854,72.3273034 74.5217975,72.1174719 Z M73.1663498,70.4961236 L72.7216469,70.4472472 L72.8744335,69.0972472 C73.0203916,69.1056742 73.229513,69.1292697 73.3404753,69.1410674 C73.7979816,69.1916292 73.9925925,69.4073596 73.9405255,69.8598876 C73.8824837,70.3739326 73.5965423,70.5433146 73.1663498,70.4961236 Z M79.2402577,68.8958427 C78.0358895,68.7913483 77.1498979,69.5169101 77.0065004,71.1163483 C76.8596887,72.7520225 77.5800904,73.5559551 78.8194544,73.6646629 C80.0084586,73.7683146 80.8995715,73.0638202 81.0438226,71.4559551 C81.1906343,69.8152247 80.4855967,69.0053933 79.2402577,68.8958427 Z M79.9649272,71.361573 C79.8616469,72.5152247 79.5347347,72.8742135 78.8945674,72.8194382 C78.2689105,72.7646629 77.982969,72.3517416 78.0862494,71.1980899 C78.1912368,70.0225281 78.5300987,69.6862921 79.1642912,69.7410674 C79.7626343,69.7933146 80.0707682,70.1725281 79.9649272,71.361573 Z M87.238082,69.550618 C87.245764,69.6685955 87.2414962,69.8202809 87.2338142,69.9374157 C87.2252787,70.0537079 87.2099146,70.206236 87.1877222,70.3149438 L86.7865506,70.3579213 L85.6752201,71.4753371 L86.512559,73.1051124 C86.6235213,73.3267416 86.7122912,73.3612921 86.9086092,73.3739326 L87.1032201,73.3857303 L87.0793205,73.7362921 C87.0562745,74.0952809 86.8078895,74.2511798 86.4169607,74.2258989 C86.0268854,74.2014607 85.8280067,74.0362921 85.6052285,73.5862921 L84.9257975,72.2076404 L84.3709858,72.7663483 L84.343672,73.1860112 L84.6799732,73.2778652 C84.6876552,73.3882584 84.6833874,73.5399438 84.6757054,73.6570787 C84.6680234,73.7750562 84.6518059,73.9250562 84.6304669,74.042191 L82.8166594,73.9250562 C82.8106845,73.806236 82.8132452,73.6545506 82.8209272,73.5374157 C82.8294628,73.4202809 82.8448268,73.2702809 82.8670192,73.1598876 L83.3245255,73.1202809 L83.5216971,70.1464045 L83.0735799,70.047809 C83.0667515,69.9374157 83.0701657,69.7848876 83.0778477,69.6685955 C83.0855297,69.5514607 83.1034544,69.400618 83.1247933,69.2834831 L84.9095799,69.3997753 C84.9155548,69.5177528 84.9121406,69.6694382 84.9044586,69.786573 C84.8967766,69.9037079 84.880559,70.0553933 84.8583665,70.1641011 L84.53999,70.2121348 L84.4409774,71.7129775 L84.4964586,71.717191 C84.7064335,71.4188764 84.9181155,71.1635393 85.1374795,70.928427 L85.7400904,70.2905056 L85.4165925,70.2003371 C85.4106176,70.0891011 85.4131782,69.9374157 85.4217138,69.8202809 C85.4293958,69.7023034 85.4456134,69.5523034 85.4678059,69.4351685 L87.238082,69.550618 Z M95.5431866,70.7017416 L93.2343163,73.6166292 L94.5325757,73.6570787 L94.6000067,73.300618 C94.7195046,73.2905056 94.9363079,73.2905056 95.0617808,73.2955618 C95.1804251,73.2980899 95.3758895,73.311573 95.4868519,73.3292697 L95.4475883,74.5343258 L92.111036,74.4298315 L92.0811615,73.6157865 L94.3977138,70.7000562 L93.2163916,70.6629775 L93.1498142,71.0135393 C93.0311699,71.0236517 92.8152201,71.0236517 92.6888937,71.0202809 C92.5702494,71.0160674 92.3816134,71.003427 92.262969,70.9857303 L92.3022326,69.786573 L95.519287,69.8868539 L95.5431866,70.7017416 Z M101.251772,73.797809 C100.902668,72.5101685 100.519421,71.2486517 100.093496,69.9593258 L98.8848603,69.9407865 C98.4102828,71.2149438 97.9843582,72.4621348 97.5934293,73.7388202 L97.3680904,73.7969663 C97.3527264,73.9073596 97.3433372,74.0582022 97.3407766,74.1753371 C97.3390695,74.2924719 97.3433372,74.445 97.355287,74.5621348 L98.835354,74.5857303 C98.8515715,74.4685955 98.8609607,74.3177528 98.8635213,74.1997753 C98.866082,74.0834831 98.8609607,73.9309551 98.8481573,73.8205618 L98.5357556,73.7539888 L98.6970778,73.2399438 L100.108007,73.2618539 L100.253111,73.7817978 L99.938149,73.8382584 C99.9227849,73.947809 99.9133958,74.0994944 99.9116887,74.2174719 C99.909128,74.333764 99.9133958,74.4854494 99.9253456,74.603427 L101.461747,74.6278652 C101.477111,74.511573 101.4865,74.3607303 101.488208,74.2427528 C101.489915,74.125618 101.485647,73.9730899 101.473697,73.8635393 L101.251772,73.797809 Z M98.9266845,72.4916292 L99.3099314,71.2773034 C99.3543163,71.1264607 99.3995548,70.9469663 99.4080904,70.8315169 L99.478082,70.8323596 C99.4832033,70.9486517 99.5224669,71.1289888 99.560877,71.2815169 L99.9040067,72.5076404 L98.9266845,72.4916292 Z M106.850249,73.311573 L106.869881,74.5596067 L103.560643,74.6126966 C103.545279,74.4955618 103.53589,74.3438764 103.534182,74.2267416 C103.531622,74.1096067 103.53589,73.958764 103.547839,73.8483708 L104.001078,73.7716854 L103.98486,72.8067978 L103.65112,72.9222472 L103.638316,72.081236 L103.971203,71.9649438 L103.951572,70.7935955 L103.496626,70.731236 C103.481262,70.6208427 103.471873,70.4691573 103.470166,70.3520225 C103.467605,70.2357303 103.472726,70.0832022 103.483823,69.9677528 L105.438467,69.9348876 C105.454685,70.0511798 105.46322,70.2037079 105.466634,70.3208427 C105.468341,70.4371348 105.46322,70.5896629 105.45127,70.7000562 L104.984375,70.7767416 L104.998032,71.5899438 L105.469195,71.4180337 C105.47517,71.7205618 105.458952,72.0239326 105.387254,72.2944382 L105.012542,72.4317978 L105.034735,73.761573 L105.920726,73.7472472 L105.962551,73.3267416 C106.081195,73.3098876 106.297145,73.2997753 106.416643,73.2972472 C106.542115,73.2955618 106.729898,73.2997753 106.850249,73.311573 Z M109.983655,74.0514607 C109.993898,74.3969663 109.766852,74.5604494 109.467254,74.5705618 C109.159973,74.5764607 108.932074,74.425618 108.922685,74.0809551 C108.913295,73.7430337 109.145463,73.5576404 109.445061,73.5492135 C109.745513,73.5407865 109.97512,73.7135393 109.983655,74.0514607 Z M118.156459,73.2466854 C118.170115,73.5020225 118.169262,73.8669101 118.135973,74.1180337 L115.220224,74.2773034 C115.191203,74.1416292 115.175839,73.9899438 115.169011,73.8525843 C115.160475,73.7084831 115.157915,73.5635393 115.170718,73.4101685 L116.348626,73.3452809 L116.187304,70.4674719 L115.141697,70.6570787 C115.080241,70.4455618 115.020492,70.1169101 115.005982,69.87 L116.220592,69.5683146 L117.099756,69.5194382 L117.312291,73.2930337 L118.156459,73.2466854 Z M121.140492,69.1789888 C120.235722,69.2455618 119.686885,69.861573 119.765413,70.8930337 C119.842233,71.8899438 120.414969,72.2354494 121.083304,72.1848876 C121.396559,72.1604494 121.655187,72.0525843 121.838701,71.7964045 L121.887354,71.7930337 C121.941128,72.7705618 121.702132,73.1278652 121.255722,73.161573 C121.158417,73.1683146 121.059404,73.161573 121.009898,73.1523034 L120.916007,72.8480899 C120.797362,72.8413483 120.643722,72.8472472 120.518249,72.8556742 C120.400459,72.8641011 120.218651,72.8851685 120.101714,72.9079213 L120.17768,73.8913483 C120.462768,73.967191 120.85199,74.0000562 121.205362,73.9730899 C122.348274,73.8888202 122.963689,73.0545506 122.823705,71.211573 C122.701647,69.6163483 122.10245,69.1073596 121.140492,69.1789888 Z M121.31291,71.4340449 C120.972341,71.4601685 120.737613,71.3244944 120.696643,70.7961236 C120.655672,70.245 120.818701,69.9980899 121.216459,69.9685955 C121.569831,69.9424719 121.774685,70.1346067 121.815655,70.6781461 C121.853212,71.1795506 121.675672,71.4079213 121.31291,71.4340449 Z M127.494367,68.7053933 L127.576308,69.5632584 C127.14953,70.7523034 126.518751,72.2994944 125.946869,73.5778652 C125.666902,73.583764 125.287069,73.5711236 125.007103,73.506236 L126.588743,69.6483708 L125.475705,69.7520225 L125.452659,70.1691573 C125.32804,70.1944382 125.176961,70.2155056 125.052341,70.2273034 C124.934551,70.2382584 124.752743,70.2483708 124.632392,70.245 L124.512894,68.9826404 L127.494367,68.7053933 Z M143.7145,68.9388202 C143.743521,69.1292697 143.610367,69.306236 143.415756,69.3340449 C141.531956,69.6104494 139.614015,69.87 137.716559,70.1093258 C137.702049,70.1110112 137.685831,70.1110112 137.671321,70.1110112 C137.495488,70.1110112 137.344408,69.983764 137.321362,69.8067978 C137.296609,69.6155056 137.433178,69.4410674 137.626936,69.4157865 C139.520124,69.1789888 141.432944,68.9185955 143.313329,68.6438764 C143.507086,68.6177528 143.685479,68.7483708 143.7145,68.9388202 Z M66.391672,69.8059551 C66.3686259,69.9820787 66.2166929,70.1110112 66.0408603,70.1110112 C66.0263498,70.1110112 66.0109858,70.1110112 65.9956218,70.1084831 C64.0810946,69.8683146 62.1452285,69.6053933 60.2443582,69.3264607 C60.0506008,69.2986517 59.917446,69.1208427 59.9464669,68.9303933 C59.9754879,68.7391011 60.1564418,68.6093258 60.3484921,68.6354494 C62.244241,68.914382 64.1749858,69.175618 66.0852452,69.4157865 C66.2790025,69.439382 66.4155715,69.6155056 66.391672,69.8059551 Z M130.518517,68.2073596 C129.617162,68.3135393 129.096492,68.9531461 129.221965,69.9795506 C129.344023,70.9722472 129.93127,71.2924719 130.597044,71.2124157 C130.909446,71.1744944 131.161245,71.0548315 131.333664,70.7910674 L131.382316,70.7851685 C131.479622,71.7601685 131.257697,72.1275843 130.812994,72.1806742 C130.715689,72.1907865 130.61753,72.1891011 130.56717,72.1815169 L130.460475,71.8815169 C130.340977,71.8815169 130.187337,71.8924719 130.061864,71.9076404 C129.944927,71.9211236 129.764827,71.9489326 129.648743,71.9775843 L129.768241,72.9576404 C130.056743,73.02 130.446818,73.0360112 130.799337,72.9938764 C131.937128,72.8590449 132.514132,71.9986517 132.291354,70.1641011 C132.09845,68.5747753 131.477061,68.0935955 130.518517,68.2073596 Z M130.792509,70.4523034 C130.453647,70.4935955 130.21209,70.3680337 130.14722,69.8413483 C130.081496,69.2935955 130.234283,69.0399438 130.629479,68.9927528 C130.981145,68.950618 131.194534,69.1334831 131.260258,69.6744944 C131.32086,70.1742135 131.153563,70.4101685 130.792509,70.4523034 Z" id="Fill-1"></path>
                    <path d="M61.1258259,41.4755056 C64.2575247,40.2401124 66.4750644,37.2266292 66.4750644,33.6932022 C66.4750644,29.0659551 62.675031,25.313427 57.9881523,25.313427 L38.1864954,25.313427 L38.1864954,26.9566854 L39.5999849,27.5381461 L39.5999849,51.0241011 L38.1864954,51.6038764 L38.1864954,53.243764 L46.6717004,53.243764 L46.6717004,51.6038764 L45.2573573,51.0241011 L45.2573573,42.0729775 L55.1526377,42.0729775 L59.4409054,51.0089326 L57.9881523,51.6038764 L57.9881523,53.243764 L67.888554,53.243764 L67.888554,51.6038764 L65.5207883,50.6373034 L61.1258259,41.4755056 Z M42.9228803,49.868764 C42.9228803,50.1409551 42.7001021,50.3592135 42.4286711,50.3592135 C42.1546795,50.3592135 41.9353155,50.1409551 41.9353155,49.868764 L41.9353155,28.6917978 C41.9353155,28.4263483 42.1546795,28.2038764 42.4286711,28.2038764 C42.7001021,28.2038764 42.9228803,28.4263483 42.9228803,28.6917978 L42.9228803,49.868764 Z M45.2573573,37.8864607 L45.2573573,29.5058427 L56.5814912,29.5058427 C58.9193824,29.5092135 60.8176921,31.3825281 60.8176921,33.6932022 C60.8176921,36.010618 58.9176753,37.8864607 56.5738092,37.8864607 L45.2573573,37.8864607 Z M62.3916502,50.6373034 C62.1449724,50.749382 61.8496418,50.6482584 61.7301439,50.4038764 L56.8307297,40.1887079 L56.8588971,39.7151124 L57.2814075,39.488427 C60.5198008,39.4850562 63.1393657,36.8946067 63.1470477,33.696573 C63.1470477,31.8097753 62.2388636,30.1403933 60.831349,29.0760674 C60.6119849,28.9167978 60.5701607,28.6075281 60.73319,28.3926404 C60.8987799,28.1819663 61.2094745,28.1381461 61.4296921,28.3007865 C63.0762025,29.5344944 64.1405874,31.4962921 64.1405874,33.696573 C64.1405874,37.182809 61.4570059,40.0201685 58.0274159,40.3951685 L62.6238176,49.9825281 C62.7424619,50.2269101 62.6391816,50.5201685 62.3916502,50.6373034 Z M90.5188971,24.2693258 C81.9252904,24.2693258 74.9594159,30.9889888 74.9594159,39.2811236 C74.9594159,47.571573 81.9252904,54.2920787 90.5188971,54.2920787 C99.1090895,54.2920787 106.074964,47.571573 106.074964,39.2811236 C106.074964,30.9889888 99.1090895,24.2693258 90.5188971,24.2693258 Z M84.0830812,50.1350562 C83.9345623,50.3617416 83.6289891,50.4291573 83.3985289,50.2791573 C79.7273824,47.9651124 77.2938929,43.905 77.2938929,39.2811236 C77.2938929,34.6614607 79.7273824,30.5979775 83.3985289,28.2788764 C83.6289891,28.1314045 83.9345623,28.2013483 84.0830812,28.4280337 C84.2290393,28.6530337 84.1607548,28.9547191 83.9320017,29.1013483 C80.5322862,31.2527528 78.2823113,35.007809 78.2823113,39.2811236 C78.2823113,43.5594944 80.5339933,47.3111798 83.9320017,49.4592135 C84.1607548,49.6058427 84.2290393,49.9075281 84.0830812,50.1350562 Z M80.6176418,39.2811236 C80.6176418,33.6906742 85.0484536,29.1544382 90.5188971,29.1544382 C95.9859264,29.1544382 100.415885,33.6906742 100.415885,39.2811236 C100.415885,44.8749438 95.9859264,49.4027528 90.5188971,49.4027528 C85.0484536,49.4027528 80.6176418,44.8749438 80.6176418,39.2811236 Z M97.6332904,50.2791573 C97.4028301,50.4291573 97.0964033,50.3617416 96.9504452,50.1350562 C96.8027799,49.9075281 96.8693573,49.6058427 97.0998176,49.4592135 C100.498679,47.3111798 102.751215,43.5594944 102.751215,39.2811236 C102.751215,35.007809 100.498679,31.2527528 97.0998176,29.1013483 C96.871918,28.9547191 96.804487,28.6530337 96.9538594,28.4280337 C97.0964033,28.2013483 97.4028301,28.1314045 97.6349975,28.2788764 C101.303583,30.5979775 103.73878,34.6614607 103.73878,39.2811236 C103.73878,43.905 101.303583,47.9651124 97.6332904,50.2791573 Z M203.661223,26.9566854 L203.661223,25.313427 L196.589508,25.313427 L195.174311,25.313427 L195.174311,26.9566854 L196.589508,27.535618 L196.589508,31.6791573 L181.031734,25.313427 L181.02832,25.313427 L173.960872,25.313427 L173.960872,26.9566854 L175.376922,27.535618 L175.376922,51.0241011 L173.960872,51.6038764 L173.960872,53.243764 L182.447784,53.243764 L182.447784,51.6038764 L181.031734,51.0241011 L181.031734,29.8530337 L196.589508,36.2128652 L196.589508,51.0241011 L195.174311,51.6038764 L195.174311,53.243764 L203.661223,53.243764 L203.661223,51.6038764 L202.24688,51.0241011 L202.24688,27.535618 L203.661223,26.9566854 Z M178.697257,49.8670787 C178.697257,50.1350562 178.475332,50.3541573 178.199633,50.3541573 C177.927349,50.3541573 177.706278,50.1350562 177.706278,49.8670787 L177.706278,28.6917978 C177.706278,28.4263483 177.927349,28.2038764 178.199633,28.2038764 C178.475332,28.2038764 178.697257,28.4263483 178.697257,28.6917978 L178.697257,49.8670787 Z M199.912403,49.8670787 C199.912403,50.1350562 199.689625,50.3541573 199.417341,50.3541573 C199.142495,50.3541573 198.923131,50.1350562 198.923131,49.8670787 L198.923131,28.6917978 C198.923131,28.4263483 199.142495,28.2038764 199.417341,28.2038764 C199.689625,28.2038764 199.912403,28.4263483 199.912403,28.6917978 L199.912403,49.8670787 Z M155.576119,26.9566854 L156.989608,27.535618 L156.989608,51.0241011 L155.576119,51.6038764 L155.576119,53.243764 L164.062177,53.243764 L164.062177,51.6038764 L162.647834,51.0241011 L162.647834,27.535618 L164.062177,26.9566854 L164.062177,25.313427 L155.576119,25.313427 L155.576119,26.9566854 Z M159.320671,28.6917978 C159.320671,28.4263483 159.543449,28.2038764 159.818295,28.2038764 C160.090579,28.2038764 160.312504,28.4263483 160.312504,28.6917978 L160.312504,49.8670787 C160.312504,50.1350562 160.090579,50.3541573 159.818295,50.3541573 C159.543449,50.3541573 159.320671,50.1350562 159.320671,49.8670787 L159.320671,28.6917978 Z M137.187098,26.9566854 L138.388052,27.4471348 L136.495717,46.1170787 L129.410345,35.2547191 L122.323265,46.1170787 L120.432638,27.4471348 L121.633592,26.9566854 L121.633592,25.313427 L113.145826,25.313427 L113.145826,26.9566854 L114.79319,27.6325281 L117.174613,51.1108989 L115.975366,51.6038764 L115.975366,53.243764 L124.456303,53.243764 L124.456303,51.6038764 L123.933073,51.3847753 L129.410345,42.9873034 L134.884203,51.3847753 L134.358412,51.6038764 L134.358412,53.243764 L142.84447,53.243764 L142.84447,51.6038764 L141.646077,51.1108989 L144.024085,27.6325281 L145.67401,26.9566854 L145.67401,25.313427 L137.187098,25.313427 L137.187098,26.9566854 Z M119.923918,50.3592135 C119.651633,50.3878652 119.410931,50.1915169 119.382763,49.9184831 L117.237776,28.7415169 C117.210462,28.4726966 117.408487,28.2342135 117.681625,28.2064045 C117.95391,28.1819663 118.193759,28.3783146 118.221073,28.6471348 L120.366914,49.8249438 C120.392521,50.0920787 120.196203,50.3288764 119.923918,50.3592135 Z M140.596203,28.6471348 C140.621809,28.3783146 140.865926,28.1819663 141.138211,28.2064045 C141.411349,28.2342135 141.609374,28.4726966 141.580353,28.7415169 L139.439633,49.9184831 C139.409759,50.1915169 139.165642,50.3878652 138.893357,50.3592135 C138.623633,50.3288764 138.423901,50.0920787 138.449508,49.8249438 L140.596203,28.6471348 Z M24.8539431,38.1468539 C26.1035498,36.7833708 26.8734577,34.9766292 26.8734577,32.9971348 C26.8734577,28.7524719 23.3900937,25.313427 19.0924368,25.313427 L8.53556485e-05,25.313427 L8.53556485e-05,26.9566854 L1.41528201,27.535618 L1.41528201,51.0241011 L8.53556485e-05,51.6038764 L8.53556485e-05,53.243764 L19.8008887,53.243764 C24.4869138,53.243764 28.2843866,49.4929213 28.2843866,44.8639888 C28.2843866,42.1100562 26.9349138,39.6738202 24.8539431,38.1468539 Z M7.07265439,29.5058427 L17.6815079,29.5058427 C19.6344452,29.5058427 21.2177925,31.0690449 21.2177925,32.9971348 C21.2177925,34.924382 19.6344452,36.4867416 17.6815079,36.4867416 L7.07265439,36.4867416 L7.07265439,29.5058427 Z M4.73817741,49.8670787 C4.73817741,50.1350562 4.51966695,50.3541573 4.2439682,50.3541573 C3.97339079,50.3541573 3.749759,50.1350562 3.749759,49.8670787 L3.749759,28.6917978 C3.749759,28.4263483 3.97339079,28.2038764 4.2439682,28.2038764 C4.51966695,28.2038764 4.73817741,28.4263483 4.73817741,28.6917978 L4.73817741,49.8670787 Z M18.3942276,49.0572472 L7.07265439,49.0572472 L7.07265439,40.68 L18.3925205,40.68 C20.7355331,40.68 22.6295749,42.5533146 22.6295749,44.8639888 C22.6295749,47.1755056 20.7355331,49.0488202 18.3942276,49.0572472 Z M23.2449891,50.2589326 C23.0247715,50.4224157 22.7174912,50.3785955 22.548487,50.166236 C22.3863113,49.952191 22.4238678,49.6479775 22.6423782,49.4811236 C24.0550142,48.4218539 24.9631983,46.7516292 24.9631983,44.8639888 C24.958077,41.663427 22.3342444,39.077191 19.0924368,39.0704494 L18.3891063,39.0704494 L18.0382946,38.9288764 L17.8923364,38.5816854 L18.0382946,38.2353371 L18.3891063,38.091236 C21.2382778,38.0878652 23.5420268,35.8108989 23.5505623,32.9971348 C23.5505623,31.4128652 22.8207715,30.0055618 21.678713,29.0659551 C21.4644703,28.8906742 21.4371565,28.5830899 21.611282,28.3783146 C21.784554,28.1701685 22.0995163,28.1432022 22.3069305,28.3151124 C23.6674996,29.4257865 24.5372736,31.1137079 24.5372736,32.9971348 C24.5372736,35.3819663 23.1323197,37.4288764 21.1000017,38.4241011 C23.9047883,39.274382 25.955031,41.8218539 25.955031,44.8639888 C25.955031,47.0710112 24.8889389,49.0252247 23.2449891,50.2589326 Z" id="Fill-3"></path>
                    <path d="M101.57638,11.1581461 L102.133752,11.1581461 L102.133752,13.2101124 L101.57638,13.2101124 L101.57638,11.1581461 Z M101.6293,8.26432584 C101.625033,7.63314607 101.80684,7.31882022 101.835008,7.2741573 C101.837568,7.27078652 101.838422,7.26825843 101.838422,7.26825843 L101.838422,7.2741573 L101.839275,7.2741573 L101.838422,7.26825843 C101.838422,7.26825843 102.052664,7.58089888 102.047543,8.26432584 C102.04669,8.41685393 102.04669,8.56769663 102.04669,8.71011236 C102.293367,8.16910112 102.627108,7.66938202 103.046204,7.25561798 C102.995844,7.05505618 102.894271,6.80477528 102.742338,6.60505618 C102.539192,6.25533708 102.235326,5.90477528 101.829886,5.60393258 C101.424447,5.90477528 101.119727,6.25533708 100.917434,6.60505618 C100.815861,6.80477528 100.715141,7.05505618 100.663928,7.25561798 C101.042907,7.66685393 101.394572,8.16320225 101.631861,8.7008427 C101.631008,8.56095506 101.630154,8.41348315 101.6293,8.26432584 Z M101.838422,4.20421348 L101.838422,4.19831461 C101.84269,4.20674157 101.973284,4.47893258 101.988648,5.05786517 C102.13802,5.15814607 102.288246,5.30561798 102.438472,5.40421348 C102.589551,5.20449438 102.792698,4.95337079 102.945485,4.75365169 C102.742338,4.15280899 102.387259,3.55280899 101.829886,3.05224719 C101.322874,3.55280899 100.917434,4.15280899 100.765501,4.75365169 C100.917434,4.95337079 101.119727,5.20449438 101.272514,5.40421348 C101.366405,5.31067416 101.505535,5.1741573 101.689049,5.0755618 C101.700999,4.52359551 101.817083,4.24634831 101.835861,4.20421348 C101.837568,4.2008427 101.838422,4.19831461 101.838422,4.19831461 L101.838422,4.20421348 Z M101.838422,1.92893258 L101.838422,1.92303371 C101.840982,1.92808989 101.917803,2.09662921 101.95792,2.44719101 L102.033033,2.50196629 C102.083392,2.55252809 102.133752,2.60224719 102.184112,2.65196629 C102.387259,2.40168539 102.640765,2.10168539 102.894271,1.85140449 C102.691125,1.2008427 102.336899,0.550280899 101.829886,0 C101.322874,0.550280899 100.968648,1.2008427 100.815861,1.85140449 C101.069367,2.10168539 101.322874,2.40168539 101.525167,2.65196629 C101.57638,2.60224719 101.627593,2.55252809 101.677953,2.50196629 L101.71807,2.46320225 C101.75392,2.13370787 101.822204,1.96095506 101.835861,1.92893258 C101.837568,1.9255618 101.838422,1.92303371 101.838422,1.92303371 L101.838422,1.92893258 Z M103.553217,7.45533708 C102.742338,8.30561798 102.184966,9.40617978 102.133752,10.6558989 C103.850254,9.84691011 105.151074,8.81966292 105.588949,7.99550562 C105.454941,8.64016854 104.714907,9.50224719 103.599309,10.3297753 C104.255694,10.0811798 104.85233,9.70449438 105.326907,9.20730337 C106.188146,8.40674157 106.695158,7.25561798 106.746372,6.05477528 C105.5292,6.10449438 104.364095,6.65477528 103.553217,7.45533708 Z M98.1186226,7.99550562 C98.5556435,8.82050562 99.8590243,9.84775281 101.57638,10.6575843 C101.525167,9.40702247 100.968648,8.30561798 100.156915,7.45533708 C99.295677,6.65477528 98.1800787,6.10449438 96.9142544,6.05477528 C97.0149741,7.25561798 97.5219866,8.40674157 98.3832251,9.20730337 C98.8671916,9.71460674 99.4604134,10.0955056 100.127041,10.3432584 C99.0012,9.51151685 98.2534845,8.64353933 98.1186226,7.99550562 Z M105.782706,3.70280899 C104.516028,4.00365169 103.502003,4.80337079 102.843058,5.80365169 C102.945485,5.95449438 103.096564,6.15505618 103.198137,6.35477528 C103.29971,6.50477528 103.401284,6.65477528 103.451644,6.85533708 C103.739292,6.59578652 104.060229,6.36994382 104.404213,6.18202247 C104.904397,5.67050562 105.256915,5.17837079 105.414823,4.75870787 C105.389217,5.08820225 105.219359,5.49101124 104.928296,5.93342697 C105.156196,5.84073034 105.391777,5.76404494 105.630773,5.70421348 C105.732346,5.25421348 105.83392,4.80337079 105.83392,4.35337079 C105.83392,4.10308989 105.83392,3.90337079 105.782706,3.70280899 Z M104.312028,1.50168539 C103.601869,1.90196629 102.994137,2.40168539 102.537485,3.05224719 C102.942924,3.45252809 103.19643,3.90337079 103.398723,4.35337079 C103.404698,4.34747191 103.411526,4.34325843 103.417501,4.33820225 C103.763192,3.81067416 103.986823,3.3244382 104.06279,2.92247191 C104.091811,3.21825843 104.014991,3.59241573 103.847694,4.01544944 C104.084982,3.85449438 104.341049,3.70365169 104.615895,3.55280899 C104.666254,3.45252809 104.666254,3.35224719 104.666254,3.25196629 C104.666254,2.70168539 104.564681,2.10168539 104.312028,1.50168539 Z M98.321769,4.75870787 C98.4830912,5.18764045 98.8449992,5.69073034 99.3614008,6.21235955 C99.6848987,6.39353933 99.9870577,6.60926966 100.258489,6.85533708 C100.309702,6.65477528 100.410422,6.50477528 100.511995,6.35477528 C100.613568,6.15505618 100.715141,5.95449438 100.866221,5.80365169 C100.208129,4.80337079 99.1941038,4.00365169 97.9274259,3.70280899 C97.8770661,3.90337079 97.8770661,4.10308989 97.8770661,4.35337079 C97.8770661,4.80337079 97.9274259,5.25421348 98.079359,5.70421348 C98.3311582,5.76657303 98.577836,5.84831461 98.8168318,5.94691011 C98.5215013,5.5002809 98.3473757,5.09157303 98.321769,4.75870787 Z M99.6524636,2.92247191 C99.7292837,3.32696629 99.9563297,3.81825843 100.305434,4.35 C100.307141,4.3508427 100.307995,4.35252809 100.309702,4.35337079 C100.511995,3.90337079 100.765501,3.45252809 101.170941,3.05224719 C100.715141,2.40168539 100.106556,1.90196629 99.3972502,1.50168539 C99.1437439,2.10168539 99.0421707,2.70168539 99.0421707,3.25280899 C99.0421707,3.35224719 99.0421707,3.45252809 99.0933841,3.55280899 C99.3716435,3.70533708 99.6302711,3.85786517 99.8709741,4.02219101 C99.7019699,3.59578652 99.6242962,3.21994382 99.6524636,2.92247191 Z M109.596397,6.20224719 C109.602372,6.00926966 109.784179,5.85674157 109.960012,5.86264045 C121.14843,6.1744382 132.405987,7.1494382 143.416012,8.75730337 C143.610623,8.78595506 143.743777,8.96292135 143.714756,9.15337079 C143.688296,9.32780899 143.53807,9.45252809 143.364798,9.45252809 C143.347727,9.45252809 143.329803,9.4508427 143.313585,9.44831461 C132.330874,7.84297753 121.102338,6.87219101 109.938673,6.56123596 C109.744062,6.55533708 109.590422,6.39438202 109.596397,6.20224719 Z M59.946723,9.16179775 C59.9177021,8.97134831 60.0508569,8.79353933 60.2446142,8.76488764 C71.2751247,7.15196629 82.5488987,6.1752809 93.7552418,5.86264045 C93.9268067,5.85674157 94.1120285,6.00926966 94.1180033,6.20224719 C94.1239782,6.39438202 93.9703381,6.55533708 93.7748736,6.56123596 C82.5966979,6.87219101 71.3502377,7.84634831 60.3478946,9.45589888 C60.3299699,9.45842697 60.3128987,9.46011236 60.2958276,9.46011236 C60.1234092,9.46011236 59.9723297,9.33539326 59.946723,9.16179775 Z" id="Fill-6"></path>
                </g>
            </g>
        </g>
    </g>
</svg>