<?xml version="1.0" encoding="UTF-8"?>
<svg width="108px" height="89px" viewBox="0 0 108 89" version="1.1" xmlns="http://www.w3.org/2000/svg" xmlns:xlink="http://www.w3.org/1999/xlink">
    <!-- Generator: Sketch 53.2 (72643) - https://sketchapp.com -->
    <title>40WHITE</title>
    <desc>Created with Sketch.</desc>
    <defs>
        <filter x="-10.5%" y="-13.0%" width="121.0%" height="126.2%" filterUnits="objectBoundingBox" id="filter-1">
            <feOffset dx="0" dy="1" in="SourceAlpha" result="shadowOffsetOuter1"></feOffset>
            <feGaussianBlur stdDeviation="2" in="shadowOffsetOuter1" result="shadowBlurOuter1"></feGaussianBlur>
            <feColorMatrix values="0 0 0 0 0   0 0 0 0 0   0 0 0 0 0  0 0 0 0.5 0" type="matrix" in="shadowBlurOuter1" result="shadowMatrixOuter1"></feColorMatrix>
            <feMerge>
                <feMergeNode in="shadowMatrixOuter1"></feMergeNode>
                <feMergeNode in="SourceGraphic"></feMergeNode>
            </feMerge>
        </filter>
    </defs>
    <g id="Page-1" stroke="none" stroke-width="1" fill="none" fill-rule="evenodd">
        <g id="40WHITE" filter="url(#filter-1)" transform="translate(4.000000, 3.000000)" fill="#FEFEFE">
            <path d="M99.6375368,28.114806 C98.9706045,32.1353464 97.3105229,35.8154086 94.9182657,38.901445 L94.9182657,42.8567874 L99.6375368,42.8567874 L100,42.8567874 L100,43.2189983 L100,49.2099657 L100,49.5721765 L99.6375368,49.5721765 L94.9182657,49.5721765 L94.9182657,55.664563 C94.9182657,55.9905528 94.9472628,56.265833 95.0197554,56.4831595 C95.0777495,56.6787534 95.1647407,56.8308819 95.2734797,56.932301 L95.2734797,56.932301 C95.3894679,57.0409642 95.556201,57.1206506 95.7736789,57.1786043 C96.0201539,57.2438023 96.3318723,57.2800234 96.7015847,57.2800234 L99.6375368,57.2800234 L100,57.2800234 L100,57.6422342 L100,63.6694227 L100,64.0316336 L99.6375368,64.0316336 L97.2452796,64.0316336 C95.6504414,64.0316336 94.2658319,63.8577724 93.0842019,63.5028057 C91.880824,63.1478391 90.8876748,62.611767 90.1120035,61.8873454 L90.1120035,61.8873454 C89.3290829,61.1629237 88.7418925,60.2356639 88.3576815,59.1128103 C87.9734705,57.9972009 87.7849896,56.700486 87.7849896,55.2009331 L87.7849896,45.1024947 C86.0814125,46.0732198 84.2545979,46.8411068 82.3335429,47.3771788 C82.5655193,47.7538781 82.775748,48.15231 82.9642289,48.5724746 L82.9642289,48.5724746 C83.130962,48.9346855 83.2831965,49.318629 83.3991847,49.7243051 C83.5224222,50.122737 83.6166627,50.5429016 83.6891553,50.9920431 L83.6891553,50.9920431 C83.761648,51.4266961 83.8196421,51.991745 83.8558884,52.6871898 C83.8921347,53.3826347 83.9066332,54.193987 83.9066332,55.1212467 L83.9066332,63.6694227 L83.9066332,64.0316336 L83.54417,64.0316336 L77.1358204,64.0316336 L76.7733572,64.0316336 L76.7733572,63.6694227 L76.7733572,53.8897298 C76.7733572,53.1653082 76.7008645,52.5423055 76.5413807,52.0134777 C76.3963954,51.491894 76.1716682,51.0644852 75.8816976,50.7167628 L75.8816976,50.7167628 C75.5844778,50.3835288 75.2220146,50.1299813 74.7870587,49.95612 C74.3376043,49.7822588 73.8084081,49.6953282 73.2067191,49.6953282 C72.7137691,49.6953282 72.271564,49.7822588 71.8801037,49.9488758 C71.4958927,50.1082486 71.1479281,50.3617962 70.8507082,50.687786 L70.8507082,50.687786 C70.5462391,51.0282642 70.3215119,51.4194519 70.1692774,51.8685933 L70.1692774,51.8685933 C70.0097936,52.3177348 69.9373009,52.82483 69.9373009,53.3826347 C69.9373009,53.9694162 70.0170428,54.4909999 70.1765266,54.9473855 C70.3360105,55.396527 70.5752362,55.7877147 70.8942038,56.1137044 C71.2131714,56.4469384 71.5828839,56.6932418 72.0178398,56.8598588 C72.4600449,57.0264758 72.9674934,57.1134064 73.532936,57.1134064 C73.670672,57.1134064 73.8156573,57.098918 73.9751411,57.0844295 C74.1346249,57.0626969 74.3086073,57.03372 74.4970882,56.9974989 L74.4970882,56.9974989 C74.6928183,56.9612778 74.903047,56.9033241 75.149522,56.8381261 C75.3887477,56.7729282 75.6787182,56.6859976 75.9976859,56.5845785 L76.4688881,56.4396942 L76.4688881,56.932301 L76.4688881,63.6332016 L76.4688881,63.9229703 L76.1789175,63.980924 C75.9106947,64.0388778 75.6497212,64.0895873 75.3959969,64.1330526 C75.1350234,64.1765179 74.8885484,64.212739 74.6493227,64.2344716 C74.4173463,64.2634485 74.1781205,64.2851812 73.9533933,64.2996696 C73.7214169,64.314158 73.4966897,64.3214022 73.3009596,64.3214022 C71.7568663,64.3214022 70.350509,64.0606104 69.0746385,63.546271 C67.7915187,63.0319316 66.6533842,62.2568004 65.6457364,61.2208774 C64.645338,60.1921986 63.8914145,59.0186354 63.3912152,57.7146764 C62.8837667,56.4034731 62.6372918,54.961874 62.6372918,53.3826347 C62.6372918,51.8033954 62.8837667,50.3617962 63.3912152,49.0578371 C63.8334204,47.884274 64.4858542,46.8266183 65.3340181,45.8776259 C63.1157432,44.8054818 61.0786999,43.4001037 59.3026302,41.7339338 L59.3026302,63.6694227 L59.3026302,64.0316336 L58.940167,64.0316336 L52.4085798,64.0316336 L52.0461166,64.0316336 L52.0461166,63.6694227 L52.0461166,34.793974 L52.0461166,34.4317631 L52.4085798,34.4317631 L53.9816702,34.4317631 C53.0465151,32.4540919 52.3723335,30.3387806 52.002621,28.114806 C54.0541628,27.948189 55.6707488,26.2313096 55.6707488,24.1377309 C55.6707488,22.0369079 54.0541628,20.3200285 52.002621,20.1534115 C53.9019283,8.7220372 63.8406696,0 75.8164543,0 C87.7994882,0 97.7382295,8.7220372 99.6375368,20.1534115 C97.585995,20.3200285 95.969409,22.0369079 95.969409,24.1377309 C95.969409,26.2313096 97.585995,27.948189 99.6375368,28.114806 Z M76.3239028,42.8495432 L76.3239028,37.300473 L74.7218154,37.300473 L74.7218154,37.300473 L74.7218154,42.5307977 L74.7218154,43.2624636 C70.4592479,42.6539494 65.8487158,44.6533532 64.0653968,49.3113847 C63.5941946,50.5356574 63.3622182,51.890326 63.3622182,53.3826347 C63.3622182,54.8749433 63.5941946,56.2296119 64.0653968,57.4538846 C64.5293497,58.670913 65.2325284,59.7575456 66.1676835,60.7210264 C67.0955893,61.6772631 68.1612312,62.4016848 69.3428612,62.8798031 C70.5317406,63.3579214 71.8511067,63.5969805 73.3009596,63.5969805 C73.503939,63.5969805 73.7069184,63.5897363 73.9098978,63.5752479 C74.1201264,63.5680037 74.3376043,63.546271 74.5695808,63.5172942 C74.8088065,63.4883173 75.040783,63.4593404 75.2800087,63.4158751 C75.4322433,63.3941425 75.5844778,63.3651656 75.7439616,63.3361887 L75.7439616,57.4176635 C75.6062256,57.4611288 75.4684896,57.4973499 75.3452521,57.533571 C75.0770293,57.6060131 74.8378036,57.6639669 74.6348242,57.7074322 L74.6348242,57.7074322 C74.4245955,57.7508975 74.2361146,57.7798743 74.054883,57.801607 C73.8664022,57.8233396 73.6924198,57.8378281 73.532936,57.8378281 C72.8805022,57.8378281 72.2860626,57.736409 71.7641155,57.533571 C71.22767,57.3307329 70.763717,57.0264758 70.3722568,56.6135554 C69.9807965,56.2078793 69.6908259,55.7370052 69.4950958,55.1864447 C69.3066149,54.6503726 69.2123745,54.0491026 69.2123745,53.3826347 C69.2123745,52.7451436 69.2993657,52.158362 69.4805973,51.6295342 L69.4805973,51.6295342 C69.6618289,51.0934621 69.9373009,50.622588 70.3070134,50.2096676 L70.3142627,50.2096676 C70.6839751,49.7967473 71.1116817,49.4852459 71.5973824,49.2824079 C72.0830832,49.0723256 72.6195287,48.9709065 73.2067191,48.9709065 C73.8953992,48.9709065 74.5115867,49.0795698 75.0480323,49.2824079 C75.5989763,49.4997344 76.05568,49.8184799 76.4253925,50.2458887 L76.4253925,50.2531329 C76.7878557,50.6732975 77.0560785,51.1948811 77.2373101,51.8106396 C77.4112924,52.4119096 77.4982836,53.1073544 77.4982836,53.8897298 L77.4982836,63.3072119 L83.1817068,63.3072119 L83.1817068,55.1212467 C83.1817068,54.1794985 83.1672083,53.3826347 83.130962,52.7234109 C83.1019649,52.0641872 83.0439708,51.5208709 82.9787274,51.1079505 L82.9787274,51.1079505 C82.913484,50.7022744 82.8192436,50.3110867 82.7105046,49.9343874 C82.5945164,49.5649323 82.4640296,49.2099657 82.3117951,48.8767317 L82.3045458,48.8694875 C80.8184466,45.5951014 77.8679961,43.7260935 74.7363139,43.2697078 L76.3239028,43.2697078 L76.3239028,42.8495432 Z M52.771043,35.1561848 L52.771043,63.3072119 L58.5777037,63.3072119 L58.5777037,35.1561848 L52.771043,35.1561848 Z M94.1933393,38.5826994 L88.5099161,38.5826994 L88.5099161,55.2009331 C88.5099161,56.6207996 88.6838984,57.8450723 89.0391124,58.8737511 C89.3870771,59.8879415 89.9090241,60.7210264 90.6049535,61.3585175 L90.6049535,61.3585175 C91.2936336,62.0032528 92.1925423,62.4886154 93.2871813,62.8146051 C94.3963187,63.1405949 95.7156848,63.3072119 97.2452796,63.3072119 L99.2750736,63.3072119 L99.2750736,58.0044451 L96.7015847,58.0044451 C96.2738781,58.0044451 95.9041657,57.9609798 95.5924473,57.8812934 C95.2517319,57.7871186 94.9835091,57.6494784 94.7805297,57.4611288 L94.7805297,57.4611288 C94.5775503,57.2727792 94.4253157,57.0119873 94.323826,56.700486 C94.2368349,56.4034731 94.1933393,56.0557507 94.1933393,55.664563 L94.1933393,49.2099657 L94.1933393,48.8477549 L94.5558025,48.8477549 L99.2750736,48.8477549 L99.2750736,43.5812091 L94.5558025,43.5812091 L94.1933393,43.5812091 L94.1933393,43.2189983 L94.1933393,38.5826994 Z M69.1906267,13.3293592 C69.4081046,14.5101665 70.0605384,15.9372773 71.0681861,17.4875397 C71.0681861,17.4875397 71.0754354,17.4947839 71.0754354,17.4947839 C71.6626258,16.1835807 72.3875523,14.8723774 73.5546838,13.7060585 C72.242567,11.8153178 70.4954943,10.3592302 68.4512017,9.1929113 C67.7262753,10.9387676 67.4363047,12.6918681 67.4363047,14.29284 C67.4363047,14.5826087 67.4363047,14.8723774 67.58129,15.1621461 C68.3787091,15.6112875 69.1253833,16.0531847 69.8140634,16.5313031 C69.3283627,15.292542 69.1036355,14.191421 69.1906267,13.3293592 Z M65.3630151,18.6755913 C65.8269681,19.9215966 66.8708621,21.3849284 68.349712,22.906214 C69.2848671,23.4350418 70.1475296,24.0580445 70.9304501,24.7752219 C71.0754354,24.1956846 71.365406,23.7537874 71.6626258,23.3191343 C71.9525964,22.7323528 72.242567,22.1528154 72.6775228,21.7181624 C70.7854648,18.8059872 67.8712606,16.4733493 64.2248806,15.6040433 C64.0798954,16.1835807 64.0798954,16.763118 64.0798954,17.4947839 C64.0798954,18.8059872 64.2248806,20.1171905 64.6670858,21.4283937 C65.3920122,21.6094991 66.1024401,21.8413141 66.7838709,22.1310828 C65.935707,20.8343679 65.4355078,19.6390721 65.3630151,18.6755913 Z M82.5800179,9.1929113 C80.5429746,10.3592302 78.7959019,11.8153178 77.4837851,13.7060585 C78.6509166,14.8723774 79.375843,16.1835807 79.9630335,17.4947839 C79.977532,17.4802955 79.9992798,17.4658071 80.0137783,17.4513186 C81.0069275,15.9155446 81.652112,14.4956781 81.86959,13.3293592 C81.9493319,14.191421 81.7318539,15.2780535 81.2461532,16.5095704 C81.9348333,16.0386963 82.667009,15.6040433 83.4571788,15.1621461 C83.6021641,14.8723774 83.6021641,14.5826087 83.6021641,14.29284 C83.6021641,12.6918681 83.3121936,10.9387676 82.5800179,9.1929113 Z M86.8135882,15.6040433 C83.1744575,16.4733493 80.2602533,18.8059872 78.360946,21.7181624 C78.6509166,22.1528154 79.0931217,22.7323528 79.3830923,23.3191343 C79.6730629,23.7537874 79.9630335,24.1956846 80.1080187,24.7752219 C80.9344349,24.0218234 81.8623407,23.3625996 82.8482406,22.8120392 C84.2908442,21.3269747 85.298492,19.8926197 85.7551956,18.6755913 C85.682703,19.6318279 85.189753,20.8053911 84.3560876,22.0948617 C85.0085214,21.8195814 85.6899523,21.5950107 86.3786324,21.4283937 C86.6686029,20.1171905 86.9585735,18.8059872 86.9585735,17.4947839 C86.9585735,16.763118 86.9585735,16.1835807 86.8135882,15.6040433 Z M64.7758247,28.0930733 C66.0371967,30.4909091 69.7778171,33.4827707 74.7218154,35.8371412 C74.5695808,32.2005443 72.9674934,28.9986004 70.6404796,26.5210782 C68.1612312,24.1956846 64.9570563,22.5874684 61.3106764,22.4425841 C61.6078962,25.9415409 63.0649984,29.2883691 65.5369975,31.621007 C66.9288562,33.0988272 68.6324333,34.2071924 70.5534884,34.9243699 C67.3130672,32.5048014 65.167285,29.9765697 64.7758247,28.0930733 Z M80.4052386,26.5210782 C78.0709755,28.9986004 76.4688881,32.2005443 76.3239028,35.8371412 C81.2534025,33.4827707 85.0012721,30.4909091 86.2553949,28.0930733 C85.8711839,29.9693255 83.7399002,32.4758246 80.5357253,34.8881488 C82.4205341,34.1637271 84.1386097,33.0698503 85.5014714,31.621007 C87.9807198,29.2883691 89.4378219,25.9415409 89.5828072,22.4425841 C86.0814125,22.5874684 82.7322524,24.1956846 80.4052386,26.5210782 Z M75.4757388,10.4389166 L75.4757388,10.4389166 L75.4757388,10.4244282 C75.4829881,10.4389166 75.700466,10.9242792 75.8164543,11.9457137 L76.0339322,12.1050865 C76.1789175,12.2499709 76.3239028,12.3948552 76.4688881,12.5469837 C77.0488292,11.8153178 77.7810049,10.9387676 78.5059313,10.2143459 C77.9259902,8.31636105 76.9038439,6.42562043 75.4467418,4.82464848 C73.9896397,6.42562043 72.9674934,8.31636105 72.5325375,10.2143459 C73.2647132,10.9387676 73.9896397,11.8153178 74.5768301,12.5469837 C74.7218154,12.3948552 74.8668006,12.2499709 75.0117859,12.1050865 L75.1277742,11.9964233 C75.2292639,11.0329424 75.424994,10.5330914 75.4684896,10.4389166 L75.4684896,10.4389166 L75.4684896,10.4389166 C75.4684896,10.4316724 75.4757388,10.4244282 75.4757388,10.4244282 L75.4757388,10.4244282 L75.4757388,10.4244282 L75.4757388,10.4244282 L75.4757388,10.4244282 L75.4757388,10.4389166 Z M75.4757388,17.0601309 L75.4757388,17.0601309 L75.4757388,17.0456425 C75.4829881,17.0673751 75.8599499,17.8569948 75.9034454,19.5448973 C76.3384013,19.834666 76.7661079,20.269319 77.1938145,20.5518435 C77.6360196,19.9723061 78.2159608,19.2406402 78.6509166,18.6611028 C78.0709755,16.9080023 77.0488292,15.1621461 75.4467418,13.7060585 C73.9896397,15.1621461 72.8225081,16.9080023 72.3875523,18.6611028 C72.8225081,19.2406402 73.4096985,19.9723061 73.8446544,20.5518435 C74.1128772,20.2765632 74.518836,19.8853755 75.040783,19.5956068 C75.0770293,17.9873907 75.4104955,17.1832826 75.4684896,17.0601309 L75.4684896,17.0601309 L75.4684896,17.0601309 C75.4684896,17.0528867 75.4757388,17.0456425 75.4757388,17.0456425 L75.4757388,17.0456425 L75.4757388,17.0456425 L75.4757388,17.0456425 L75.4757388,17.0601309 Z M74.8740499,28.8754487 C74.8595514,27.0354176 75.3814984,26.1226463 75.4612403,25.9922504 L75.4612403,25.9922504 L75.4612403,25.9922504 C75.4684896,25.9850062 75.4757388,25.977762 75.4757388,25.977762 L75.4757388,25.9922504 L75.4757388,25.9922504 L75.4757388,25.977762 C75.4757388,25.977762 76.084677,26.8832891 76.0774278,28.8754487 C76.0701785,29.317346 76.0701785,29.7592432 76.0701785,30.1721636 C76.7806064,28.6001685 77.7375093,27.1440809 78.9481364,25.9415409 C78.8031512,25.3547593 78.5059313,24.6303376 78.0709755,24.043556 C77.4910343,23.0293657 76.6138733,22.0079311 75.4467418,21.1313808 C74.2796102,22.0079311 73.4096985,23.0293657 72.8225081,24.043556 C72.5325375,24.6303376 72.242567,25.3547593 72.0975817,25.9415409 C73.1849713,27.1368367 74.1926191,28.5784358 74.8812992,30.1431867 C74.8740499,29.7375106 74.8740499,29.3101018 74.8740499,28.8754487 Z" id="Shape"></path>
            <polygon id="Path" points="43.2089463 63.9282497 26.1440189 63.9282497 26.1440189 17.062172 16.1381939 34.5618336 23.2914176 34.5618336 23.2914176 48.926471 0 48.926471 0 35.0686505 20.3012542 0.0982881481 43.2089463 0.0982881481 43.2089463 34.5618336 48.9720698 34.5618336 48.9720698 48.926471 43.2089463 48.926471"></polygon>
            <path d="M29.8936465,74.4950115 L29.8936465,74.4950115 C31.4296264,73.88709 32.5091595,72.3962348 32.5091595,70.6448418 C32.5091595,68.3578989 30.6543913,66.4979485 28.3576666,66.4979485 L18.6780952,66.4979485 L18.6780952,67.3157477 L19.3663881,67.597997 L19.3663881,79.2208777 L18.6780952,79.5103642 L18.6780952,80.3209262 L22.829588,80.3209262 L22.829588,79.5103642 L22.13405,79.2208777 L22.13405,74.7917351 L26.9738357,74.7917351 L29.0676951,79.2136406 L28.3576666,79.5103642 L28.3576666,80.3209262 L33.2046975,80.3209262 L33.2046975,79.5103642 L32.0454674,79.0327115 L29.8936465,74.4950115 Z M22.13405,72.7219071 L22.13405,72.7219071 L22.13405,68.5750138 L27.6693737,68.5750138 C28.8141135,68.5750138 29.7414976,69.5013704 29.7414976,70.6448418 C29.7414976,71.7955504 28.8141135,72.7219071 27.6693737,72.7219071 L22.13405,72.7219071 Z M44.2680999,65.9841101 L44.2680999,65.9841101 C40.0658908,65.9841101 36.6606523,69.305967 36.6606523,73.4094374 C36.6606523,77.5129077 40.0658908,80.8420018 44.2680999,80.8420018 C48.4703091,80.8420018 51.8827927,77.5129077 51.8827927,73.4094374 C51.8827927,69.305967 48.4703091,65.9841101 44.2680999,65.9841101 Z M39.4283142,73.4094374 L39.4283142,73.4094374 C39.4283142,70.6448418 41.5946255,68.4013219 44.2680999,68.4013219 C46.9415744,68.4013219 49.1151308,70.6448418 49.1151308,73.4094374 C49.1151308,76.1812701 46.9415744,78.4175528 44.2680999,78.4175528 C41.5946255,78.4175528 39.4283142,76.1812701 39.4283142,73.4094374 Z M99.6068474,67.3157477 L99.6068474,67.3157477 L99.6068474,66.4979485 L96.1508926,66.4979485 L95.4553546,66.4979485 L95.4553546,67.3157477 L96.1508926,67.597997 L96.1508926,69.6533508 L88.543445,66.4979485 L88.5361998,66.4979485 L85.0802451,66.4979485 L85.0802451,67.3157477 L85.7757831,67.597997 L85.7757831,79.2208777 L85.0802451,79.5103642 L85.0802451,80.3209262 L89.2317379,80.3209262 L89.2317379,79.5103642 L88.543445,79.2208777 L88.543445,68.7487056 L96.1508926,71.8968707 L96.1508926,79.2208777 L95.4553546,79.5103642 L95.4553546,80.3209262 L99.6068474,80.3209262 L99.6068474,79.5103642 L98.9185545,79.2208777 L98.9185545,67.597997 L99.6068474,67.3157477 Z M76.0889665,67.3157477 L76.0889665,67.3157477 L76.7845046,67.597997 L76.7845046,79.2208777 L76.0889665,79.5103642 L76.0889665,80.3209262 L80.2404593,80.3209262 L80.2404593,79.5103642 L79.5449213,79.2208777 L79.5449213,67.597997 L80.2404593,67.3157477 L80.2404593,66.4979485 L76.0889665,66.4979485 L76.0889665,67.3157477 Z M67.0976879,67.3157477 L67.0976879,67.3157477 L67.6845482,67.554574 L66.7571641,76.7964288 L63.2939641,71.4192181 L59.823519,76.7964288 L58.9033801,67.554574 L59.4902403,67.3157477 L59.4902403,66.4979485 L55.3387475,66.4979485 L55.3387475,67.3157477 L56.1429634,67.6486571 L57.3094387,79.2643007 L56.7225784,79.5103642 L56.7225784,80.3209262 L60.8668261,80.3209262 L60.8668261,79.5103642 L60.6132445,79.4018067 L63.2939641,75.2476763 L65.9674386,79.4018067 L65.713857,79.5103642 L65.713857,80.3209262 L69.8653498,80.3209262 L69.8653498,79.5103642 L69.2784896,79.2643007 L70.4377197,67.6486571 L71.2491808,67.3157477 L71.2491808,66.4979485 L67.0976879,66.4979485 L67.0976879,67.3157477 Z M12.1574258,72.852176 L12.1574258,72.852176 C12.7660216,72.17912 13.1427714,71.281712 13.1427714,70.3046953 C13.1427714,68.1986814 11.4401522,66.4979485 9.33904759,66.4979485 L0,66.4979485 L0,67.3157477 L0.688292879,67.597997 L0.688292879,79.2208777 L0,79.5103642 L0,80.3209262 L9.68681663,80.3209262 C11.9762961,80.3209262 13.8310643,78.468213 13.8310643,76.1740329 C13.8310643,74.8134466 13.1717522,73.6048407 12.1574258,72.852176 Z M3.45595477,68.5750138 L3.45595477,68.5750138 L8.65075471,68.5750138 C9.59987437,68.5750138 10.3751095,69.34939 10.3751095,70.3046953 C10.3751095,71.2527634 9.59987437,72.0271396 8.65075471,72.0271396 L3.45595477,72.0271396 L3.45595477,68.5750138 Z M8.99852375,78.2510981 L8.99852375,78.2510981 L3.45595477,78.2510981 L3.45595477,74.1042048 L8.99852375,74.1042048 C10.1432635,74.1042048 11.0706476,75.0305614 11.0706476,76.1740329 C11.0706476,77.3175044 10.1432635,78.243861 8.99852375,78.2510981 Z" id="Shape" fill-rule="nonzero"></path>
        </g>
    </g>
</svg>