<?xml version="1.0" encoding="UTF-8"?>
<svg width="15px" height="9px" viewBox="0 0 15 9" version="1.1" xmlns="http://www.w3.org/2000/svg" xmlns:xlink="http://www.w3.org/1999/xlink">
    <!-- Generator: sketchtool 51.3 (57544) - http://www.bohemiancoding.com/sketch -->
    <title>A7B49F4D-430C-492E-B217-2642967954C3</title>
    <desc>Created with sketchtool.</desc>
    <defs></defs>
    <g id="Styleguide" stroke="none" stroke-width="1" fill="none" fill-rule="evenodd">
        <g transform="translate(-449.000000, -3531.000000)" fill="#942940" fill-rule="nonzero" id="ikona_gplus">
            <path d="M453.375,3534.85714 L453.375,3536.4 L455.85625,3536.4 C455.75625,3537.0615 455.10625,3538.34143 453.375,3538.34143 C451.88125,3538.34143 450.6625,3537.06921 450.6625,3535.5 C450.6625,3533.93143 451.88125,3532.65857 453.375,3532.65857 C454.225,3532.65857 454.79375,3533.03143 455.11875,3533.35286 L456.30625,3532.17643 C455.54375,3531.44357 454.55625,3531 453.375,3531 C450.95625,3531 449,3533.01214 449,3535.5 C449,3537.98786 450.95625,3540 453.375,3540 C455.9,3540 457.575625,3538.17429 457.575625,3535.60286 C457.575625,3535.30714 457.54375,3535.08214 457.50625,3534.85714 L453.375,3534.85714 Z M453.375,3534.85714 L464,3536.14286 L462.125,3536.14286 L462.125,3538.07143 L460.875,3538.07143 L460.875,3536.14286 L459,3536.14286 L459,3534.85714 L460.875,3534.85714 L460.875,3532.92857 L462.125,3532.92857 L462.125,3534.85714 L464,3534.85714 L464,3536.14286 L453.375,3534.85714 Z"></path>
        </g>
    </g>
</svg>