<?xml version="1.0" encoding="utf-8"?>
<!-- Generator: Adobe Illustrator 16.0.0, SVG Export Plug-In . SVG Version: 6.00 Build 0)  -->
<!DOCTYPE svg PUBLIC "-//W3C//DTD SVG 1.1//EN" "http://www.w3.org/Graphics/SVG/1.1/DTD/svg11.dtd">
<svg version="1.1" id="Layer_1" xmlns="http://www.w3.org/2000/svg" xmlns:xlink="http://www.w3.org/1999/xlink" x="0px" y="0px"
	 width="5053.852px" height="1311.32px" viewBox="0 0 5053.852 1311.32" enable-background="new 0 0 5053.852 1311.32"
	 xml:space="preserve">
<g>
	<path fill="#ffffff" d="M614.852,1262.287c-108.152,0-216.303,0.211-324.452-0.334c-10.646-0.051-26.144,7.082-30.903-9.303
		c-4.56-15.689,7.171-21.656,19.705-28.699c68.786-38.654,92.668-131.021,52.839-210.062
		C253.109,857.261,172.352,701.548,93.154,545.056C73.567,506.35,39.315,469.674,39.27,427.869
		c-0.045-41.811,34.655-78.218,54.079-117c35.133-70.131,70.926-139.936,106.573-209.805c5.247-10.283,7.376-23.999,22.654-24.901
		c17.048-1.012,20.46,13.184,26.303,24.593c142.511,278.31,284.731,556.768,427.768,834.808
		c44.686,86.867,98.96,167.187,173.01,232.328c30.487,26.822,63.478,50.039,104.243,58.875c11.897,2.574,20.704,7.031,19.604,21.222
		c-1.277,16.508-13.782,14.209-24.363,14.215C837.707,1262.324,726.281,1262.279,614.852,1262.287z"/>
	<path fill="#ffffff" d="M763.949,667.205c0.125-281.909,182.771-525.553,453.378-604.583c6.264-1.831,12.688-3.112,18.971-4.879
		c6.349-1.787,13.191-4.412,16.936,3.477c2.961,6.237,2.318,13.087-2.977,18.152c-82.23,78.596-85.045,184.078-90.733,285.571
		c-12.345,220.196-14.604,440.782,5.203,660.774c7.334,81.474,18.657,163.476,82.229,225.371c5.757,5.604,10.29,11.947,4.769,20.092
		c-8.215,12.115-18.335,3.105-26.486,0.742c-195.479-56.729-333.622-179.217-414.206-365.684
		C778.229,830.332,763.316,750.089,763.949,667.205z"/>
</g>
<rect x="1657.042" y="131.171" fill="none" width="3557.867" height="1540.266"/>
<g enable-background="new ">
	<path fill="#ffffff" d="M1961.898,519.042l-42.058-107.627h-167.71l-42.319,107.627h-51.724l150.208-368.074h56.687l147.856,368.074H1961.898z
		 M1835.985,188.585l-2.351,7.314c-4.355,14.458-10.8,33.005-19.331,55.643l-47.021,120.949h137.668l-47.283-121.472
		c-4.877-12.017-9.755-25.601-14.629-40.752L1835.985,188.585z"/>
	<path fill="#ffffff" d="M2050.977,519.042V302.221c0-19.854-0.522-41.797-1.567-65.83h44.409c1.392,32.046,2.09,51.291,2.09,57.731h1.045
		c7.486-24.204,16.106-40.752,25.862-49.633c9.751-8.883,23.51-13.323,41.273-13.323c6.27,0,12.625,0.873,19.07,2.612v43.104
		c-6.27-1.739-14.629-2.613-25.078-2.613c-19.507,0-34.396,8.404-44.67,25.209c-10.278,16.809-15.413,40.883-15.413,72.23v147.334
		H2050.977z"/>
	<path fill="#ffffff" d="M2263.88,376.41c0,37.617,5.919,65.483,17.764,83.594c11.842,18.114,29.691,27.168,53.553,27.168
		c16.719,0,30.694-4.526,41.928-13.584c11.232-9.054,18.155-22.988,20.768-41.797l47.544,3.135
		c-3.657,27.168-15.241,48.851-34.743,65.046c-19.507,16.197-44.238,24.295-74.189,24.295c-39.536,0-69.708-12.494-90.517-37.486
		c-20.813-24.988-31.218-61.431-31.218-109.325c0-47.544,10.449-83.811,31.348-108.803c20.898-24.988,50.851-37.486,89.863-37.486
		c28.907,0,52.899,7.49,71.97,22.466c19.069,14.979,31.041,35.617,35.919,61.912l-48.328,3.656
		c-2.44-15.674-8.62-28.123-18.547-37.355c-9.927-9.229-24.033-13.846-42.319-13.846c-24.906,0-42.932,8.274-54.075,24.817
		C2269.452,309.363,2263.88,337.226,2263.88,376.41z"/>
	<path fill="#ffffff" d="M2542.352,284.718c10.098-18.457,22.245-32,36.441-40.621c14.192-8.62,32.172-12.931,53.943-12.931
		c30.65,0,53.247,7.62,67.79,22.857c14.539,15.241,21.813,40.797,21.813,76.671v188.348h-47.282V339.838
		c0-19.854-1.829-34.613-5.486-44.278c-3.657-9.666-9.666-16.76-18.025-21.291c-8.359-4.526-19.942-6.791-34.743-6.791
		c-22.119,0-39.838,7.665-53.16,22.988c-13.323,15.326-19.984,35.964-19.984,61.911v166.665h-47.021V131.376h47.021v100.835
		c0,10.625-0.306,21.597-0.914,32.915c-0.612,11.322-1.004,17.854-1.176,19.592H2542.352z"/>
	<path fill="#ffffff" d="M2792.872,176.308v-44.932h47.021v44.932H2792.872z M2792.872,519.042V236.391h47.021v282.651H2792.872z"/>
	<path fill="#ffffff" d="M3182.628,519.042h-54.597L3078.658,319.2l-9.404-44.147c-1.567,7.837-4.008,19.114-7.314,33.829
		c-3.311,14.719-21.074,84.77-53.291,210.16h-54.336l-79.152-282.651h46.498l47.806,192.005c1.217,4.18,4.964,21.42,11.233,51.723
		l4.44-19.33l59.038-224.397h50.418l49.372,194.095l12.017,49.633l8.098-36.311l53.553-207.417h45.977L3182.628,519.042z"/>
	<path fill="#ffffff" d="M3344.33,236.391v179.204c0,18.637,1.829,33.091,5.485,43.364c3.658,10.277,9.49,17.678,17.503,22.204
		c8.009,4.531,19.764,6.793,35.267,6.793c22.637,0,40.49-7.748,53.552-23.25c13.062-15.498,19.593-37.005,19.593-64.523V236.391
		h47.021v222.308c0,32.914,0.521,53.029,1.566,60.344h-44.408c-0.176-0.869-0.352-3.221-0.523-7.053
		c-0.175-3.829-0.392-8.229-0.652-13.192c-0.262-4.964-0.567-14.323-0.914-28.083h-0.784c-10.8,19.507-23.294,33.308-37.486,41.405
		c-14.196,8.099-31.829,12.147-52.899,12.147c-31.001,0-53.683-7.706-68.051-23.119c-14.367-15.412-21.551-40.883-21.551-76.41
		V236.391H3344.33z"/>
	<path fill="#ffffff" d="M3760.469,519.042V339.838c0-27.34-3.747-46.237-11.232-56.687c-7.49-10.449-20.988-15.674-40.491-15.674
		c-20.029,0-35.878,7.665-47.544,22.988c-11.67,15.326-17.502,36.923-17.502,64.785v163.791h-46.761V296.735
		c0-32.916-0.522-53.03-1.567-60.345h44.409c0.172,0.873,0.347,3.225,0.522,7.054c0.172,3.832,0.392,8.229,0.653,13.191
		c0.261,4.964,0.563,14.327,0.914,28.082h0.784c10.098-20.024,21.682-33.959,34.743-41.797
		c13.062-7.836,28.997-11.755,47.806-11.755c21.42,0,38.355,4.27,50.809,12.8c12.449,8.535,21.115,22.119,25.992,40.752h0.784
		c9.751-18.979,21.552-32.653,35.396-41.013c13.846-8.359,30.605-12.539,50.287-12.539c28.56,0,49.328,7.751,62.304,23.249
		c12.972,15.503,19.461,40.928,19.461,76.279v188.348h-46.498V339.838c0-27.34-3.747-46.237-11.233-56.687
		c-7.49-10.449-20.988-15.674-40.491-15.674c-20.551,0-36.531,7.62-47.936,22.857c-11.408,15.241-17.11,36.878-17.11,64.916v163.791
		H3760.469z"/>
</g>
<g enable-background="new">
	<path fill="#ffffff" d="M2047.581,975.308c0,38.49-7.358,72.188-22.073,101.096c-14.719,28.911-35.834,51.115-63.349,66.613
		c-27.519,15.503-59.997,23.25-97.439,23.25c-37.792,0-70.402-7.661-97.831-22.988c-27.43-15.323-48.373-37.486-62.826-66.483
		c-14.458-28.996-21.682-62.825-21.682-101.487c0-58.863,16.106-104.885,48.328-138.061c32.217-33.177,77.063-49.765,134.534-49.765
		c37.442,0,69.92,7.445,97.439,22.335c27.515,14.891,48.544,36.531,63.087,64.916
		C2040.307,903.122,2047.581,936.646,2047.581,975.308z M1996.641,975.308c0-45.802-11.453-81.766-34.352-107.889
		c-22.903-26.123-55.25-39.185-97.047-39.185c-42.148,0-74.712,12.89-97.7,38.662c-22.988,25.776-34.482,61.911-34.482,108.411
		c0,46.151,11.625,82.769,34.875,109.847c23.249,27.082,55.511,40.622,96.786,40.622c42.491,0,75.104-13.103,97.831-39.315
		C1985.278,1060.252,1996.641,1023.202,1996.641,975.308z"/>
	<path fill="#ffffff" d="M2321.351,1082.935c0,26.645-10.058,47.196-30.172,61.65c-20.115,14.457-48.287,21.682-84.509,21.682
		c-35.18,0-62.303-5.788-81.373-17.372c-19.069-11.58-31.479-29.649-37.225-54.205l41.535-8.099
		c4.004,15.152,12.277,26.254,24.816,33.308c12.539,7.053,29.952,10.579,52.246,10.579c23.858,0,41.315-3.656,52.377-10.971
		c11.058-7.314,16.588-18.287,16.588-32.916c0-11.143-3.832-20.2-11.494-27.168c-7.665-6.963-20.028-12.71-37.094-17.24
		l-33.699-8.883c-26.996-6.963-46.197-13.8-57.602-20.506c-11.408-6.702-20.335-14.846-26.775-24.426
		c-6.445-9.575-9.666-21.331-9.666-35.266c0-25.772,9.184-45.409,27.56-58.907c18.372-13.494,45.148-20.245,80.329-20.245
		c31.172,0,55.943,5.485,74.319,16.457c18.372,10.972,29.997,28.563,34.874,52.769l-42.318,5.225
		c-2.613-12.539-9.625-22.16-21.029-28.866c-11.408-6.702-26.69-10.057-45.846-10.057c-21.25,0-36.924,3.224-47.021,9.665
		c-10.103,6.445-15.152,16.196-15.152,29.258c0,8.013,2.09,14.629,6.27,19.854s10.36,9.665,18.548,13.323
		c8.184,3.656,25.425,8.71,51.724,15.15c24.902,6.27,42.842,12.062,53.813,17.372c10.972,5.314,19.633,11.192,25.992,17.634
		c6.355,6.444,11.274,13.89,14.76,22.335C2319.608,1062.518,2321.351,1072.138,2321.351,1082.935z"/>
	<path fill="#ffffff" d="M2376.471,818.308v-44.932h47.021v44.932H2376.471z M2376.471,1161.042V878.391h47.021v282.651H2376.471z"/>
	<path fill="#ffffff" d="M2567.691,1166.267c-28.389,0-49.724-7.486-64.001-22.466c-14.282-14.976-21.422-35.527-21.422-61.65
		c0-29.258,9.621-51.724,28.866-67.397c19.241-15.674,50.287-24.033,93.129-25.078l63.479-1.045v-15.412
		c0-22.988-4.878-39.446-14.629-49.373c-9.756-9.927-25.078-14.891-45.977-14.891c-21.074,0-36.401,3.572-45.977,10.711
		c-9.58,7.143-15.327,18.547-17.242,34.221l-49.111-4.44c8.009-50.851,45.802-76.279,113.375-76.279
		c35.527,0,62.258,8.143,80.197,24.425c17.936,16.286,26.906,39.838,26.906,70.663v121.733c0,13.935,1.829,24.425,5.486,31.479
		c3.657,7.053,10.621,10.58,20.898,10.58c4.526,0,9.666-0.608,15.412-1.829v29.258c-11.845,2.784-23.947,4.18-36.311,4.18
		c-17.417,0-30.086-4.571-38.009-13.715c-7.927-9.143-12.409-23.466-13.454-42.972h-1.566
		c-12.018,21.596-25.993,36.878-41.928,45.846C2609.88,1161.781,2590.504,1166.267,2567.691,1166.267z M2578.401,1131.001
		c17.242,0,32.564-3.919,45.977-11.756c13.409-7.837,23.989-18.588,31.74-32.262c7.747-13.67,11.625-27.731,11.625-42.189v-23.249
		l-51.463,1.045c-22.119,0.351-38.883,2.612-50.287,6.792c-11.408,4.18-20.159,10.625-26.254,19.331
		c-6.098,8.71-9.143,20.114-9.143,34.222c0,15.326,4.135,27.168,12.408,35.527
		C2551.274,1126.821,2563.075,1131.001,2578.401,1131.001z"/>
	<path fill="#ffffff" d="M2901.804,1158.952c-15.502,4.18-31.348,6.27-47.544,6.27c-37.617,0-56.426-21.331-56.426-64.002V912.612h-32.654v-34.222
		h34.482l13.846-63.218h31.348v63.218h52.246v34.222h-52.246v178.42c0,13.584,2.221,23.119,6.661,28.604
		c4.441,5.486,12.147,8.229,23.119,8.229c6.27,0,15.323-1.217,27.168-3.658V1158.952z"/>
	<path fill="#ffffff" d="M2955.618,1272.065c-12.89,0-23.686-0.96-32.393-2.874v-35.267c6.617,1.045,13.932,1.568,21.943,1.568
		c29.258,0,52.418-21.511,69.488-64.524l4.44-11.233L2907.03,878.391h50.156l59.561,156.216c0.869,2.44,1.914,5.355,3.135,8.751
		c1.216,3.396,5.135,14.76,11.755,34.091c6.616,19.331,10.188,30.131,10.71,32.393l18.287-51.463l61.911-179.987h49.634
		l-108.672,282.651c-11.67,30.127-22.556,52.548-32.654,67.267c-10.102,14.715-21.29,25.687-33.567,32.915
		C2985.007,1268.448,2971.117,1272.065,2955.618,1272.065z"/>
	<path fill="#ffffff" d="M3389.784,1161.042V981.838c0-18.633-1.829-33.087-5.486-43.364c-3.657-10.273-9.494-17.674-17.502-22.205
		c-8.013-4.526-19.769-6.791-35.267-6.791c-22.642,0-40.491,7.751-53.552,23.249c-13.063,15.502-19.593,37.009-19.593,64.524
		v163.791h-47.021V938.735c0-32.916-0.522-53.03-1.567-60.345h44.409c0.172,0.873,0.347,3.225,0.522,7.054
		c0.172,3.832,0.392,8.229,0.653,13.191c0.261,4.964,0.563,14.327,0.914,28.082h0.784c10.796-19.502,23.29-33.307,37.486-41.404
		c14.192-8.099,31.825-12.147,52.898-12.147c30.997,0,53.684,7.706,68.051,23.119c14.368,15.412,21.552,40.882,21.552,76.409
		v188.348H3389.784z M3293.389,847.304v-5.225l56.688-74.973h54.074v7.576l-86.206,72.621H3293.389z"/>
	<path fill="#ffffff" d="M3718.933,1082.935c0,26.645-10.058,47.196-30.172,61.65c-20.115,14.457-48.287,21.682-84.509,21.682
		c-35.18,0-62.303-5.788-81.373-17.372c-19.069-11.58-31.479-29.649-37.225-54.205l41.535-8.099
		c4.004,15.152,12.277,26.254,24.816,33.308c12.539,7.053,29.952,10.579,52.246,10.579c23.858,0,41.315-3.656,52.377-10.971
		c11.058-7.314,16.588-18.287,16.588-32.916c0-11.143-3.832-20.2-11.494-27.168c-7.665-6.963-20.028-12.71-37.094-17.24
		l-33.699-8.883c-26.996-6.963-46.197-13.8-57.602-20.506c-11.408-6.702-20.335-14.846-26.775-24.426
		c-6.445-9.575-9.666-21.331-9.666-35.266c0-25.772,9.184-45.409,27.56-58.907c18.372-13.494,45.148-20.245,80.329-20.245
		c31.172,0,55.943,5.485,74.319,16.457c18.372,10.972,29.997,28.563,34.874,52.769l-42.318,5.225
		c-2.613-12.539-9.625-22.16-21.029-28.866c-11.408-6.702-26.69-10.057-45.846-10.057c-21.25,0-36.924,3.224-47.021,9.665
		c-10.103,6.445-15.152,16.196-15.152,29.258c0,8.013,2.09,14.629,6.27,19.854s10.36,9.665,18.548,13.323
		c8.184,3.656,25.425,8.71,51.724,15.15c24.902,6.27,42.842,12.062,53.813,17.372c10.972,5.314,19.633,11.192,25.992,17.634
		c6.355,6.444,11.274,13.89,14.76,22.335C3717.19,1062.518,3718.933,1072.138,3718.933,1082.935z"/>
	<path fill="#ffffff" d="M3951.428,1161.042l-95.61-129.048l-34.482,28.474v100.574h-47.021V773.376h47.021v242.16l124.085-137.146h55.119
		l-114.68,121.472l120.688,161.18H3951.428z"/>
	<path fill="#ffffff" d="M4041.553,818.308v-44.932h47.021v44.932H4041.553z M4041.553,1161.042V878.391h47.021v282.651H4041.553z"/>
	<path fill="#ffffff" d="M4196.725,1029.644c0,32.393,6.702,57.385,20.115,74.973c13.408,17.592,33,26.385,58.776,26.385
		c20.376,0,36.703-4.091,48.98-12.278c12.278-8.184,20.593-18.548,24.948-31.087l41.273,11.756
		c-16.894,44.585-55.295,66.875-115.202,66.875c-41.797,0-73.626-12.449-95.479-37.355c-21.857-24.903-32.785-61.912-32.785-111.023
		c0-46.671,10.928-82.459,32.785-107.365c21.854-24.903,53.07-37.356,93.65-37.356c83.072,0,124.607,50.07,124.607,150.208v6.27
		H4196.725z M4349.806,993.593c-2.612-29.779-10.188-51.503-22.728-65.177c-12.539-13.67-30.563-20.507-54.074-20.507
		c-22.816,0-40.883,7.621-54.205,22.858c-13.323,15.241-20.507,36.181-21.552,62.825H4349.806z"/>
	<path fill="#ffffff" d="M4565.321,1272.065c-30.825,0-55.381-6.054-73.667-18.156c-18.286-12.106-30.042-29.303-35.267-51.593l47.283-6.792
		c3.135,13.062,10.058,23.119,20.768,30.172c10.711,7.054,24.772,10.58,42.189,10.58c46.846,0,70.271-27.43,70.271-82.287v-45.455
		h-0.522c-8.882,18.115-21.074,31.74-36.572,40.883c-15.502,9.144-33.613,13.715-54.336,13.715
		c-34.658,0-60.128-11.494-76.41-34.482c-16.286-22.988-24.425-59.124-24.425-108.41c0-49.981,8.751-86.859,26.254-110.632
		c17.502-23.771,44.103-35.657,79.806-35.657c20.025,0,37.396,4.571,52.115,13.714c14.715,9.144,26.078,22.164,34.091,39.054h0.522
		c0-5.225,0.347-14.277,1.045-27.168c0.694-12.886,1.392-19.938,2.09-21.159h44.67c-1.045,9.404-1.566,28.911-1.566,58.516v216.038
		C4683.659,1232.358,4644.213,1272.065,4565.321,1272.065z M4636.898,1019.716c0-22.988-3.135-42.797-9.404-59.43
		c-6.27-16.629-15.11-29.344-26.515-38.14c-11.408-8.792-24.34-13.192-38.793-13.192c-24.033,0-41.535,8.711-52.508,26.123
		c-10.971,17.417-16.457,45.63-16.457,84.639c0,38.662,5.135,66.442,15.412,83.333c10.274,16.895,27.862,25.339,52.77,25.339
		c14.8,0,27.951-4.351,39.445-13.061c11.494-8.707,20.376-21.201,26.646-37.487
		C4633.764,1061.558,4636.898,1042.183,4636.898,1019.716z"/>
	<path fill="#ffffff" d="M4994.784,1019.455c0,49.462-10.887,86.296-32.654,110.501c-21.771,24.208-53.381,36.311-94.826,36.311
		c-41.275,0-72.451-12.58-93.521-37.748c-21.073-25.164-31.608-61.52-31.608-109.063c0-97.524,42.229-146.289,126.696-146.289
		c43.189,0,74.974,11.886,95.35,35.658C4984.596,932.596,4994.784,969.475,4994.784,1019.455z M4945.411,1019.455
		c0-39.009-5.792-67.353-17.372-85.03c-11.584-17.674-31.045-26.516-58.385-26.516c-27.519,0-47.413,9.013-59.691,27.038
		c-12.277,18.024-18.417,46.196-18.417,84.508c0,37.271,6.05,65.267,18.156,83.985c12.103,18.723,31.127,28.082,57.078,28.082
		c28.213,0,48.369-9.053,60.476-27.168C4939.358,1086.244,4945.411,1057.945,4945.411,1019.455z"/>
</g>
</svg>
