<?xml version="1.0" encoding="utf-8"?>
<!-- Generator: Adobe Illustrator 16.0.0, SVG Export Plug-In . SVG Version: 6.00 Build 0)  -->
<!DOCTYPE svg PUBLIC "-//W3C//DTD SVG 1.1//EN" "http://www.w3.org/Graphics/SVG/1.1/DTD/svg11.dtd">
<svg version="1.1" id="Layer_1" xmlns="http://www.w3.org/2000/svg" xmlns:xlink="http://www.w3.org/1999/xlink" x="0px" y="0px"
	 width="40px" height="40px" viewBox="0 0 40 40" enable-background="new 0 0 40 40" xml:space="preserve">
<circle fill="none" cx="20" cy="20.023" r="19.977"/>
<g>
	<path fill="#9E1C1C" d="M20,0.047C8.955,0.047,0,8.99,0,20.023C0,31.055,8.954,40,20,40s20-8.945,20-19.977
		C40,8.99,31.046,0.047,20,0.047z M20,6.021c3.654,0,6.617,2.958,6.617,6.607S23.654,19.235,20,19.235
		c-3.653,0-6.614-2.958-6.614-6.607S16.347,6.021,20,6.021z M19.996,34.775c-3.645,0-6.983-1.324-9.558-3.521
		c-0.627-0.533-0.989-1.316-0.989-2.141c0-3.7,2.999-6.661,6.704-6.661h7.699c3.705,0,6.693,2.961,6.693,6.661
		c0,0.824-0.361,1.607-0.99,2.141C26.979,33.451,23.641,34.775,19.996,34.775z"/>
</g>
</svg>
