<?xml version="1.0" encoding="utf-8"?>
<!-- Generator: Adobe Illustrator 16.0.0, SVG Export Plug-In . SVG Version: 6.00 Build 0)  -->
<!DOCTYPE svg PUBLIC "-//W3C//DTD SVG 1.1//EN" "http://www.w3.org/Graphics/SVG/1.1/DTD/svg11.dtd">
<svg version="1.1" id="Layer_1" xmlns="http://www.w3.org/2000/svg" xmlns:xlink="http://www.w3.org/1999/xlink" x="0px" y="0px"
	 width="150px" height="183.094px" viewBox="0 0 150 183.094" enable-background="new 0 0 150 183.094" xml:space="preserve">
<g>
	<path fill="#FFFFFF" d="M108.444,42.654C65.322-2.002-0.007,0.014-0.007,0.014v144.555h148.833
		C148.826,144.568,152.126,87.89,108.444,42.654z M142.789,138.701H6.036V5.88c0,0,62.156,1.743,98.963,40.804
		C143.678,87.732,142.789,138.701,142.789,138.701z"/>
	<circle fill="#FFFFFF" cx="83.533" cy="61.607" r="25.642"/>
	<g>
		<path fill="#FFFFFF" d="M10.538,176.745c-1.587,0-3.027-0.31-4.319-0.931c-1.292-0.62-2.401-1.445-3.327-2.473
			c-0.926-1.027-1.644-2.202-2.151-3.525c-0.509-1.322-0.763-2.675-0.763-4.06c0-1.444,0.27-2.828,0.809-4.15
			c0.539-1.323,1.282-2.492,2.228-3.51c0.947-1.018,2.071-1.826,3.373-2.427c1.302-0.601,2.716-0.9,4.242-0.9
			c1.567,0,2.996,0.32,4.289,0.961c1.292,0.641,2.396,1.48,3.312,2.519s1.628,2.218,2.137,3.541
			c0.508,1.322,0.763,2.665,0.763,4.028c0,1.445-0.265,2.823-0.793,4.136c-0.529,1.313-1.262,2.472-2.198,3.479
			c-0.936,1.008-2.056,1.812-3.357,2.411C13.478,176.445,12.064,176.745,10.538,176.745z M4.251,165.757
			c0,0.937,0.142,1.842,0.427,2.718c0.285,0.874,0.697,1.647,1.236,2.319c0.539,0.671,1.2,1.21,1.984,1.617
			c0.783,0.407,1.673,0.61,2.67,0.61c1.018,0,1.918-0.208,2.701-0.626c0.783-0.417,1.445-0.972,1.984-1.663
			c0.539-0.691,0.946-1.471,1.221-2.335c0.275-0.864,0.412-1.745,0.412-2.641c0-0.936-0.148-1.841-0.443-2.716
			s-0.712-1.648-1.251-2.32c-0.54-0.671-1.201-1.205-1.984-1.602c-0.783-0.397-1.664-0.596-2.64-0.596
			c-1.018,0-1.922,0.209-2.716,0.626c-0.793,0.418-1.455,0.967-1.984,1.647c-0.529,0.683-0.931,1.456-1.206,2.32
			C4.388,163.982,4.251,164.862,4.251,165.757z"/>
		<path fill="#FFFFFF" d="M24.364,176.593v-21.641h4.212v10.287l9.096-10.317h4.639l-8.302,9.614l8.821,12.057H38.1l-6.746-9.37
			l-2.777,2.899v6.471H24.364z"/>
		<path fill="#FFFFFF" d="M52.872,176.745c-1.587,0-3.027-0.31-4.319-0.931c-1.292-0.62-2.401-1.445-3.327-2.473
			s-1.643-2.202-2.152-3.525c-0.508-1.322-0.763-2.675-0.763-4.06c0-1.444,0.27-2.828,0.809-4.15
			c0.539-1.323,1.282-2.492,2.229-3.51c0.946-1.018,2.07-1.826,3.373-2.427c1.302-0.601,2.716-0.9,4.243-0.9
			c1.566,0,2.996,0.32,4.288,0.961s2.396,1.48,3.312,2.519s1.627,2.218,2.137,3.541c0.508,1.322,0.763,2.665,0.763,4.028
			c0,1.445-0.265,2.823-0.794,4.136s-1.262,2.472-2.197,3.479c-0.936,1.008-2.055,1.812-3.357,2.411
			C55.813,176.445,54.398,176.745,52.872,176.745z M46.584,165.757c0,0.937,0.143,1.842,0.428,2.718
			c0.284,0.874,0.696,1.647,1.236,2.319c0.539,0.671,1.2,1.21,1.984,1.617c0.783,0.407,1.673,0.61,2.671,0.61
			c1.017,0,1.917-0.208,2.701-0.626c0.783-0.417,1.444-0.972,1.984-1.663c0.539-0.691,0.946-1.471,1.221-2.335
			c0.275-0.864,0.412-1.745,0.412-2.641c0-0.936-0.148-1.841-0.442-2.716c-0.295-0.875-0.712-1.648-1.251-2.32
			c-0.54-0.671-1.201-1.205-1.984-1.602c-0.784-0.397-1.664-0.596-2.64-0.596c-1.018,0-1.923,0.209-2.716,0.626
			c-0.794,0.418-1.455,0.967-1.984,1.647c-0.529,0.683-0.931,1.456-1.206,2.32C46.722,163.982,46.584,164.862,46.584,165.757z"/>
		<path fill="#FFFFFF" d="M65.6,176.593v-4.396h3.357v4.396H65.6z"/>
		<path fill="#FFFFFF" d="M82.144,176.897c-1.262,0-2.361-0.28-3.297-0.839c-0.937-0.56-1.669-1.317-2.198-2.274v9.31h-4.089
			v-22.495h3.571v2.747c0.591-0.936,1.353-1.673,2.29-2.212c0.936-0.54,2.014-0.81,3.235-0.81c1.078,0,2.074,0.219,2.99,0.656
			c0.916,0.438,1.704,1.028,2.366,1.771c0.66,0.742,1.179,1.618,1.556,2.624c0.376,1.008,0.565,2.071,0.565,3.19
			c0,1.16-0.174,2.249-0.519,3.266c-0.347,1.018-0.83,1.903-1.45,2.656c-0.621,0.752-1.358,1.342-2.213,1.77
			S83.16,176.897,82.144,176.897z M80.77,173.418c0.61,0,1.176-0.132,1.694-0.396c0.519-0.264,0.961-0.621,1.327-1.068
			s0.651-0.966,0.854-1.557c0.203-0.59,0.306-1.2,0.306-1.831c0-0.672-0.112-1.297-0.336-1.877s-0.534-1.083-0.931-1.512
			c-0.397-0.427-0.865-0.763-1.404-1.007c-0.54-0.244-1.124-0.366-1.755-0.366c-0.388,0-0.783,0.066-1.19,0.198
			c-0.407,0.133-0.783,0.321-1.129,0.565c-0.347,0.244-0.656,0.529-0.932,0.854c-0.274,0.325-0.483,0.682-0.626,1.068v3.754
			c0.367,0.916,0.926,1.674,1.68,2.273C79.08,173.118,79.895,173.418,80.77,173.418z"/>
		<path fill="#FFFFFF" d="M101.433,164.14c-1.242,0.021-2.351,0.26-3.327,0.718s-1.678,1.144-2.105,2.06v9.676h-4.091v-15.994h3.755
			v3.419c0.284-0.55,0.62-1.042,1.007-1.48c0.387-0.437,0.804-0.818,1.251-1.145c0.448-0.325,0.9-0.574,1.358-0.748
			c0.458-0.173,0.901-0.26,1.328-0.26c0.224,0,0.392,0,0.503,0c0.112,0,0.219,0.011,0.321,0.031V164.14z"/>
		<path fill="#FFFFFF" d="M110.346,176.897c-1.282,0-2.442-0.218-3.479-0.656c-1.038-0.437-1.924-1.032-2.655-1.785
			c-0.733-0.752-1.298-1.628-1.694-2.625c-0.397-0.997-0.596-2.045-0.596-3.144c0-1.14,0.193-2.213,0.58-3.221
			c0.387-1.007,0.946-1.892,1.68-2.655c0.731-0.763,1.622-1.368,2.67-1.815s2.223-0.672,3.525-0.672
			c1.302,0,2.467,0.225,3.495,0.672c1.026,0.447,1.902,1.048,2.625,1.801c0.722,0.753,1.271,1.628,1.647,2.625
			c0.376,0.997,0.565,2.035,0.565,3.112c0,0.265-0.006,0.521-0.016,0.764c-0.01,0.244-0.036,0.447-0.076,0.61h-12.361
			c0.061,0.631,0.213,1.19,0.457,1.68c0.245,0.487,0.56,0.904,0.946,1.251c0.387,0.346,0.824,0.61,1.313,0.793
			c0.489,0.184,0.997,0.275,1.526,0.275c0.813,0,1.582-0.199,2.305-0.596c0.722-0.396,1.215-0.921,1.479-1.572l3.511,0.977
			c-0.591,1.222-1.532,2.224-2.823,3.007C113.677,176.506,112.136,176.897,110.346,176.897z M114.496,167.253
			c-0.102-1.201-0.545-2.162-1.328-2.884c-0.782-0.723-1.734-1.084-2.854-1.084c-0.549,0-1.063,0.097-1.541,0.29
			c-0.479,0.193-0.9,0.463-1.267,0.809c-0.366,0.347-0.667,0.764-0.9,1.251c-0.234,0.489-0.371,1.028-0.412,1.618H114.496z"/>
		<path fill="#FFFFFF" d="M127.255,176.897c-1.343,0-2.655-0.213-3.938-0.641c-1.281-0.428-2.38-1.038-3.296-1.831l1.525-2.564
			c0.978,0.692,1.929,1.216,2.854,1.572c0.927,0.356,1.847,0.533,2.763,0.533c0.813,0,1.454-0.151,1.923-0.457
			c0.468-0.305,0.702-0.742,0.702-1.313c0-0.569-0.274-0.987-0.824-1.252c-0.549-0.264-1.445-0.568-2.686-0.915
			c-1.038-0.285-1.923-0.56-2.656-0.824c-0.732-0.264-1.322-0.564-1.771-0.9c-0.447-0.335-0.773-0.722-0.977-1.159
			s-0.305-0.962-0.305-1.572c0-0.813,0.157-1.546,0.473-2.197s0.759-1.206,1.328-1.664s1.235-0.809,1.999-1.053
			s1.592-0.366,2.487-0.366c1.2,0,2.325,0.173,3.373,0.519c1.048,0.347,2.009,0.906,2.885,1.68l-1.648,2.471
			c-0.814-0.609-1.603-1.058-2.366-1.343c-0.762-0.284-1.521-0.427-2.273-0.427c-0.692,0-1.272,0.143-1.739,0.427
			c-0.469,0.285-0.702,0.743-0.702,1.374c0,0.285,0.056,0.519,0.168,0.702c0.111,0.183,0.29,0.346,0.534,0.488
			c0.243,0.143,0.563,0.28,0.961,0.412c0.396,0.132,0.89,0.27,1.48,0.412c1.1,0.285,2.04,0.57,2.823,0.854
			c0.782,0.285,1.424,0.611,1.923,0.977c0.498,0.366,0.865,0.789,1.099,1.267c0.234,0.479,0.352,1.054,0.352,1.725
			c0,1.567-0.58,2.803-1.74,3.708C130.826,176.445,129.248,176.897,127.255,176.897z"/>
		<path fill="#FFFFFF" d="M142.424,176.897c-1.343,0-2.656-0.213-3.938-0.641c-1.282-0.428-2.381-1.038-3.296-1.831l1.526-2.564
			c0.976,0.692,1.927,1.216,2.854,1.572c0.926,0.356,1.847,0.533,2.762,0.533c0.813,0,1.455-0.151,1.923-0.457
			c0.468-0.305,0.702-0.742,0.702-1.313c0-0.569-0.274-0.987-0.824-1.252c-0.55-0.264-1.445-0.568-2.686-0.915
			c-1.038-0.285-1.924-0.56-2.655-0.824c-0.733-0.264-1.323-0.564-1.771-0.9c-0.447-0.335-0.773-0.722-0.977-1.159
			c-0.204-0.438-0.306-0.962-0.306-1.572c0-0.813,0.158-1.546,0.474-2.197c0.314-0.651,0.757-1.206,1.327-1.664
			c0.569-0.458,1.236-0.809,1.999-1.053c0.764-0.244,1.592-0.366,2.488-0.366c1.2,0,2.324,0.173,3.372,0.519
			c1.048,0.347,2.01,0.906,2.884,1.68l-1.647,2.471c-0.814-0.609-1.603-1.058-2.365-1.343c-0.764-0.284-1.521-0.427-2.273-0.427
			c-0.692,0-1.272,0.143-1.74,0.427c-0.469,0.285-0.702,0.743-0.702,1.374c0,0.285,0.056,0.519,0.168,0.702
			c0.111,0.183,0.29,0.346,0.534,0.488s0.564,0.28,0.961,0.412c0.397,0.132,0.89,0.27,1.48,0.412c1.099,0.285,2.04,0.57,2.824,0.854
			c0.782,0.285,1.424,0.611,1.922,0.977c0.499,0.366,0.865,0.789,1.1,1.267c0.233,0.479,0.351,1.054,0.351,1.725
			c0,1.567-0.58,2.803-1.74,3.708C145.994,176.445,144.418,176.897,142.424,176.897z"/>
	</g>
</g>
</svg>
