<?xml version="1.0" encoding="UTF-8"?>
<svg width="18px" height="18px" viewBox="0 0 18 18" version="1.1" xmlns="http://www.w3.org/2000/svg" xmlns:xlink="http://www.w3.org/1999/xlink">

    <defs></defs>
    <g id="Page-1" stroke="none" stroke-width="1" fill="none" fill-rule="evenodd" stroke-linecap="round" stroke-linejoin="round">
        <g id="Home-v4" transform="translate(-374.000000, -4929.000000)" stroke="#942940" stroke-width="2">
            <g id="Group-25" transform="translate(0.000000, 4393.000000)">
                <g id="ikona_phone" transform="translate(375.000000, 537.000000)">
                    <path d="M15.2380952,11.936 L15.2380952,14.336 C15.2398368,14.7865161 15.060608,15.2169267 14.7444403,15.5214919 C14.4282726,15.8260571 14.0044678,15.9765505 13.5771429,15.936 C11.2326353,15.6685126 8.98057079,14.8273156 7.00190476,13.48 C5.1610119,12.2517311 3.60025611,10.6129375 2.43047619,8.68 C1.14284042,6.59296319 0.341518478,4.21679565 0.0914285714,1.744 C0.0529319698,1.29669787 0.195254863,0.853001939 0.48363107,0.521296845 C0.772007277,0.18959175 1.17988133,0.000422952191 1.60761905,7.15302383e-17 L3.89333333,7.15302383e-17 C4.65818214,-0.00790412572 5.31009588,0.580773986 5.41714286,1.376 C5.51361753,2.14405316 5.69253292,2.89818151 5.95047619,3.624 C6.1597981,4.20870002 6.02591625,4.86784501 5.60761905,5.312 L4.64,6.328 C5.72461369,8.33083666 7.30396508,9.98915562 9.21142857,11.128 L10.1790476,10.112 C10.6020524,9.67278794 11.2298095,9.532212 11.7866667,9.752 C12.4779224,10.0228404 13.1961398,10.2107016 13.927619,10.312 C14.693762,10.4254883 15.2572876,11.1238341 15.2380952,11.936 Z" id="Shape"></path>
                </g>
            </g>
        </g>
    </g>
</svg>
