<?xml version="1.0" encoding="UTF-8"?>
<svg width="15px" height="12px" viewBox="0 0 15 12" version="1.1" xmlns="http://www.w3.org/2000/svg" xmlns:xlink="http://www.w3.org/1999/xlink">
    <!-- Generator: sketchtool 51.3 (57544) - http://www.bohemiancoding.com/sketch -->
    <title>0FEE4A61-35E8-4D26-908C-5F2D851376FF</title>
    <desc>Created with sketchtool.</desc>
    <defs></defs>
    <g id="Styleguide" stroke="none" stroke-width="1" fill="none" fill-rule="evenodd">
        <g transform="translate(-405.000000, -3530.000000)" fill="#942940" fill-rule="nonzero" id="ikona_twitter">
            <path d="M420,3531.42063 C419.448125,3531.66181 418.855,3531.82424 418.2325,3531.89746 C418.868125,3531.52276 419.35625,3530.92904 419.585625,3530.22149 C418.99125,3530.5685 418.3325,3530.82075 417.63125,3530.95673 C417.070625,3530.36792 416.27,3530 415.385,3530 C413.398125,3530 411.938125,3531.82486 412.386875,3533.71924 C409.83,3533.59311 407.5625,3532.3872 406.044375,3530.55435 C405.238125,3531.91591 405.62625,3533.69709 406.99625,3534.59906 C406.4925,3534.58306 406.0175,3534.44709 405.603125,3534.22006 C405.569375,3535.62346 406.59125,3536.93642 408.07125,3537.22867 C407.638125,3537.34434 407.16375,3537.37141 406.68125,3537.28035 C407.0725,3538.4838 408.20875,3539.35931 409.55625,3539.38392 C408.2625,3540.38249 406.6325,3540.82855 405,3540.63905 C406.361875,3541.49856 407.98,3542 409.7175,3542 C415.43125,3542 418.659375,3537.24959 418.464375,3532.98893 C419.065625,3532.56132 419.5875,3532.02789 420,3531.42063 Z"></path>
        </g>
    </g>
</svg>